STARTFONT 2.1
FONT -RenOuFangSong 16-Book-R-Book--16-16-75-75-c-80-iso10646-1
SIZE 16 75 75
FONTBOUNDINGBOX 17 17 -1 -3
STARTPROPERTIES 10
FAMILY_NAME "RenOuFangSong 16"
WEIGHT_NAME "Book"
FONT_VERSION "Version 1.0"
COPYRIGHT "Copyright (c) yzdnn 2025, Copyright (c) Keitarou Hiraki, Font Silo. 1990-2015"
FOUNDRY "Made with Bits'n'Picas by Kreative Software"
FONT_ASCENT 14
FONT_DESCENT 2
POINT_SIZE 16
X_HEIGHT 9
CAP_HEIGHT 13
ENDPROPERTIES
CHARS 12376
STARTCHAR U+0000
ENCODING 0
SWIDTH 705 0
DWIDTH 12 0
BBX 0 0 0 0
BITMAP
ENDCHAR
STARTCHAR U+000D
ENCODING 13
SWIDTH 294 0
DWIDTH 5 0
BBX 0 0 0 0
BITMAP
ENDCHAR
STARTCHAR U+0020
ENCODING 32
SWIDTH 470 0
DWIDTH 8 0
BBX 0 0 0 0
BITMAP
ENDCHAR
STARTCHAR U+0021
ENCODING 33
SWIDTH 470 0
DWIDTH 8 0
BBX 2 13 3 0
BITMAP
80
80
80
80
80
80
80
80
80
00
00
C0
C0
ENDCHAR
STARTCHAR U+0022
ENCODING 34
SWIDTH 470 0
DWIDTH 8 0
BBX 5 5 1 8
BITMAP
D8
D8
48
48
90
ENDCHAR
STARTCHAR U+0023
ENCODING 35
SWIDTH 470 0
DWIDTH 8 0
BBX 7 13 0 0
BITMAP
44
44
44
FE
44
44
44
44
44
FE
44
44
44
ENDCHAR
STARTCHAR U+0024
ENCODING 36
SWIDTH 470 0
DWIDTH 8 0
BBX 7 16 0 -2
BITMAP
10
38
54
92
92
90
50
38
14
12
92
92
54
38
10
10
ENDCHAR
STARTCHAR U+0025
ENCODING 37
SWIDTH 470 0
DWIDTH 8 0
BBX 7 12 0 1
BITMAP
60
92
94
94
68
10
10
2C
52
52
92
0C
ENDCHAR
STARTCHAR U+0026
ENCODING 38
SWIDTH 470 0
DWIDTH 8 0
BBX 7 13 0 0
BITMAP
70
88
88
88
90
60
40
A2
92
8A
8C
44
3A
ENDCHAR
STARTCHAR U+0027
ENCODING 39
SWIDTH 470 0
DWIDTH 8 0
BBX 2 5 2 8
BITMAP
C0
C0
40
40
80
ENDCHAR
STARTCHAR U+0028
ENCODING 40
SWIDTH 470 0
DWIDTH 8 0
BBX 4 15 3 -1
BITMAP
10
20
40
40
80
80
80
80
80
80
80
40
40
20
10
ENDCHAR
STARTCHAR U+0029
ENCODING 41
SWIDTH 470 0
DWIDTH 8 0
BBX 4 15 1 -1
BITMAP
80
40
20
20
10
10
10
10
10
10
10
20
20
40
80
ENDCHAR
STARTCHAR U+002A
ENCODING 42
SWIDTH 470 0
DWIDTH 8 0
BBX 7 9 0 2
BITMAP
10
92
54
38
10
38
54
92
10
ENDCHAR
STARTCHAR U+002B
ENCODING 43
SWIDTH 470 0
DWIDTH 8 0
BBX 7 9 0 2
BITMAP
10
10
10
10
FE
10
10
10
10
ENDCHAR
STARTCHAR U+002C
ENCODING 44
SWIDTH 470 0
DWIDTH 8 0
BBX 2 5 3 -2
BITMAP
C0
C0
40
40
80
ENDCHAR
STARTCHAR U+002D
ENCODING 45
SWIDTH 470 0
DWIDTH 8 0
BBX 7 1 0 6
BITMAP
FE
ENDCHAR
STARTCHAR U+002E
ENCODING 46
SWIDTH 470 0
DWIDTH 8 0
BBX 2 2 3 1
BITMAP
C0
C0
ENDCHAR
STARTCHAR U+002F
ENCODING 47
SWIDTH 470 0
DWIDTH 8 0
BBX 7 16 0 -2
BITMAP
02
02
04
04
08
08
08
10
10
20
20
20
40
40
80
80
ENDCHAR
STARTCHAR U+0030
ENCODING 48
SWIDTH 470 0
DWIDTH 8 0
BBX 6 13 1 0
BITMAP
30
48
84
84
84
84
84
84
84
84
84
48
30
ENDCHAR
STARTCHAR U+0031
ENCODING 49
SWIDTH 470 0
DWIDTH 8 0
BBX 3 13 2 0
BITMAP
20
20
E0
20
20
20
20
20
20
20
20
20
20
ENDCHAR
STARTCHAR U+0032
ENCODING 50
SWIDTH 470 0
DWIDTH 8 0
BBX 6 13 1 0
BITMAP
30
48
84
84
04
08
10
10
20
40
40
80
FC
ENDCHAR
STARTCHAR U+0033
ENCODING 51
SWIDTH 470 0
DWIDTH 8 0
BBX 6 13 1 0
BITMAP
30
48
84
84
04
08
30
08
04
84
84
48
30
ENDCHAR
STARTCHAR U+0034
ENCODING 52
SWIDTH 470 0
DWIDTH 8 0
BBX 6 13 1 0
BITMAP
08
18
18
28
28
48
48
88
88
FC
08
08
08
ENDCHAR
STARTCHAR U+0035
ENCODING 53
SWIDTH 470 0
DWIDTH 8 0
BBX 6 13 1 0
BITMAP
F8
80
80
80
B0
C8
84
04
04
84
84
48
30
ENDCHAR
STARTCHAR U+0036
ENCODING 54
SWIDTH 470 0
DWIDTH 8 0
BBX 6 13 1 0
BITMAP
30
48
84
84
B0
C8
84
84
84
84
84
48
30
ENDCHAR
STARTCHAR U+0037
ENCODING 55
SWIDTH 470 0
DWIDTH 8 0
BBX 6 13 1 0
BITMAP
FC
04
04
08
08
10
10
10
20
20
20
20
20
ENDCHAR
STARTCHAR U+0038
ENCODING 56
SWIDTH 470 0
DWIDTH 8 0
BBX 6 13 1 0
BITMAP
30
48
84
84
84
48
30
48
84
84
84
48
30
ENDCHAR
STARTCHAR U+0039
ENCODING 57
SWIDTH 470 0
DWIDTH 8 0
BBX 6 13 1 0
BITMAP
30
48
84
84
84
84
84
4C
34
84
84
48
30
ENDCHAR
STARTCHAR U+003A
ENCODING 58
SWIDTH 470 0
DWIDTH 8 0
BBX 2 8 3 1
BITMAP
C0
C0
00
00
00
00
C0
C0
ENDCHAR
STARTCHAR U+003B
ENCODING 59
SWIDTH 470 0
DWIDTH 8 0
BBX 2 11 3 -2
BITMAP
C0
C0
00
00
00
00
C0
C0
40
40
80
ENDCHAR
STARTCHAR U+003C
ENCODING 60
SWIDTH 470 0
DWIDTH 8 0
BBX 7 14 0 -1
BITMAP
02
04
08
10
20
40
80
80
40
20
10
08
04
02
ENDCHAR
STARTCHAR U+003D
ENCODING 61
SWIDTH 470 0
DWIDTH 8 0
BBX 7 4 0 4
BITMAP
FE
00
00
FE
ENDCHAR
STARTCHAR U+003E
ENCODING 62
SWIDTH 470 0
DWIDTH 8 0
BBX 7 14 0 -1
BITMAP
80
40
20
10
08
04
02
02
04
08
10
20
40
80
ENDCHAR
STARTCHAR U+003F
ENCODING 63
SWIDTH 470 0
DWIDTH 8 0
BBX 7 13 0 0
BITMAP
38
44
82
82
02
04
08
10
10
00
00
30
30
ENDCHAR
STARTCHAR U+0040
ENCODING 64
SWIDTH 470 0
DWIDTH 8 0
BBX 7 13 0 0
BITMAP
38
44
44
92
AA
AA
AA
AA
AA
9C
40
42
3C
ENDCHAR
STARTCHAR U+0041
ENCODING 65
SWIDTH 470 0
DWIDTH 8 0
BBX 7 13 0 0
BITMAP
10
10
28
28
28
44
44
44
7C
82
82
82
82
ENDCHAR
STARTCHAR U+0042
ENCODING 66
SWIDTH 470 0
DWIDTH 8 0
BBX 7 13 0 0
BITMAP
F0
88
84
84
84
88
FC
84
82
82
82
84
F8
ENDCHAR
STARTCHAR U+0043
ENCODING 67
SWIDTH 470 0
DWIDTH 8 0
BBX 7 13 0 0
BITMAP
3C
42
42
82
80
80
80
80
80
82
42
44
38
ENDCHAR
STARTCHAR U+0044
ENCODING 68
SWIDTH 470 0
DWIDTH 8 0
BBX 7 13 0 0
BITMAP
F0
88
84
84
82
82
82
82
82
84
84
88
F0
ENDCHAR
STARTCHAR U+0045
ENCODING 69
SWIDTH 470 0
DWIDTH 8 0
BBX 7 13 0 0
BITMAP
FE
80
80
80
80
80
FC
80
80
80
80
80
FE
ENDCHAR
STARTCHAR U+0046
ENCODING 70
SWIDTH 470 0
DWIDTH 8 0
BBX 7 13 0 0
BITMAP
FE
80
80
80
80
80
FC
80
80
80
80
80
80
ENDCHAR
STARTCHAR U+0047
ENCODING 71
SWIDTH 470 0
DWIDTH 8 0
BBX 7 13 0 0
BITMAP
3C
42
42
82
80
80
80
9E
82
82
42
46
3A
ENDCHAR
STARTCHAR U+0048
ENCODING 72
SWIDTH 470 0
DWIDTH 8 0
BBX 7 13 0 0
BITMAP
82
82
82
82
82
82
FE
82
82
82
82
82
82
ENDCHAR
STARTCHAR U+0049
ENCODING 73
SWIDTH 470 0
DWIDTH 8 0
BBX 1 13 3 0
BITMAP
80
80
80
80
80
80
80
80
80
80
80
80
80
ENDCHAR
STARTCHAR U+004A
ENCODING 74
SWIDTH 470 0
DWIDTH 8 0
BBX 7 13 0 0
BITMAP
02
02
02
02
02
02
02
02
02
82
82
44
38
ENDCHAR
STARTCHAR U+004B
ENCODING 75
SWIDTH 470 0
DWIDTH 8 0
BBX 7 13 0 0
BITMAP
82
84
88
90
A0
C0
80
C0
A0
90
88
84
82
ENDCHAR
STARTCHAR U+004C
ENCODING 76
SWIDTH 470 0
DWIDTH 8 0
BBX 7 13 0 0
BITMAP
80
80
80
80
80
80
80
80
80
80
80
80
FE
ENDCHAR
STARTCHAR U+004D
ENCODING 77
SWIDTH 470 0
DWIDTH 8 0
BBX 7 13 0 0
BITMAP
82
82
C6
C6
AA
AA
AA
92
92
82
82
82
82
ENDCHAR
STARTCHAR U+004E
ENCODING 78
SWIDTH 470 0
DWIDTH 8 0
BBX 7 13 0 0
BITMAP
82
C2
C2
A2
A2
92
92
8A
8A
86
86
82
82
ENDCHAR
STARTCHAR U+004F
ENCODING 79
SWIDTH 470 0
DWIDTH 8 0
BBX 7 13 0 0
BITMAP
38
44
44
82
82
82
82
82
82
82
44
44
38
ENDCHAR
STARTCHAR U+0050
ENCODING 80
SWIDTH 470 0
DWIDTH 8 0
BBX 7 13 0 0
BITMAP
F8
84
82
82
82
82
84
F8
80
80
80
80
80
ENDCHAR
STARTCHAR U+0051
ENCODING 81
SWIDTH 470 0
DWIDTH 8 0
BBX 7 14 0 -1
BITMAP
38
44
44
82
82
82
92
92
8A
8A
44
44
3A
02
ENDCHAR
STARTCHAR U+0052
ENCODING 82
SWIDTH 470 0
DWIDTH 8 0
BBX 7 13 0 0
BITMAP
F8
84
82
82
82
84
F8
84
84
82
82
82
82
ENDCHAR
STARTCHAR U+0053
ENCODING 83
SWIDTH 470 0
DWIDTH 8 0
BBX 7 13 0 0
BITMAP
38
44
82
82
80
40
38
04
02
82
82
44
38
ENDCHAR
STARTCHAR U+0054
ENCODING 84
SWIDTH 470 0
DWIDTH 8 0
BBX 7 13 0 0
BITMAP
FE
10
10
10
10
10
10
10
10
10
10
10
10
ENDCHAR
STARTCHAR U+0055
ENCODING 85
SWIDTH 470 0
DWIDTH 8 0
BBX 7 13 0 0
BITMAP
82
82
82
82
82
82
82
82
82
82
82
44
38
ENDCHAR
STARTCHAR U+0056
ENCODING 86
SWIDTH 470 0
DWIDTH 8 0
BBX 7 13 0 0
BITMAP
82
82
82
82
44
44
44
44
28
28
28
10
10
ENDCHAR
STARTCHAR U+0057
ENCODING 87
SWIDTH 470 0
DWIDTH 8 0
BBX 7 13 0 0
BITMAP
92
92
92
92
92
92
92
92
54
54
6C
6C
6C
ENDCHAR
STARTCHAR U+0058
ENCODING 88
SWIDTH 470 0
DWIDTH 8 0
BBX 7 13 0 0
BITMAP
82
82
44
44
28
28
10
28
28
44
44
82
82
ENDCHAR
STARTCHAR U+0059
ENCODING 89
SWIDTH 470 0
DWIDTH 8 0
BBX 7 13 0 0
BITMAP
82
82
82
44
44
28
28
10
10
10
10
10
10
ENDCHAR
STARTCHAR U+005A
ENCODING 90
SWIDTH 470 0
DWIDTH 8 0
BBX 7 13 0 0
BITMAP
FE
02
04
04
08
08
10
20
20
40
40
80
FE
ENDCHAR
STARTCHAR U+005B
ENCODING 91
SWIDTH 470 0
DWIDTH 8 0
BBX 5 14 2 0
BITMAP
F8
80
80
80
80
80
80
80
80
80
80
80
80
F8
ENDCHAR
STARTCHAR U+005C
ENCODING 92
SWIDTH 470 0
DWIDTH 8 0
BBX 7 16 0 -2
BITMAP
80
80
40
40
20
20
20
10
10
08
08
08
04
04
02
02
ENDCHAR
STARTCHAR U+005D
ENCODING 93
SWIDTH 470 0
DWIDTH 8 0
BBX 5 14 1 0
BITMAP
F8
08
08
08
08
08
08
08
08
08
08
08
08
F8
ENDCHAR
STARTCHAR U+005E
ENCODING 94
SWIDTH 470 0
DWIDTH 8 0
BBX 7 4 0 9
BITMAP
10
28
44
82
ENDCHAR
STARTCHAR U+005F
ENCODING 95
SWIDTH 470 0
DWIDTH 8 0
BBX 7 1 0 -1
BITMAP
FE
ENDCHAR
STARTCHAR U+0060
ENCODING 96
SWIDTH 470 0
DWIDTH 8 0
BBX 2 5 3 8
BITMAP
40
80
80
C0
C0
ENDCHAR
STARTCHAR U+0061
ENCODING 97
SWIDTH 470 0
DWIDTH 8 0
BBX 7 9 0 0
BITMAP
78
04
02
02
7E
82
82
86
7A
ENDCHAR
STARTCHAR U+0062
ENCODING 98
SWIDTH 470 0
DWIDTH 8 0
BBX 7 14 0 0
BITMAP
80
80
80
80
80
B8
C4
82
82
82
82
82
C4
B8
ENDCHAR
STARTCHAR U+0063
ENCODING 99
SWIDTH 470 0
DWIDTH 8 0
BBX 7 9 0 0
BITMAP
3C
42
82
80
80
80
82
42
3C
ENDCHAR
STARTCHAR U+0064
ENCODING 100
SWIDTH 470 0
DWIDTH 8 0
BBX 7 14 0 0
BITMAP
02
02
02
02
02
3A
46
82
82
82
82
82
46
3A
ENDCHAR
STARTCHAR U+0065
ENCODING 101
SWIDTH 470 0
DWIDTH 8 0
BBX 7 9 0 0
BITMAP
38
44
82
82
FE
80
80
46
3C
ENDCHAR
STARTCHAR U+0066
ENCODING 102
SWIDTH 470 0
DWIDTH 8 0
BBX 7 14 0 0
BITMAP
06
08
10
10
10
FE
10
10
10
10
10
10
10
10
ENDCHAR
STARTCHAR U+0067
ENCODING 103
SWIDTH 470 0
DWIDTH 8 0
BBX 7 11 0 -2
BITMAP
3A
46
82
82
82
82
82
46
3A
C4
78
ENDCHAR
STARTCHAR U+0068
ENCODING 104
SWIDTH 470 0
DWIDTH 8 0
BBX 7 14 0 0
BITMAP
80
80
80
80
80
B8
C4
82
82
82
82
82
82
82
ENDCHAR
STARTCHAR U+0069
ENCODING 105
SWIDTH 470 0
DWIDTH 8 0
BBX 1 13 3 0
BITMAP
80
80
00
00
80
80
80
80
80
80
80
80
80
ENDCHAR
STARTCHAR U+006A
ENCODING 106
SWIDTH 470 0
DWIDTH 8 0
BBX 7 15 0 -2
BITMAP
02
02
00
00
02
02
02
02
02
02
02
82
82
44
38
ENDCHAR
STARTCHAR U+006B
ENCODING 107
SWIDTH 470 0
DWIDTH 8 0
BBX 7 14 0 0
BITMAP
80
80
80
80
80
82
84
88
90
E0
90
88
84
82
ENDCHAR
STARTCHAR U+006C
ENCODING 108
SWIDTH 470 0
DWIDTH 8 0
BBX 1 14 3 0
BITMAP
80
80
80
80
80
80
80
80
80
80
80
80
80
80
ENDCHAR
STARTCHAR U+006D
ENCODING 109
SWIDTH 470 0
DWIDTH 8 0
BBX 7 9 0 0
BITMAP
EC
92
92
92
92
92
92
92
92
ENDCHAR
STARTCHAR U+006E
ENCODING 110
SWIDTH 470 0
DWIDTH 8 0
BBX 7 9 0 0
BITMAP
B8
C4
82
82
82
82
82
82
82
ENDCHAR
STARTCHAR U+006F
ENCODING 111
SWIDTH 470 0
DWIDTH 8 0
BBX 7 9 0 0
BITMAP
38
44
82
82
82
82
82
44
38
ENDCHAR
STARTCHAR U+0070
ENCODING 112
SWIDTH 470 0
DWIDTH 8 0
BBX 7 11 0 -2
BITMAP
B8
C4
82
82
82
82
82
C4
B8
80
80
ENDCHAR
STARTCHAR U+0071
ENCODING 113
SWIDTH 470 0
DWIDTH 8 0
BBX 7 11 0 -2
BITMAP
3A
46
82
82
82
82
82
46
3A
02
02
ENDCHAR
STARTCHAR U+0072
ENCODING 114
SWIDTH 470 0
DWIDTH 8 0
BBX 7 9 0 0
BITMAP
B8
C4
82
82
80
80
80
80
80
ENDCHAR
STARTCHAR U+0073
ENCODING 115
SWIDTH 470 0
DWIDTH 8 0
BBX 7 9 0 0
BITMAP
7C
82
82
40
38
04
82
82
7C
ENDCHAR
STARTCHAR U+0074
ENCODING 116
SWIDTH 470 0
DWIDTH 8 0
BBX 7 12 0 0
BITMAP
20
20
20
FE
20
20
20
20
20
20
10
0E
ENDCHAR
STARTCHAR U+0075
ENCODING 117
SWIDTH 470 0
DWIDTH 8 0
BBX 7 9 0 0
BITMAP
82
82
82
82
82
82
82
46
3A
ENDCHAR
STARTCHAR U+0076
ENCODING 118
SWIDTH 470 0
DWIDTH 8 0
BBX 7 9 0 0
BITMAP
82
82
82
44
44
28
28
10
10
ENDCHAR
STARTCHAR U+0077
ENCODING 119
SWIDTH 470 0
DWIDTH 8 0
BBX 7 9 0 0
BITMAP
92
92
92
92
92
54
54
6C
6C
ENDCHAR
STARTCHAR U+0078
ENCODING 120
SWIDTH 470 0
DWIDTH 8 0
BBX 7 9 0 0
BITMAP
82
44
44
28
10
28
44
44
82
ENDCHAR
STARTCHAR U+0079
ENCODING 121
SWIDTH 470 0
DWIDTH 8 0
BBX 7 11 0 -2
BITMAP
82
82
44
44
28
28
10
10
20
A0
C0
ENDCHAR
STARTCHAR U+007A
ENCODING 122
SWIDTH 470 0
DWIDTH 8 0
BBX 7 9 0 0
BITMAP
FE
02
04
08
10
20
40
80
FE
ENDCHAR
STARTCHAR U+007B
ENCODING 123
SWIDTH 470 0
DWIDTH 8 0
BBX 6 13 1 0
BITMAP
0C
10
20
20
20
20
C0
20
20
20
20
10
0C
ENDCHAR
STARTCHAR U+007C
ENCODING 124
SWIDTH 470 0
DWIDTH 8 0
BBX 1 16 3 -2
BITMAP
80
80
80
80
80
80
80
80
80
80
80
80
80
80
80
80
ENDCHAR
STARTCHAR U+007D
ENCODING 125
SWIDTH 470 0
DWIDTH 8 0
BBX 6 13 1 0
BITMAP
C0
20
10
10
10
10
0C
10
10
10
10
20
C0
ENDCHAR
STARTCHAR U+007E
ENCODING 126
SWIDTH 470 0
DWIDTH 8 0
BBX 7 2 0 11
BITMAP
72
8C
ENDCHAR
STARTCHAR U+00A0
ENCODING 160
SWIDTH 470 0
DWIDTH 8 0
BBX 0 0 0 0
BITMAP
ENDCHAR
STARTCHAR U+00A1
ENCODING 161
SWIDTH 470 0
DWIDTH 8 0
BBX 2 13 3 0
BITMAP
C0
C0
00
00
40
40
40
40
40
40
40
40
40
ENDCHAR
STARTCHAR U+00A2
ENCODING 162
SWIDTH 941 0
DWIDTH 16 0
BBX 7 14 4 -2
BITMAP
08
08
0A
3E
4A
8A
90
90
90
90
52
3C
20
20
ENDCHAR
STARTCHAR U+00A3
ENCODING 163
SWIDTH 941 0
DWIDTH 16 0
BBX 11 14 2 -1
BITMAP
0E00
1100
2080
2100
1000
1000
FF80
1000
0800
0820
6820
9820
9640
6180
ENDCHAR
STARTCHAR U+00A4
ENCODING 164
SWIDTH 941 0
DWIDTH 16 0
BBX 10 10 3 1
BITMAP
8040
4C80
3300
2100
4080
4080
2100
3300
4C80
8040
ENDCHAR
STARTCHAR U+00A5
ENCODING 165
SWIDTH 470 0
DWIDTH 8 0
BBX 7 13 0 0
BITMAP
82
82
82
44
44
28
FE
10
10
FE
10
10
10
ENDCHAR
STARTCHAR U+00A6
ENCODING 166
SWIDTH 470 0
DWIDTH 8 0
BBX 1 11 3 1
BITMAP
80
80
80
80
00
00
00
80
80
80
80
ENDCHAR
STARTCHAR U+00A7
ENCODING 167
SWIDTH 941 0
DWIDTH 16 0
BBX 7 15 4 -1
BITMAP
38
44
82
86
40
30
4C
82
64
18
04
C2
82
44
38
ENDCHAR
STARTCHAR U+00A8
ENCODING 168
SWIDTH 941 0
DWIDTH 16 0
BBX 6 2 4 12
BITMAP
CC
CC
ENDCHAR
STARTCHAR U+00A9
ENCODING 169
SWIDTH 941 0
DWIDTH 16 0
BBX 13 14 1 -1
BITMAP
0F80
3060
4010
4710
8888
9088
9008
9008
9088
8888
4710
4010
3060
0F80
ENDCHAR
STARTCHAR U+00AA
ENCODING 170
SWIDTH 470 0
DWIDTH 8 0
BBX 5 5 1 8
BITMAP
70
08
78
98
68
ENDCHAR
STARTCHAR U+00AB
ENCODING 171
SWIDTH 470 0
DWIDTH 8 0
BBX 7 14 0 -1
BITMAP
12
12
24
24
48
48
90
90
48
48
24
24
12
12
ENDCHAR
STARTCHAR U+00AC
ENCODING 172
SWIDTH 941 0
DWIDTH 16 0
BBX 11 5 2 3
BITMAP
FFE0
0020
0020
0020
0020
ENDCHAR
STARTCHAR U+00AD
ENCODING 173
SWIDTH 470 0
DWIDTH 8 0
BBX 7 1 0 6
BITMAP
FE
ENDCHAR
STARTCHAR U+00AE
ENCODING 174
SWIDTH 941 0
DWIDTH 16 0
BBX 13 14 1 -1
BITMAP
0F80
3060
4010
4F10
8888
8888
8888
8F08
8908
8888
4890
4010
3060
0F80
ENDCHAR
STARTCHAR U+00AF
ENCODING 175
SWIDTH 470 0
DWIDTH 8 0
BBX 7 1 0 12
BITMAP
FE
ENDCHAR
STARTCHAR U+00B0
ENCODING 176
SWIDTH 941 0
DWIDTH 16 0
BBX 5 5 0 9
BITMAP
70
88
88
88
70
ENDCHAR
STARTCHAR U+00B1
ENCODING 177
SWIDTH 941 0
DWIDTH 16 0
BBX 11 12 2 1
BITMAP
0400
0400
0400
0400
FFE0
0400
0400
0400
0400
0000
0000
FFE0
ENDCHAR
STARTCHAR U+00B2
ENCODING 178
SWIDTH 470 0
DWIDTH 8 0
BBX 5 5 1 8
BITMAP
70
88
30
40
F8
ENDCHAR
STARTCHAR U+00B3
ENCODING 179
SWIDTH 470 0
DWIDTH 8 0
BBX 5 5 1 8
BITMAP
70
88
30
88
70
ENDCHAR
STARTCHAR U+00B4
ENCODING 180
SWIDTH 941 0
DWIDTH 16 0
BBX 3 3 6 11
BITMAP
20
40
80
ENDCHAR
STARTCHAR U+00B5
ENCODING 181
SWIDTH 470 0
DWIDTH 8 0
BBX 7 11 0 -2
BITMAP
82
82
82
82
82
82
C6
BA
80
80
80
ENDCHAR
STARTCHAR U+00B6
ENCODING 182
SWIDTH 941 0
DWIDTH 16 0
BBX 9 14 2 -1
BITMAP
3F80
7880
F880
F880
7880
3880
0880
0880
0880
0880
0880
0880
0880
0880
ENDCHAR
STARTCHAR U+00B7
ENCODING 183
SWIDTH 470 0
DWIDTH 8 0
BBX 2 2 3 5
BITMAP
C0
C0
ENDCHAR
STARTCHAR U+00B8
ENCODING 184
SWIDTH 470 0
DWIDTH 8 0
BBX 3 2 1 -2
BITMAP
20
C0
ENDCHAR
STARTCHAR U+00B9
ENCODING 185
SWIDTH 470 0
DWIDTH 8 0
BBX 3 5 1 8
BITMAP
20
E0
20
20
20
ENDCHAR
STARTCHAR U+00BA
ENCODING 186
SWIDTH 470 0
DWIDTH 8 0
BBX 5 5 1 8
BITMAP
70
88
88
88
70
ENDCHAR
STARTCHAR U+00BB
ENCODING 187
SWIDTH 470 0
DWIDTH 8 0
BBX 7 14 0 -1
BITMAP
90
90
48
48
24
24
12
12
24
24
48
48
90
90
ENDCHAR
STARTCHAR U+00BC
ENCODING 188
SWIDTH 470 0
DWIDTH 8 0
BBX 7 14 0 -1
BITMAP
10
70
10
10
10
00
06
38
C0
04
0C
14
3E
04
ENDCHAR
STARTCHAR U+00BD
ENCODING 189
SWIDTH 470 0
DWIDTH 8 0
BBX 7 14 0 -1
BITMAP
10
70
10
10
10
00
06
38
C0
1C
22
0C
10
3E
ENDCHAR
STARTCHAR U+00BE
ENCODING 190
SWIDTH 470 0
DWIDTH 8 0
BBX 7 14 0 -1
BITMAP
70
88
30
88
70
00
06
38
C0
04
0C
14
3E
04
ENDCHAR
STARTCHAR U+00BF
ENCODING 191
SWIDTH 470 0
DWIDTH 8 0
BBX 7 13 0 0
BITMAP
18
18
00
00
10
10
20
40
80
82
82
44
38
ENDCHAR
STARTCHAR U+00C0
ENCODING 192
SWIDTH 470 0
DWIDTH 8 0
BBX 7 14 0 0
BITMAP
60
1C
10
10
28
28
44
44
44
7C
82
82
82
82
ENDCHAR
STARTCHAR U+00C1
ENCODING 193
SWIDTH 470 0
DWIDTH 8 0
BBX 7 14 0 0
BITMAP
0C
70
10
10
28
28
44
44
44
7C
82
82
82
82
ENDCHAR
STARTCHAR U+00C2
ENCODING 194
SWIDTH 470 0
DWIDTH 8 0
BBX 7 14 0 0
BITMAP
38
44
10
10
28
28
44
44
44
7C
82
82
82
82
ENDCHAR
STARTCHAR U+00C3
ENCODING 195
SWIDTH 470 0
DWIDTH 8 0
BBX 7 14 0 0
BITMAP
34
48
10
10
28
28
44
44
44
7C
82
82
82
82
ENDCHAR
STARTCHAR U+00C4
ENCODING 196
SWIDTH 470 0
DWIDTH 8 0
BBX 7 14 0 0
BITMAP
44
00
10
10
28
28
44
44
44
7C
82
82
82
82
ENDCHAR
STARTCHAR U+00C5
ENCODING 197
SWIDTH 470 0
DWIDTH 8 0
BBX 7 14 0 0
BITMAP
38
44
38
10
28
28
44
44
44
7C
82
82
82
82
ENDCHAR
STARTCHAR U+00C6
ENCODING 198
SWIDTH 470 0
DWIDTH 8 0
BBX 7 13 0 0
BITMAP
3E
30
50
50
50
90
FC
90
90
90
90
90
9E
ENDCHAR
STARTCHAR U+00C7
ENCODING 199
SWIDTH 470 0
DWIDTH 8 0
BBX 7 15 0 -2
BITMAP
3C
42
42
82
80
80
80
80
80
82
42
44
38
10
60
ENDCHAR
STARTCHAR U+00C8
ENCODING 200
SWIDTH 470 0
DWIDTH 8 0
BBX 7 14 0 0
BITMAP
60
10
FE
80
80
80
80
FC
80
80
80
80
80
FE
ENDCHAR
STARTCHAR U+00C9
ENCODING 201
SWIDTH 470 0
DWIDTH 8 0
BBX 7 14 0 0
BITMAP
0C
10
FE
80
80
80
80
FC
80
80
80
80
80
FE
ENDCHAR
STARTCHAR U+00CA
ENCODING 202
SWIDTH 470 0
DWIDTH 8 0
BBX 7 14 0 0
BITMAP
38
44
FE
80
80
80
80
FC
80
80
80
80
80
FE
ENDCHAR
STARTCHAR U+00CB
ENCODING 203
SWIDTH 470 0
DWIDTH 8 0
BBX 7 14 0 0
BITMAP
44
00
FE
80
80
80
80
FC
80
80
80
80
80
FE
ENDCHAR
STARTCHAR U+00CC
ENCODING 204
SWIDTH 470 0
DWIDTH 8 0
BBX 5 14 1 0
BITMAP
C0
38
00
20
20
20
20
20
20
20
20
20
20
20
ENDCHAR
STARTCHAR U+00CD
ENCODING 205
SWIDTH 470 0
DWIDTH 8 0
BBX 5 14 1 0
BITMAP
18
E0
00
20
20
20
20
20
20
20
20
20
20
20
ENDCHAR
STARTCHAR U+00CE
ENCODING 206
SWIDTH 470 0
DWIDTH 8 0
BBX 5 14 1 0
BITMAP
70
88
20
20
20
20
20
20
20
20
20
20
20
20
ENDCHAR
STARTCHAR U+00CF
ENCODING 207
SWIDTH 470 0
DWIDTH 8 0
BBX 5 14 1 0
BITMAP
88
00
20
20
20
20
20
20
20
20
20
20
20
20
ENDCHAR
STARTCHAR U+00D0
ENCODING 208
SWIDTH 470 0
DWIDTH 8 0
BBX 7 13 0 0
BITMAP
F0
88
84
84
82
82
E2
82
82
84
84
88
F0
ENDCHAR
STARTCHAR U+00D1
ENCODING 209
SWIDTH 470 0
DWIDTH 8 0
BBX 7 14 0 0
BITMAP
34
48
82
C2
A2
A2
92
92
8A
8A
86
86
82
82
ENDCHAR
STARTCHAR U+00D2
ENCODING 210
SWIDTH 470 0
DWIDTH 8 0
BBX 7 14 0 0
BITMAP
70
0C
38
44
44
82
82
82
82
82
82
44
44
38
ENDCHAR
STARTCHAR U+00D3
ENCODING 211
SWIDTH 470 0
DWIDTH 8 0
BBX 7 14 0 0
BITMAP
1C
60
38
44
44
82
82
82
82
82
82
44
44
38
ENDCHAR
STARTCHAR U+00D4
ENCODING 212
SWIDTH 470 0
DWIDTH 8 0
BBX 7 14 0 0
BITMAP
38
44
38
44
44
82
82
82
82
82
82
44
44
38
ENDCHAR
STARTCHAR U+00D5
ENCODING 213
SWIDTH 470 0
DWIDTH 8 0
BBX 7 14 0 0
BITMAP
34
48
38
44
44
82
82
82
82
82
82
44
44
38
ENDCHAR
STARTCHAR U+00D6
ENCODING 214
SWIDTH 470 0
DWIDTH 8 0
BBX 7 14 0 0
BITMAP
44
00
38
44
44
82
82
82
82
82
82
44
44
38
ENDCHAR
STARTCHAR U+00D7
ENCODING 215
SWIDTH 941 0
DWIDTH 16 0
BBX 9 10 3 1
BITMAP
8080
4100
2200
1400
0800
0800
1400
2200
4100
8080
ENDCHAR
STARTCHAR U+00D8
ENCODING 216
SWIDTH 470 0
DWIDTH 8 0
BBX 7 16 0 -2
BITMAP
02
3A
44
44
8A
8A
8A
92
92
A2
A2
64
44
78
80
80
ENDCHAR
STARTCHAR U+00D9
ENCODING 217
SWIDTH 470 0
DWIDTH 8 0
BBX 7 14 0 0
BITMAP
60
18
82
82
82
82
82
82
82
82
82
82
44
38
ENDCHAR
STARTCHAR U+00DA
ENCODING 218
SWIDTH 470 0
DWIDTH 8 0
BBX 7 14 0 0
BITMAP
0C
30
82
82
82
82
82
82
82
82
82
82
44
38
ENDCHAR
STARTCHAR U+00DB
ENCODING 219
SWIDTH 470 0
DWIDTH 8 0
BBX 7 14 0 0
BITMAP
10
28
82
82
82
82
82
82
82
82
82
82
44
38
ENDCHAR
STARTCHAR U+00DC
ENCODING 220
SWIDTH 470 0
DWIDTH 8 0
BBX 7 14 0 0
BITMAP
44
00
82
82
82
82
82
82
82
82
82
82
44
38
ENDCHAR
STARTCHAR U+00DD
ENCODING 221
SWIDTH 470 0
DWIDTH 8 0
BBX 7 14 0 0
BITMAP
0C
30
82
82
44
44
28
28
10
10
10
10
10
10
ENDCHAR
STARTCHAR U+00DE
ENCODING 222
SWIDTH 470 0
DWIDTH 8 0
BBX 7 13 0 0
BITMAP
80
80
F8
84
82
82
82
82
84
F8
80
80
80
ENDCHAR
STARTCHAR U+00DF
ENCODING 223
SWIDTH 470 0
DWIDTH 8 0
BBX 7 13 0 0
BITMAP
30
48
84
84
84
88
BC
84
82
82
82
A4
98
ENDCHAR
STARTCHAR U+00E0
ENCODING 224
SWIDTH 470 0
DWIDTH 8 0
BBX 7 12 0 0
BITMAP
60
1C
00
78
04
02
02
7E
82
82
86
7A
ENDCHAR
STARTCHAR U+00E1
ENCODING 225
SWIDTH 470 0
DWIDTH 8 0
BBX 7 12 0 0
BITMAP
0C
70
00
78
04
02
02
7E
82
82
86
7A
ENDCHAR
STARTCHAR U+00E2
ENCODING 226
SWIDTH 470 0
DWIDTH 8 0
BBX 7 12 0 0
BITMAP
38
44
00
78
04
02
02
7E
82
82
86
7A
ENDCHAR
STARTCHAR U+00E3
ENCODING 227
SWIDTH 470 0
DWIDTH 8 0
BBX 7 12 0 0
BITMAP
34
48
00
78
04
02
02
7E
82
82
86
7A
ENDCHAR
STARTCHAR U+00E4
ENCODING 228
SWIDTH 470 0
DWIDTH 8 0
BBX 7 11 0 0
BITMAP
44
00
78
04
02
02
7E
82
82
86
7A
ENDCHAR
STARTCHAR U+00E5
ENCODING 229
SWIDTH 470 0
DWIDTH 8 0
BBX 7 13 0 0
BITMAP
38
44
38
00
78
04
02
02
7E
82
82
86
7A
ENDCHAR
STARTCHAR U+00E6
ENCODING 230
SWIDTH 470 0
DWIDTH 8 0
BBX 7 9 0 0
BITMAP
6C
14
12
12
7E
90
90
96
6C
ENDCHAR
STARTCHAR U+00E7
ENCODING 231
SWIDTH 470 0
DWIDTH 8 0
BBX 7 11 0 -2
BITMAP
3C
42
82
80
80
80
82
42
3C
10
60
ENDCHAR
STARTCHAR U+00E8
ENCODING 232
SWIDTH 470 0
DWIDTH 8 0
BBX 7 12 0 0
BITMAP
60
1C
00
38
44
82
82
FE
80
80
46
3C
ENDCHAR
STARTCHAR U+00E9
ENCODING 233
SWIDTH 470 0
DWIDTH 8 0
BBX 7 12 0 0
BITMAP
0C
70
00
38
44
82
82
FE
80
80
46
3C
ENDCHAR
STARTCHAR U+00EA
ENCODING 234
SWIDTH 470 0
DWIDTH 8 0
BBX 7 12 0 0
BITMAP
38
44
00
38
44
82
82
FE
80
80
46
3C
ENDCHAR
STARTCHAR U+00EB
ENCODING 235
SWIDTH 470 0
DWIDTH 8 0
BBX 7 11 0 0
BITMAP
44
00
38
44
82
82
FE
80
80
46
3C
ENDCHAR
STARTCHAR U+00EC
ENCODING 236
SWIDTH 470 0
DWIDTH 8 0
BBX 5 12 1 0
BITMAP
C0
38
00
20
20
20
20
20
20
20
20
20
ENDCHAR
STARTCHAR U+00ED
ENCODING 237
SWIDTH 470 0
DWIDTH 8 0
BBX 5 12 1 0
BITMAP
18
E0
00
20
20
20
20
20
20
20
20
20
ENDCHAR
STARTCHAR U+00EE
ENCODING 238
SWIDTH 470 0
DWIDTH 8 0
BBX 5 12 1 0
BITMAP
70
88
00
20
20
20
20
20
20
20
20
20
ENDCHAR
STARTCHAR U+00EF
ENCODING 239
SWIDTH 470 0
DWIDTH 8 0
BBX 5 11 1 0
BITMAP
88
00
20
20
20
20
20
20
20
20
20
ENDCHAR
STARTCHAR U+00F0
ENCODING 240
SWIDTH 470 0
DWIDTH 8 0
BBX 7 14 0 0
BITMAP
64
18
28
44
04
3A
46
82
82
82
82
82
44
38
ENDCHAR
STARTCHAR U+00F1
ENCODING 241
SWIDTH 470 0
DWIDTH 8 0
BBX 7 12 0 0
BITMAP
34
48
00
B8
C4
82
82
82
82
82
82
82
ENDCHAR
STARTCHAR U+00F2
ENCODING 242
SWIDTH 470 0
DWIDTH 8 0
BBX 7 12 0 0
BITMAP
60
1C
00
38
44
82
82
82
82
82
44
38
ENDCHAR
STARTCHAR U+00F3
ENCODING 243
SWIDTH 470 0
DWIDTH 8 0
BBX 7 12 0 0
BITMAP
0C
70
00
38
44
82
82
82
82
82
44
38
ENDCHAR
STARTCHAR U+00F4
ENCODING 244
SWIDTH 470 0
DWIDTH 8 0
BBX 7 12 0 0
BITMAP
38
44
00
38
44
82
82
82
82
82
44
38
ENDCHAR
STARTCHAR U+00F5
ENCODING 245
SWIDTH 470 0
DWIDTH 8 0
BBX 7 12 0 0
BITMAP
34
48
00
38
44
82
82
82
82
82
44
38
ENDCHAR
STARTCHAR U+00F6
ENCODING 246
SWIDTH 470 0
DWIDTH 8 0
BBX 7 11 0 0
BITMAP
44
00
38
44
82
82
82
82
82
44
38
ENDCHAR
STARTCHAR U+00F7
ENCODING 247
SWIDTH 941 0
DWIDTH 16 0
BBX 11 11 2 1
BITMAP
0400
0E00
0400
0000
0000
FFE0
0000
0000
0400
0E00
0400
ENDCHAR
STARTCHAR U+00F8
ENCODING 248
SWIDTH 470 0
DWIDTH 8 0
BBX 7 11 0 -1
BITMAP
02
3C
44
8A
8A
92
A2
A2
44
78
80
ENDCHAR
STARTCHAR U+00F9
ENCODING 249
SWIDTH 470 0
DWIDTH 8 0
BBX 7 12 0 0
BITMAP
60
1C
00
82
82
82
82
82
82
82
46
3A
ENDCHAR
STARTCHAR U+00FA
ENCODING 250
SWIDTH 470 0
DWIDTH 8 0
BBX 7 12 0 0
BITMAP
0C
70
00
82
82
82
82
82
82
82
46
3A
ENDCHAR
STARTCHAR U+00FB
ENCODING 251
SWIDTH 470 0
DWIDTH 8 0
BBX 7 12 0 0
BITMAP
38
44
00
82
82
82
82
82
82
82
46
3A
ENDCHAR
STARTCHAR U+00FC
ENCODING 252
SWIDTH 470 0
DWIDTH 8 0
BBX 7 11 0 0
BITMAP
44
00
82
82
82
82
82
82
82
46
3A
ENDCHAR
STARTCHAR U+00FD
ENCODING 253
SWIDTH 470 0
DWIDTH 8 0
BBX 7 14 0 -2
BITMAP
0C
70
00
82
82
44
44
28
28
10
10
20
A0
C0
ENDCHAR
STARTCHAR U+00FE
ENCODING 254
SWIDTH 470 0
DWIDTH 8 0
BBX 7 16 0 -2
BITMAP
80
80
80
80
80
B8
C4
82
82
82
82
82
C4
B8
80
80
ENDCHAR
STARTCHAR U+00FF
ENCODING 255
SWIDTH 470 0
DWIDTH 8 0
BBX 7 13 0 -2
BITMAP
44
00
82
82
44
44
28
28
10
10
20
A0
C0
ENDCHAR
STARTCHAR U+0101
ENCODING 257
SWIDTH 470 0
DWIDTH 8 0
BBX 7 11 0 0
BITMAP
7C
00
78
04
02
02
7E
82
82
86
7A
ENDCHAR
STARTCHAR U+0113
ENCODING 275
SWIDTH 470 0
DWIDTH 8 0
BBX 7 11 0 0
BITMAP
7C
00
38
44
82
82
FE
80
80
46
3C
ENDCHAR
STARTCHAR U+011B
ENCODING 283
SWIDTH 470 0
DWIDTH 8 0
BBX 7 12 0 0
BITMAP
44
38
00
38
44
82
82
FE
80
80
46
3C
ENDCHAR
STARTCHAR U+012B
ENCODING 299
SWIDTH 470 0
DWIDTH 8 0
BBX 5 11 1 0
BITMAP
F8
00
20
20
20
20
20
20
20
20
20
ENDCHAR
STARTCHAR U+014B
ENCODING 331
SWIDTH 470 0
DWIDTH 8 0
BBX 7 11 0 -2
BITMAP
B8
C4
82
82
82
82
82
82
82
02
0C
ENDCHAR
STARTCHAR U+014D
ENCODING 333
SWIDTH 470 0
DWIDTH 8 0
BBX 7 11 0 0
BITMAP
7C
00
38
44
82
82
82
82
82
44
38
ENDCHAR
STARTCHAR U+016B
ENCODING 363
SWIDTH 470 0
DWIDTH 8 0
BBX 7 11 0 0
BITMAP
7C
00
82
82
82
82
82
82
82
46
3A
ENDCHAR
STARTCHAR U+01C0
ENCODING 448
SWIDTH 470 0
DWIDTH 8 0
BBX 1 13 3 0
BITMAP
80
80
80
80
80
80
80
80
80
80
80
80
80
ENDCHAR
STARTCHAR U+01CE
ENCODING 462
SWIDTH 470 0
DWIDTH 8 0
BBX 7 12 0 0
BITMAP
44
38
00
78
04
02
02
7E
82
82
86
7A
ENDCHAR
STARTCHAR U+01D0
ENCODING 464
SWIDTH 470 0
DWIDTH 8 0
BBX 5 12 1 0
BITMAP
88
70
00
20
20
20
20
20
20
20
20
20
ENDCHAR
STARTCHAR U+01D2
ENCODING 466
SWIDTH 470 0
DWIDTH 8 0
BBX 7 12 0 0
BITMAP
44
38
00
38
44
82
82
82
82
82
44
38
ENDCHAR
STARTCHAR U+01D4
ENCODING 468
SWIDTH 470 0
DWIDTH 8 0
BBX 7 12 0 0
BITMAP
44
38
00
82
82
82
82
82
82
82
46
3A
ENDCHAR
STARTCHAR U+01D6
ENCODING 470
SWIDTH 470 0
DWIDTH 8 0
BBX 7 13 0 0
BITMAP
7C
00
44
00
82
82
82
82
82
82
82
46
3A
ENDCHAR
STARTCHAR U+01D8
ENCODING 472
SWIDTH 470 0
DWIDTH 8 0
BBX 7 14 0 0
BITMAP
0C
70
00
44
00
82
82
82
82
82
82
82
46
3A
ENDCHAR
STARTCHAR U+01DA
ENCODING 474
SWIDTH 470 0
DWIDTH 8 0
BBX 7 14 0 0
BITMAP
44
38
00
44
00
82
82
82
82
82
82
82
46
3A
ENDCHAR
STARTCHAR U+01DC
ENCODING 476
SWIDTH 470 0
DWIDTH 8 0
BBX 7 14 0 0
BITMAP
60
1C
00
44
00
82
82
82
82
82
82
82
46
3A
ENDCHAR
STARTCHAR U+0251
ENCODING 593
SWIDTH 470 0
DWIDTH 8 0
BBX 7 9 0 0
BITMAP
3A
46
82
82
82
82
86
4A
32
ENDCHAR
STARTCHAR U+0252
ENCODING 594
SWIDTH 470 0
DWIDTH 8 0
BBX 7 9 0 0
BITMAP
98
A4
C2
82
82
82
82
C4
B8
ENDCHAR
STARTCHAR U+0254
ENCODING 596
SWIDTH 470 0
DWIDTH 8 0
BBX 7 9 0 0
BITMAP
78
84
82
02
02
02
82
84
78
ENDCHAR
STARTCHAR U+0259
ENCODING 601
SWIDTH 470 0
DWIDTH 8 0
BBX 7 9 0 0
BITMAP
78
C4
02
02
FE
82
82
44
38
ENDCHAR
STARTCHAR U+025C
ENCODING 604
SWIDTH 470 0
DWIDTH 8 0
BBX 7 9 0 0
BITMAP
78
84
82
02
1C
02
82
84
78
ENDCHAR
STARTCHAR U+0261
ENCODING 609
SWIDTH 470 0
DWIDTH 8 0
BBX 7 11 0 -2
BITMAP
3A
46
82
82
82
82
82
46
3A
C4
78
ENDCHAR
STARTCHAR U+026A
ENCODING 618
SWIDTH 470 0
DWIDTH 8 0
BBX 5 9 1 0
BITMAP
F8
20
20
20
20
20
20
20
F8
ENDCHAR
STARTCHAR U+0283
ENCODING 643
SWIDTH 470 0
DWIDTH 8 0
BBX 7 13 0 0
BITMAP
06
08
10
10
10
10
10
10
10
10
10
20
C0
ENDCHAR
STARTCHAR U+028A
ENCODING 650
SWIDTH 470 0
DWIDTH 8 0
BBX 7 9 0 0
BITMAP
C6
44
82
82
82
82
82
44
38
ENDCHAR
STARTCHAR U+028C
ENCODING 652
SWIDTH 470 0
DWIDTH 8 0
BBX 7 9 0 0
BITMAP
10
10
28
28
44
44
82
82
82
ENDCHAR
STARTCHAR U+0292
ENCODING 658
SWIDTH 470 0
DWIDTH 8 0
BBX 7 11 0 -2
BITMAP
7C
08
10
20
78
04
02
02
02
C4
78
ENDCHAR
STARTCHAR U+02C7
ENCODING 711
SWIDTH 941 0
DWIDTH 16 0
BBX 4 2 6 11
BITMAP
90
60
ENDCHAR
STARTCHAR U+02C9
ENCODING 713
SWIDTH 941 0
DWIDTH 16 0
BBX 4 1 6 12
BITMAP
F0
ENDCHAR
STARTCHAR U+02CA
ENCODING 714
SWIDTH 941 0
DWIDTH 16 0
BBX 4 2 6 12
BITMAP
30
C0
ENDCHAR
STARTCHAR U+02CB
ENCODING 715
SWIDTH 941 0
DWIDTH 16 0
BBX 4 2 6 12
BITMAP
C0
30
ENDCHAR
STARTCHAR U+02D0
ENCODING 720
SWIDTH 470 0
DWIDTH 8 0
BBX 3 8 2 1
BITMAP
E0
40
00
00
00
00
40
E0
ENDCHAR
STARTCHAR U+0391
ENCODING 913
SWIDTH 941 0
DWIDTH 16 0
BBX 13 13 1 0
BITMAP
0200
0200
0500
0500
0880
0880
0880
1040
1FC0
1040
2020
2020
F078
ENDCHAR
STARTCHAR U+0392
ENCODING 914
SWIDTH 941 0
DWIDTH 16 0
BBX 10 13 2 0
BITMAP
FF00
2080
2080
2080
2080
3F00
2080
2040
2040
2040
2040
2080
FF00
ENDCHAR
STARTCHAR U+0393
ENCODING 915
SWIDTH 941 0
DWIDTH 16 0
BBX 10 13 2 0
BITMAP
FFC0
2040
2040
2040
2000
2000
2000
2000
2000
2000
2000
2000
FE00
ENDCHAR
STARTCHAR U+0394
ENCODING 916
SWIDTH 941 0
DWIDTH 16 0
BBX 13 13 1 0
BITMAP
0200
0200
0500
0500
0880
0880
1040
1040
2020
2020
4010
4010
FFF8
ENDCHAR
STARTCHAR U+0395
ENCODING 917
SWIDTH 941 0
DWIDTH 16 0
BBX 11 13 2 0
BITMAP
FFE0
2020
2020
2000
2100
3F00
2100
2100
2000
2020
2020
2020
FFE0
ENDCHAR
STARTCHAR U+0396
ENCODING 918
SWIDTH 941 0
DWIDTH 16 0
BBX 10 13 3 0
BITMAP
FFC0
8080
8100
0200
0200
0400
0800
0800
1000
2040
2040
4040
FFC0
ENDCHAR
STARTCHAR U+0397
ENCODING 919
SWIDTH 941 0
DWIDTH 16 0
BBX 12 13 2 0
BITMAP
F9F0
2040
2040
2040
2040
3FC0
2040
2040
2040
2040
2040
2040
F9F0
ENDCHAR
STARTCHAR U+0398
ENCODING 920
SWIDTH 941 0
DWIDTH 16 0
BBX 11 13 2 0
BITMAP
1F00
2080
4040
4040
8020
9120
9F20
9120
8020
4040
4040
2080
1F00
ENDCHAR
STARTCHAR U+0399
ENCODING 921
SWIDTH 941 0
DWIDTH 16 0
BBX 5 13 5 0
BITMAP
F8
20
20
20
20
20
20
20
20
20
20
20
F8
ENDCHAR
STARTCHAR U+039A
ENCODING 922
SWIDTH 941 0
DWIDTH 16 0
BBX 12 13 1 0
BITMAP
F8F0
2040
2080
2100
2200
2400
2A00
3200
2100
2080
2080
2040
F8F0
ENDCHAR
STARTCHAR U+039B
ENCODING 923
SWIDTH 941 0
DWIDTH 16 0
BBX 13 13 1 0
BITMAP
0200
0200
0500
0500
0880
0880
0880
1040
1040
1040
2020
2020
F8F8
ENDCHAR
STARTCHAR U+039C
ENCODING 924
SWIDTH 941 0
DWIDTH 16 0
BBX 15 13 0 0
BITMAP
701C
3018
2828
2828
2448
2448
2288
2288
2108
2108
2008
2008
F83E
ENDCHAR
STARTCHAR U+039D
ENCODING 925
SWIDTH 941 0
DWIDTH 16 0
BBX 13 13 1 0
BITMAP
F0F8
3020
2820
2820
2420
2420
2220
2120
2120
20A0
20A0
2060
F820
ENDCHAR
STARTCHAR U+039E
ENCODING 926
SWIDTH 941 0
DWIDTH 16 0
BBX 11 13 2 0
BITMAP
FFE0
8020
0000
0000
0000
4040
7FC0
4040
0000
0000
0000
8020
FFE0
ENDCHAR
STARTCHAR U+039F
ENCODING 927
SWIDTH 941 0
DWIDTH 16 0
BBX 11 13 2 0
BITMAP
1F00
2080
4040
4040
8020
8020
8020
8020
8020
4040
4040
2080
1F00
ENDCHAR
STARTCHAR U+03A0
ENCODING 928
SWIDTH 941 0
DWIDTH 16 0
BBX 11 13 2 0
BITMAP
FFE0
2080
2080
2080
2080
2080
2080
2080
2080
2080
2080
2080
F1E0
ENDCHAR
STARTCHAR U+03A1
ENCODING 929
SWIDTH 941 0
DWIDTH 16 0
BBX 11 13 2 0
BITMAP
FF80
2040
2020
2020
2020
2040
3F80
2000
2000
2000
2000
2000
FC00
ENDCHAR
STARTCHAR U+03A3
ENCODING 931
SWIDTH 941 0
DWIDTH 16 0
BBX 11 13 2 0
BITMAP
FFE0
8020
4020
2000
1000
0800
0400
0800
1000
2020
4020
8020
FFE0
ENDCHAR
STARTCHAR U+03A4
ENCODING 932
SWIDTH 941 0
DWIDTH 16 0
BBX 11 13 2 0
BITMAP
FFE0
8420
8420
8420
8420
0400
0400
0400
0400
0400
0400
0400
1F00
ENDCHAR
STARTCHAR U+03A5
ENCODING 933
SWIDTH 941 0
DWIDTH 16 0
BBX 11 13 2 0
BITMAP
71C0
8A20
8420
0400
0400
0400
0400
0400
0400
0400
0400
0400
1F00
ENDCHAR
STARTCHAR U+03A6
ENCODING 934
SWIDTH 941 0
DWIDTH 16 0
BBX 11 13 2 0
BITMAP
1F00
0400
1F00
64C0
8420
8420
8420
8420
8420
64C0
1F00
0400
1F00
ENDCHAR
STARTCHAR U+03A7
ENCODING 935
SWIDTH 941 0
DWIDTH 16 0
BBX 13 13 1 0
BITMAP
F8F8
2020
1040
0880
0500
0200
0200
0500
0880
1040
1040
2020
F8F8
ENDCHAR
STARTCHAR U+03A8
ENCODING 936
SWIDTH 941 0
DWIDTH 16 0
BBX 13 13 1 0
BITMAP
0F80
0200
4210
A228
2220
2220
2220
1240
0F80
0200
0200
0200
0F80
ENDCHAR
STARTCHAR U+03A9
ENCODING 937
SWIDTH 941 0
DWIDTH 16 0
BBX 11 13 2 0
BITMAP
1F00
2080
4040
4040
8020
8020
8020
4040
4040
2080
9120
9120
F1E0
ENDCHAR
STARTCHAR U+03B1
ENCODING 945
SWIDTH 941 0
DWIDTH 16 0
BBX 11 9 2 0
BITMAP
0E20
1120
2140
4180
4100
8100
8300
8D00
70E0
ENDCHAR
STARTCHAR U+03B2
ENCODING 946
SWIDTH 941 0
DWIDTH 16 0
BBX 9 15 3 -2
BITMAP
0F00
1080
1080
2080
2100
2E00
4200
4100
4100
4100
A200
9C00
8000
8000
8000
ENDCHAR
STARTCHAR U+03B3
ENCODING 947
SWIDTH 941 0
DWIDTH 16 0
BBX 10 11 3 -2
BITMAP
61C0
9200
1400
0800
0800
1000
1000
1000
2000
2000
2000
ENDCHAR
STARTCHAR U+03B4
ENCODING 948
SWIDTH 941 0
DWIDTH 16 0
BBX 9 13 4 0
BITMAP
1E00
2100
1080
0880
1800
2400
4200
4200
8200
8200
8400
8800
7000
ENDCHAR
STARTCHAR U+03B5
ENCODING 949
SWIDTH 941 0
DWIDTH 16 0
BBX 8 9 4 0
BITMAP
3E
41
40
20
3C
40
80
86
78
ENDCHAR
STARTCHAR U+03B6
ENCODING 950
SWIDTH 941 0
DWIDTH 16 0
BBX 9 15 3 -2
BITMAP
0800
1000
2380
1E00
0800
1000
2000
4000
4000
8000
8000
7C00
0200
0200
1C00
ENDCHAR
STARTCHAR U+03B7
ENCODING 951
SWIDTH 941 0
DWIDTH 16 0
BBX 9 11 3 -2
BITMAP
4700
A880
1080
1100
2100
2200
4200
4200
0400
0400
0400
ENDCHAR
STARTCHAR U+03B8
ENCODING 952
SWIDTH 941 0
DWIDTH 16 0
BBX 8 13 3 0
BITMAP
0E
11
21
21
41
7F
42
82
82
84
84
88
70
ENDCHAR
STARTCHAR U+03B9
ENCODING 953
SWIDTH 941 0
DWIDTH 16 0
BBX 6 9 5 0
BITMAP
10
20
20
40
40
80
84
88
70
ENDCHAR
STARTCHAR U+03BA
ENCODING 954
SWIDTH 941 0
DWIDTH 16 0
BBX 9 9 3 0
BITMAP
2380
2400
2800
3000
4800
4800
4880
8900
8600
ENDCHAR
STARTCHAR U+03BB
ENCODING 955
SWIDTH 941 0
DWIDTH 16 0
BBX 9 13 3 0
BITMAP
1800
0400
0200
0200
0200
0600
0600
0A00
0A00
1200
2200
4200
8180
ENDCHAR
STARTCHAR U+03BC
ENCODING 956
SWIDTH 941 0
DWIDTH 16 0
BBX 10 11 2 -2
BITMAP
1080
1080
1080
2100
2100
2100
2300
5CC0
4000
8000
8000
ENDCHAR
STARTCHAR U+03BD
ENCODING 957
SWIDTH 941 0
DWIDTH 16 0
BBX 8 9 4 0
BITMAP
81
41
42
42
44
48
90
E0
80
ENDCHAR
STARTCHAR U+03BE
ENCODING 958
SWIDTH 941 0
DWIDTH 16 0
BBX 9 15 3 -2
BITMAP
0E00
1000
0F80
1000
2000
2000
1000
3F00
4000
8000
8000
7C00
0200
0200
1C00
ENDCHAR
STARTCHAR U+03BF
ENCODING 959
SWIDTH 941 0
DWIDTH 16 0
BBX 7 9 4 0
BITMAP
1C
22
42
42
82
84
84
88
70
ENDCHAR
STARTCHAR U+03C0
ENCODING 960
SWIDTH 941 0
DWIDTH 16 0
BBX 10 10 3 0
BITMAP
0040
7F80
9200
1200
2400
2400
4400
4880
8900
8600
ENDCHAR
STARTCHAR U+03C1
ENCODING 961
SWIDTH 941 0
DWIDTH 16 0
BBX 8 11 3 -2
BITMAP
0E
11
21
21
41
41
62
9C
80
80
80
ENDCHAR
STARTCHAR U+03C2
ENCODING 962
SWIDTH 941 0
DWIDTH 16 0
BBX 9 11 3 -2
BITMAP
0780
1800
2000
4000
4000
8000
8000
7C00
0200
0200
1C00
ENDCHAR
STARTCHAR U+03C3
ENCODING 963
SWIDTH 941 0
DWIDTH 16 0
BBX 10 10 3 0
BITMAP
0040
1F80
2400
4200
4200
8200
8400
8400
8800
7000
ENDCHAR
STARTCHAR U+03C4
ENCODING 964
SWIDTH 941 0
DWIDTH 16 0
BBX 10 10 2 0
BITMAP
0040
7F80
8200
0400
0800
0800
1000
1080
1100
0E00
ENDCHAR
STARTCHAR U+03C5
ENCODING 965
SWIDTH 941 0
DWIDTH 16 0
BBX 8 9 3 0
BITMAP
42
41
41
41
41
82
82
84
78
ENDCHAR
STARTCHAR U+03C6
ENCODING 966
SWIDTH 941 0
DWIDTH 16 0
BBX 9 15 3 -2
BITMAP
0200
0200
0400
0400
3E00
4500
8880
8880
8880
9080
5100
3E00
1000
2000
2000
ENDCHAR
STARTCHAR U+03C7
ENCODING 967
SWIDTH 941 0
DWIDTH 16 0
BBX 10 11 3 -2
BITMAP
6080
9100
0900
0A00
0C00
0800
1800
2800
4440
4480
8300
ENDCHAR
STARTCHAR U+03C8
ENCODING 968
SWIDTH 941 0
DWIDTH 16 0
BBX 9 15 3 -2
BITMAP
0200
0200
0400
0400
8500
4880
4880
4880
8880
9100
5200
3C00
1000
2000
2000
ENDCHAR
STARTCHAR U+03C9
ENCODING 969
SWIDTH 941 0
DWIDTH 16 0
BBX 11 10 2 0
BITMAP
0800
1080
2040
4020
4020
8420
8C20
8840
9880
6700
ENDCHAR
STARTCHAR U+0401
ENCODING 1025
SWIDTH 941 0
DWIDTH 16 0
BBX 10 14 3 0
BITMAP
2200
0000
FF80
4040
4000
4000
4100
7F00
4100
4100
4000
4040
4080
FF80
ENDCHAR
STARTCHAR U+0410
ENCODING 1040
SWIDTH 941 0
DWIDTH 16 0
BBX 11 13 2 0
BITMAP
0400
0400
0A00
0A00
1100
1100
1100
2080
3F80
2080
4040
4040
E0E0
ENDCHAR
STARTCHAR U+0411
ENCODING 1041
SWIDTH 941 0
DWIDTH 16 0
BBX 9 13 3 0
BITMAP
FF00
4100
4080
4000
4000
7E00
4100
4080
4080
4080
4080
4100
FE00
ENDCHAR
STARTCHAR U+0412
ENCODING 1042
SWIDTH 941 0
DWIDTH 16 0
BBX 9 13 3 0
BITMAP
FE00
4100
4100
4100
4100
7E00
4100
4080
4080
4080
4080
4100
FE00
ENDCHAR
STARTCHAR U+0413
ENCODING 1043
SWIDTH 941 0
DWIDTH 16 0
BBX 9 13 3 0
BITMAP
FF00
4100
4080
4000
4000
4000
4000
4000
4000
4000
4000
4000
F800
ENDCHAR
STARTCHAR U+0414
ENCODING 1044
SWIDTH 941 0
DWIDTH 16 0
BBX 11 15 2 -2
BITMAP
3FC0
1080
1080
1080
1080
1080
1080
1080
1080
1080
2080
2080
FFE0
8020
8020
ENDCHAR
STARTCHAR U+0415
ENCODING 1045
SWIDTH 941 0
DWIDTH 16 0
BBX 10 13 3 0
BITMAP
FF80
4040
4000
4000
4100
7F00
4100
4100
4000
4000
4040
4080
FF80
ENDCHAR
STARTCHAR U+0416
ENCODING 1046
SWIDTH 941 0
DWIDTH 16 0
BBX 13 13 1 0
BITMAP
4710
A228
2220
2220
2220
1240
0F80
1240
1240
2220
4210
4210
E738
ENDCHAR
STARTCHAR U+0417
ENCODING 1047
SWIDTH 941 0
DWIDTH 16 0
BBX 9 13 3 0
BITMAP
3E00
4100
8080
0080
0080
0100
1E00
0100
0080
8080
8080
4100
7E00
ENDCHAR
STARTCHAR U+0418
ENCODING 1048
SWIDTH 941 0
DWIDTH 16 0
BBX 11 13 2 0
BITMAP
E0E0
4040
40C0
4140
4240
4240
4440
4840
4840
5040
6040
4040
E0E0
ENDCHAR
STARTCHAR U+0419
ENCODING 1049
SWIDTH 941 0
DWIDTH 16 0
BBX 11 14 2 0
BITMAP
1100
0E00
E0E0
4040
40C0
4140
4240
4440
4440
4840
5040
6040
4040
E0E0
ENDCHAR
STARTCHAR U+041A
ENCODING 1050
SWIDTH 941 0
DWIDTH 16 0
BBX 11 13 2 0
BITMAP
E0C0
4120
4100
4200
7400
4800
4400
4200
4100
4080
4080
4040
E0E0
ENDCHAR
STARTCHAR U+041B
ENCODING 1051
SWIDTH 941 0
DWIDTH 16 0
BBX 11 13 1 0
BITMAP
0FE0
0440
0440
0440
0440
0440
0440
0440
0440
0840
0840
9040
60E0
ENDCHAR
STARTCHAR U+041C
ENCODING 1052
SWIDTH 941 0
DWIDTH 16 0
BBX 13 13 1 0
BITMAP
7070
28A0
28A0
28A0
2520
2520
2220
4210
4210
4010
4010
4010
E038
ENDCHAR
STARTCHAR U+041D
ENCODING 1053
SWIDTH 941 0
DWIDTH 16 0
BBX 11 13 2 0
BITMAP
E0E0
4040
4040
4040
4040
7FC0
4040
4040
4040
4040
4040
4040
E0E0
ENDCHAR
STARTCHAR U+041E
ENCODING 1054
SWIDTH 941 0
DWIDTH 16 0
BBX 11 13 2 0
BITMAP
1F00
2080
4040
4040
8020
8020
8020
8020
8020
4040
4040
2080
1F00
ENDCHAR
STARTCHAR U+041F
ENCODING 1055
SWIDTH 941 0
DWIDTH 16 0
BBX 11 13 2 0
BITMAP
FFE0
4040
4040
4040
4040
4040
4040
4040
4040
4040
4040
4040
E0E0
ENDCHAR
STARTCHAR U+0420
ENCODING 1056
SWIDTH 941 0
DWIDTH 16 0
BBX 9 13 3 0
BITMAP
FE00
4100
4080
4080
4080
4100
7E00
4000
4000
4000
4000
4000
F800
ENDCHAR
STARTCHAR U+0421
ENCODING 1057
SWIDTH 941 0
DWIDTH 16 0
BBX 10 13 2 0
BITMAP
1F40
20C0
4040
4000
8000
8000
8000
8000
8000
4040
4040
20C0
1F00
ENDCHAR
STARTCHAR U+0422
ENCODING 1058
SWIDTH 941 0
DWIDTH 16 0
BBX 11 13 2 0
BITMAP
7FC0
4440
4440
8420
0400
0400
0400
0400
0400
0400
0400
0400
1F00
ENDCHAR
STARTCHAR U+0423
ENCODING 1059
SWIDTH 941 0
DWIDTH 16 0
BBX 11 13 2 0
BITMAP
E0E0
4040
4040
2080
2080
1100
1100
0A00
0A00
0400
0400
4800
3000
ENDCHAR
STARTCHAR U+0424
ENCODING 1060
SWIDTH 941 0
DWIDTH 16 0
BBX 11 13 2 0
BITMAP
0E00
0400
1F00
64C0
8420
8420
8420
8420
8420
64C0
1F00
0400
0E00
ENDCHAR
STARTCHAR U+0425
ENCODING 1061
SWIDTH 941 0
DWIDTH 16 0
BBX 11 13 2 0
BITMAP
E0E0
4040
2080
1100
0A00
0400
0400
0A00
1100
2080
2080
4040
E0E0
ENDCHAR
STARTCHAR U+0426
ENCODING 1062
SWIDTH 941 0
DWIDTH 16 0
BBX 11 15 2 -2
BITMAP
E1C0
4080
4080
4080
4080
4080
4080
4080
4080
4080
4080
4080
FFE0
0020
0020
ENDCHAR
STARTCHAR U+0427
ENCODING 1063
SWIDTH 941 0
DWIDTH 16 0
BBX 10 13 2 0
BITMAP
E1C0
4080
4080
4080
4080
4080
4080
2180
1E80
0080
0080
0080
07C0
ENDCHAR
STARTCHAR U+0428
ENCODING 1064
SWIDTH 941 0
DWIDTH 16 0
BBX 13 13 1 0
BITMAP
E738
4210
4210
4210
4210
4210
4210
4210
4210
4210
4210
4210
FFF8
ENDCHAR
STARTCHAR U+0429
ENCODING 1065
SWIDTH 941 0
DWIDTH 16 0
BBX 14 15 1 -2
BITMAP
E738
4210
4210
4210
4210
4210
4210
4210
4210
4210
4210
4210
FFFC
0004
0004
ENDCHAR
STARTCHAR U+042A
ENCODING 1066
SWIDTH 941 0
DWIDTH 16 0
BBX 12 13 1 0
BITMAP
7C00
4400
8400
0400
07C0
0420
0410
0410
0410
0410
0410
0420
0FC0
ENDCHAR
STARTCHAR U+042B
ENCODING 1067
SWIDTH 941 0
DWIDTH 16 0
BBX 13 13 1 0
BITMAP
E038
4010
4010
4010
7C10
4210
4110
4110
4110
4110
4110
4210
FC38
ENDCHAR
STARTCHAR U+042C
ENCODING 1068
SWIDTH 941 0
DWIDTH 16 0
BBX 9 13 3 0
BITMAP
E000
4000
4000
4000
7E00
4100
4080
4080
4080
4080
4080
4100
FE00
ENDCHAR
STARTCHAR U+042D
ENCODING 1069
SWIDTH 941 0
DWIDTH 16 0
BBX 10 13 3 0
BITMAP
BE00
C100
8080
0080
0040
30C0
4940
0640
0040
8080
8080
C100
3E00
ENDCHAR
STARTCHAR U+042E
ENCODING 1070
SWIDTH 941 0
DWIDTH 16 0
BBX 12 13 1 0
BITMAP
E3C0
4420
4810
4810
4810
7810
4810
4810
4810
4810
4810
4420
E3C0
ENDCHAR
STARTCHAR U+042F
ENCODING 1071
SWIDTH 941 0
DWIDTH 16 0
BBX 10 13 2 0
BITMAP
1FC0
2080
4080
4080
2080
1F80
0880
0880
1080
1080
2080
4080
81C0
ENDCHAR
STARTCHAR U+0430
ENCODING 1072
SWIDTH 941 0
DWIDTH 16 0
BBX 9 9 3 0
BITMAP
3C00
4200
0200
1E00
6200
8200
8200
8680
7900
ENDCHAR
STARTCHAR U+0431
ENCODING 1073
SWIDTH 941 0
DWIDTH 16 0
BBX 8 13 3 0
BITMAP
02
3C
40
40
BC
C2
81
81
81
81
81
42
3C
ENDCHAR
STARTCHAR U+0432
ENCODING 1074
SWIDTH 941 0
DWIDTH 16 0
BBX 8 9 3 0
BITMAP
FC
42
42
42
7E
41
41
41
FE
ENDCHAR
STARTCHAR U+0433
ENCODING 1075
SWIDTH 941 0
DWIDTH 16 0
BBX 8 9 3 0
BITMAP
FF
41
41
40
40
40
40
40
F0
ENDCHAR
STARTCHAR U+0434
ENCODING 1076
SWIDTH 941 0
DWIDTH 16 0
BBX 9 11 3 -2
BITMAP
3F80
1100
1100
1100
1100
1100
2100
2100
FF80
8080
8080
ENDCHAR
STARTCHAR U+0435
ENCODING 1077
SWIDTH 941 0
DWIDTH 16 0
BBX 8 9 3 0
BITMAP
3C
42
81
81
FF
80
80
41
3E
ENDCHAR
STARTCHAR U+0436
ENCODING 1078
SWIDTH 941 0
DWIDTH 16 0
BBX 11 9 2 0
BITMAP
4E40
A4A0
2480
2480
1F00
2480
2480
4440
EEE0
ENDCHAR
STARTCHAR U+0437
ENCODING 1079
SWIDTH 941 0
DWIDTH 16 0
BBX 8 9 3 0
BITMAP
3E
41
81
01
1E
01
81
41
3E
ENDCHAR
STARTCHAR U+0438
ENCODING 1080
SWIDTH 941 0
DWIDTH 16 0
BBX 9 9 3 0
BITMAP
E380
4100
4300
4500
4900
5100
6100
4100
E380
ENDCHAR
STARTCHAR U+0439
ENCODING 1081
SWIDTH 941 0
DWIDTH 16 0
BBX 9 12 3 0
BITMAP
2200
1C00
0000
E380
4100
4300
4500
4900
5100
6100
4100
E380
ENDCHAR
STARTCHAR U+043A
ENCODING 1082
SWIDTH 941 0
DWIDTH 16 0
BBX 9 9 3 0
BITMAP
E100
4280
4400
6800
5800
4400
4200
4100
E380
ENDCHAR
STARTCHAR U+043B
ENCODING 1083
SWIDTH 941 0
DWIDTH 16 0
BBX 10 9 2 0
BITMAP
1FC0
0880
0880
0880
0880
0880
0880
9080
61C0
ENDCHAR
STARTCHAR U+043C
ENCODING 1084
SWIDTH 941 0
DWIDTH 16 0
BBX 11 9 2 0
BITMAP
C060
60C0
60C0
5140
4A40
4A40
4440
4440
E0E0
ENDCHAR
STARTCHAR U+043D
ENCODING 1085
SWIDTH 941 0
DWIDTH 16 0
BBX 9 9 3 0
BITMAP
E380
4100
4100
7F00
4100
4100
4100
4100
E380
ENDCHAR
STARTCHAR U+043E
ENCODING 1086
SWIDTH 941 0
DWIDTH 16 0
BBX 8 9 3 0
BITMAP
3C
42
81
81
81
81
81
42
3C
ENDCHAR
STARTCHAR U+043F
ENCODING 1087
SWIDTH 941 0
DWIDTH 16 0
BBX 9 9 3 0
BITMAP
FF80
4100
4100
4100
4100
4100
4100
4100
E380
ENDCHAR
STARTCHAR U+0440
ENCODING 1088
SWIDTH 941 0
DWIDTH 16 0
BBX 8 11 3 -2
BITMAP
1C
E2
41
41
41
41
62
5C
40
40
F0
ENDCHAR
STARTCHAR U+0441
ENCODING 1089
SWIDTH 941 0
DWIDTH 16 0
BBX 8 9 3 0
BITMAP
3C
43
81
80
80
80
81
42
3E
ENDCHAR
STARTCHAR U+0442
ENCODING 1090
SWIDTH 941 0
DWIDTH 16 0
BBX 9 9 3 0
BITMAP
FF80
8880
8880
0800
0800
0800
0800
0800
1C00
ENDCHAR
STARTCHAR U+0443
ENCODING 1091
SWIDTH 941 0
DWIDTH 16 0
BBX 9 11 3 -2
BITMAP
E380
4100
4100
2200
2200
1400
1400
0800
0800
9000
6000
ENDCHAR
STARTCHAR U+0444
ENCODING 1092
SWIDTH 941 0
DWIDTH 16 0
BBX 11 15 2 -2
BITMAP
0400
0C00
0400
0400
3580
4E40
8420
8420
8420
8420
4E40
3580
0400
0400
0E00
ENDCHAR
STARTCHAR U+0445
ENCODING 1093
SWIDTH 941 0
DWIDTH 16 0
BBX 9 9 3 0
BITMAP
E380
4100
2200
1400
0800
1400
2200
4100
E380
ENDCHAR
STARTCHAR U+0446
ENCODING 1094
SWIDTH 941 0
DWIDTH 16 0
BBX 10 11 3 -2
BITMAP
E380
4100
4100
4100
4100
4100
4100
4100
FFC0
0040
0040
ENDCHAR
STARTCHAR U+0447
ENCODING 1095
SWIDTH 941 0
DWIDTH 16 0
BBX 9 9 3 0
BITMAP
E380
4100
4100
4100
4300
3D00
0100
0100
0780
ENDCHAR
STARTCHAR U+0448
ENCODING 1096
SWIDTH 941 0
DWIDTH 16 0
BBX 11 9 2 0
BITMAP
EEE0
4440
4440
4440
4440
4440
4440
4440
FFE0
ENDCHAR
STARTCHAR U+0449
ENCODING 1097
SWIDTH 941 0
DWIDTH 16 0
BBX 11 11 2 -2
BITMAP
EEE0
4440
4440
4440
4440
4440
4440
4440
FFE0
0020
0020
ENDCHAR
STARTCHAR U+044A
ENCODING 1098
SWIDTH 941 0
DWIDTH 16 0
BBX 10 9 2 0
BITMAP
7800
4800
8800
0F80
0840
0840
0840
0840
1F80
ENDCHAR
STARTCHAR U+044B
ENCODING 1099
SWIDTH 941 0
DWIDTH 16 0
BBX 11 9 2 0
BITMAP
E0E0
4040
4040
7C40
4240
4240
4240
4240
FCE0
ENDCHAR
STARTCHAR U+044C
ENCODING 1100
SWIDTH 941 0
DWIDTH 16 0
BBX 8 9 4 0
BITMAP
E0
40
40
7C
42
41
41
42
FC
ENDCHAR
STARTCHAR U+044D
ENCODING 1101
SWIDTH 941 0
DWIDTH 16 0
BBX 8 9 3 0
BITMAP
7C
82
01
33
4D
01
01
82
7C
ENDCHAR
STARTCHAR U+044E
ENCODING 1102
SWIDTH 941 0
DWIDTH 16 0
BBX 10 9 2 0
BITMAP
E780
4840
4840
7840
4840
4840
4840
4840
E780
ENDCHAR
STARTCHAR U+044F
ENCODING 1103
SWIDTH 941 0
DWIDTH 16 0
BBX 9 9 3 0
BITMAP
3F80
4100
4100
4100
3F00
0900
1100
2100
C380
ENDCHAR
STARTCHAR U+0451
ENCODING 1105
SWIDTH 941 0
DWIDTH 16 0
BBX 8 11 3 0
BITMAP
42
00
3C
42
81
81
FF
80
80
41
3E
ENDCHAR
STARTCHAR U+2000
ENCODING 8192
SWIDTH 941 0
DWIDTH 16 0
BBX 0 0 0 0
BITMAP
ENDCHAR
STARTCHAR U+2001
ENCODING 8193
SWIDTH 941 0
DWIDTH 16 0
BBX 0 0 0 0
BITMAP
ENDCHAR
STARTCHAR U+2002
ENCODING 8194
SWIDTH 941 0
DWIDTH 16 0
BBX 0 0 0 0
BITMAP
ENDCHAR
STARTCHAR U+2003
ENCODING 8195
SWIDTH 941 0
DWIDTH 16 0
BBX 0 0 0 0
BITMAP
ENDCHAR
STARTCHAR U+2004
ENCODING 8196
SWIDTH 941 0
DWIDTH 16 0
BBX 0 0 0 0
BITMAP
ENDCHAR
STARTCHAR U+2005
ENCODING 8197
SWIDTH 941 0
DWIDTH 16 0
BBX 0 0 0 0
BITMAP
ENDCHAR
STARTCHAR U+2006
ENCODING 8198
SWIDTH 941 0
DWIDTH 16 0
BBX 0 0 0 0
BITMAP
ENDCHAR
STARTCHAR U+2007
ENCODING 8199
SWIDTH 941 0
DWIDTH 16 0
BBX 0 0 0 0
BITMAP
ENDCHAR
STARTCHAR U+2008
ENCODING 8200
SWIDTH 941 0
DWIDTH 16 0
BBX 0 0 0 0
BITMAP
ENDCHAR
STARTCHAR U+2009
ENCODING 8201
SWIDTH 941 0
DWIDTH 16 0
BBX 0 0 0 0
BITMAP
ENDCHAR
STARTCHAR U+200A
ENCODING 8202
SWIDTH 941 0
DWIDTH 16 0
BBX 0 0 0 0
BITMAP
ENDCHAR
STARTCHAR U+200B
ENCODING 8203
SWIDTH 470 0
DWIDTH 8 0
BBX 0 0 0 0
BITMAP
ENDCHAR
STARTCHAR U+200C
ENCODING 8204
SWIDTH 470 0
DWIDTH 8 0
BBX 0 0 0 0
BITMAP
ENDCHAR
STARTCHAR U+200D
ENCODING 8205
SWIDTH 470 0
DWIDTH 8 0
BBX 0 0 0 0
BITMAP
ENDCHAR
STARTCHAR U+200E
ENCODING 8206
SWIDTH 470 0
DWIDTH 8 0
BBX 0 0 0 0
BITMAP
ENDCHAR
STARTCHAR U+200F
ENCODING 8207
SWIDTH 470 0
DWIDTH 8 0
BBX 0 0 0 0
BITMAP
ENDCHAR
STARTCHAR U+2010
ENCODING 8208
SWIDTH 941 0
DWIDTH 16 0
BBX 5 1 5 6
BITMAP
F8
ENDCHAR
STARTCHAR U+2014
ENCODING 8212
SWIDTH 941 0
DWIDTH 16 0
BBX 15 1 0 6
BITMAP
FFFE
ENDCHAR
STARTCHAR U+2015
ENCODING 8213
SWIDTH 941 0
DWIDTH 16 0
BBX 15 1 0 6
BITMAP
FFFE
ENDCHAR
STARTCHAR U+2016
ENCODING 8214
SWIDTH 941 0
DWIDTH 16 0
BBX 5 16 5 -2
BITMAP
88
88
88
88
88
88
88
88
88
88
88
88
88
88
88
88
ENDCHAR
STARTCHAR U+2018
ENCODING 8216
SWIDTH 941 0
DWIDTH 16 0
BBX 2 4 12 10
BITMAP
40
80
C0
C0
ENDCHAR
STARTCHAR U+2019
ENCODING 8217
SWIDTH 941 0
DWIDTH 16 0
BBX 2 4 1 10
BITMAP
C0
C0
40
80
ENDCHAR
STARTCHAR U+201C
ENCODING 8220
SWIDTH 941 0
DWIDTH 16 0
BBX 5 4 9 10
BITMAP
48
90
90
D8
ENDCHAR
STARTCHAR U+201D
ENCODING 8221
SWIDTH 941 0
DWIDTH 16 0
BBX 5 4 1 10
BITMAP
D8
48
48
90
ENDCHAR
STARTCHAR U+2020
ENCODING 8224
SWIDTH 941 0
DWIDTH 16 0
BBX 9 16 3 -2
BITMAP
0800
1C00
1C00
0800
4900
FF80
4900
0800
1C00
3E00
1C00
0800
0800
0800
0800
0800
ENDCHAR
STARTCHAR U+2021
ENCODING 8225
SWIDTH 941 0
DWIDTH 16 0
BBX 9 16 3 -2
BITMAP
1C00
0800
4900
FF80
4900
0800
1C00
0800
0800
1C00
0800
4900
FF80
4900
0800
1C00
ENDCHAR
STARTCHAR U+2022
ENCODING 8226
SWIDTH 941 0
DWIDTH 16 0
BBX 3 3 6 5
BITMAP
40
E0
40
ENDCHAR
STARTCHAR U+2025
ENCODING 8229
SWIDTH 941 0
DWIDTH 16 0
BBX 13 3 1 5
BITMAP
4010
E038
4010
ENDCHAR
STARTCHAR U+2026
ENCODING 8230
SWIDTH 941 0
DWIDTH 16 0
BBX 15 3 0 5
BITMAP
4104
E38E
4104
ENDCHAR
STARTCHAR U+2030
ENCODING 8240
SWIDTH 941 0
DWIDTH 16 0
BBX 15 15 0 -1
BITMAP
6010
9020
9040
9080
9100
9200
6400
0800
130C
2492
4492
8492
0492
0492
030C
ENDCHAR
STARTCHAR U+2032
ENCODING 8242
SWIDTH 941 0
DWIDTH 16 0
BBX 3 5 0 9
BITMAP
20
60
40
40
80
ENDCHAR
STARTCHAR U+2033
ENCODING 8243
SWIDTH 941 0
DWIDTH 16 0
BBX 6 5 0 9
BITMAP
24
6C
48
48
90
ENDCHAR
STARTCHAR U+203B
ENCODING 8251
SWIDTH 941 0
DWIDTH 16 0
BBX 13 13 1 0
BITMAP
8708
4710
2720
1040
0880
E538
E238
E538
0880
1040
2720
4710
8708
ENDCHAR
STARTCHAR U+203E
ENCODING 8254
SWIDTH 470 0
DWIDTH 8 0
BBX 7 1 0 12
BITMAP
FE
ENDCHAR
STARTCHAR U+2103
ENCODING 8451
SWIDTH 941 0
DWIDTH 16 0
BBX 12 13 1 0
BITMAP
6000
93C0
9420
6810
0810
1000
1000
1000
1000
0810
0810
0420
03C0
ENDCHAR
STARTCHAR U+2116
ENCODING 8470
SWIDTH 941 0
DWIDTH 16 0
BBX 15 13 0 -1
BITMAP
C700
4200
6200
5200
5238
5244
4A44
4A44
4A44
4644
4244
E33A
0002
ENDCHAR
STARTCHAR U+2121
ENCODING 8481
SWIDTH 941 0
DWIDTH 16 0
BBX 15 12 0 0
BITMAP
FE00
9200
9200
1000
1000
13D8
1250
1290
1390
1290
1252
3BDE
ENDCHAR
STARTCHAR U+212B
ENCODING 8491
SWIDTH 941 0
DWIDTH 16 0
BBX 13 14 1 0
BITMAP
0700
0880
0880
0700
0500
0500
0880
0880
1040
1040
1FC0
2020
2020
F078
ENDCHAR
STARTCHAR U+2160
ENCODING 8544
SWIDTH 941 0
DWIDTH 16 0
BBX 6 13 4 0
BITMAP
FC
30
30
30
30
30
30
30
30
30
30
30
FC
ENDCHAR
STARTCHAR U+2161
ENCODING 8545
SWIDTH 941 0
DWIDTH 16 0
BBX 10 13 3 0
BITMAP
FFC0
3300
3300
3300
3300
3300
3300
3300
3300
3300
3300
3300
FFC0
ENDCHAR
STARTCHAR U+2162
ENCODING 8546
SWIDTH 941 0
DWIDTH 16 0
BBX 14 13 1 0
BITMAP
FFFC
3330
3330
3330
3330
3330
3330
3330
3330
3330
3330
3330
FFFC
ENDCHAR
STARTCHAR U+2163
ENCODING 8547
SWIDTH 941 0
DWIDTH 16 0
BBX 14 13 1 0
BITMAP
FF3C
3608
3608
3608
3310
3310
3310
31A0
31A0
31A0
30C0
30C0
FCC0
ENDCHAR
STARTCHAR U+2164
ENCODING 8548
SWIDTH 941 0
DWIDTH 16 0
BBX 12 13 2 0
BITMAP
F9F0
3040
3040
3040
1880
1880
1880
0D00
0D00
0D00
0600
0600
0600
ENDCHAR
STARTCHAR U+2165
ENCODING 8549
SWIDTH 941 0
DWIDTH 16 0
BBX 14 13 1 0
BITMAP
F3FC
60B0
60B0
60B0
3130
3130
3130
1A30
1A30
1A30
0C30
0C30
0CFC
ENDCHAR
STARTCHAR U+2166
ENCODING 8550
SWIDTH 941 0
DWIDTH 16 0
BBX 15 13 0 0
BITMAP
F7FE
62CC
62CC
62CC
34CC
34CC
34CC
34CC
34CC
18CC
18CC
18CC
19FE
ENDCHAR
STARTCHAR U+2167
ENCODING 8551
SWIDTH 941 0
DWIDTH 16 0
BBX 15 13 0 0
BITMAP
EFFE
C76C
C76C
C76C
6B6C
6B6C
6B6C
6B6C
6B6C
336C
336C
336C
37FE
ENDCHAR
STARTCHAR U+2168
ENCODING 8552
SWIDTH 941 0
DWIDTH 16 0
BBX 14 13 1 0
BITMAP
FF3C
3608
3310
3310
31A0
31C0
30C0
30E0
3160
3230
3230
3418
FF3C
ENDCHAR
STARTCHAR U+2169
ENCODING 8553
SWIDTH 941 0
DWIDTH 16 0
BBX 12 13 2 0
BITMAP
F9F0
3040
1880
1880
0D00
0E00
0600
0700
0B00
1180
1180
20C0
F9F0
ENDCHAR
STARTCHAR U+216A
ENCODING 8554
SWIDTH 941 0
DWIDTH 16 0
BBX 14 13 1 0
BITMAP
F3FC
60B0
3130
3130
1A30
1C30
0C30
0E30
1630
2330
2330
41B0
F3FC
ENDCHAR
STARTCHAR U+216B
ENCODING 8555
SWIDTH 941 0
DWIDTH 16 0
BBX 15 13 0 0
BITMAP
F7FE
62CC
34CC
34CC
34CC
18CC
18CC
18CC
2CCC
2CCC
2CCC
46CC
EFFE
ENDCHAR
STARTCHAR U+2190
ENCODING 8592
SWIDTH 941 0
DWIDTH 16 0
BBX 15 7 0 3
BITMAP
1000
2000
4000
FFFE
4000
2000
1000
ENDCHAR
STARTCHAR U+2191
ENCODING 8593
SWIDTH 941 0
DWIDTH 16 0
BBX 7 16 4 -2
BITMAP
10
38
54
92
10
10
10
10
10
10
10
10
10
10
10
10
ENDCHAR
STARTCHAR U+2192
ENCODING 8594
SWIDTH 941 0
DWIDTH 16 0
BBX 15 7 0 3
BITMAP
0010
0008
0004
FFFE
0004
0008
0010
ENDCHAR
STARTCHAR U+2193
ENCODING 8595
SWIDTH 941 0
DWIDTH 16 0
BBX 7 16 4 -2
BITMAP
10
10
10
10
10
10
10
10
10
10
10
10
92
54
38
10
ENDCHAR
STARTCHAR U+21D2
ENCODING 8658
SWIDTH 941 0
DWIDTH 16 0
BBX 13 9 1 2
BITMAP
0080
0040
FFE0
0010
0008
0010
FFE0
0040
0080
ENDCHAR
STARTCHAR U+21D4
ENCODING 8660
SWIDTH 941 0
DWIDTH 16 0
BBX 14 9 0 2
BITMAP
0840
1020
3FF0
4008
8004
4008
3FF0
1020
0840
ENDCHAR
STARTCHAR U+2200
ENCODING 8704
SWIDTH 941 0
DWIDTH 16 0
BBX 11 14 2 -1
BITMAP
8020
8020
4040
4040
7FC0
2080
2080
1100
1100
1100
0A00
0A00
0400
0400
ENDCHAR
STARTCHAR U+2202
ENCODING 8706
SWIDTH 941 0
DWIDTH 16 0
BBX 9 14 2 -1
BITMAP
0E00
1100
0080
0080
0080
0080
1C80
2280
4100
4100
8200
8200
4400
3800
ENDCHAR
STARTCHAR U+2203
ENCODING 8707
SWIDTH 941 0
DWIDTH 16 0
BBX 11 11 2 1
BITMAP
FFE0
0020
0020
0020
0020
FFE0
0020
0020
0020
0020
FFE0
ENDCHAR
STARTCHAR U+2207
ENCODING 8711
SWIDTH 941 0
DWIDTH 16 0
BBX 11 10 2 1
BITMAP
FFE0
7FC0
6040
2080
3080
1100
1900
0A00
0E00
0400
ENDCHAR
STARTCHAR U+2208
ENCODING 8712
SWIDTH 941 0
DWIDTH 16 0
BBX 11 9 2 2
BITMAP
3FE0
4000
8000
8000
FFE0
8000
8000
4000
3FE0
ENDCHAR
STARTCHAR U+220B
ENCODING 8715
SWIDTH 941 0
DWIDTH 16 0
BBX 11 9 2 2
BITMAP
FF80
0040
0020
0020
FFE0
0020
0020
0040
FF80
ENDCHAR
STARTCHAR U+220F
ENCODING 8719
SWIDTH 941 0
DWIDTH 16 0
BBX 10 12 3 0
BITMAP
FFC0
4080
4080
4080
4080
4080
4080
4080
4080
4080
4080
F3C0
ENDCHAR
STARTCHAR U+2211
ENCODING 8721
SWIDTH 941 0
DWIDTH 16 0
BBX 11 12 2 0
BITMAP
FFC0
6040
3020
1800
0C00
0600
0C00
1800
3000
6020
C040
FFC0
ENDCHAR
STARTCHAR U+2212
ENCODING 8722
SWIDTH 941 0
DWIDTH 16 0
BBX 11 1 2 6
BITMAP
FFE0
ENDCHAR
STARTCHAR U+221A
ENCODING 8730
SWIDTH 941 0
DWIDTH 16 0
BBX 13 15 0 -1
BITMAP
00F8
0080
0080
0100
0100
0100
0100
4200
4200
6200
A400
1400
1400
0800
0800
ENDCHAR
STARTCHAR U+221D
ENCODING 8733
SWIDTH 941 0
DWIDTH 16 0
BBX 12 7 1 3
BITMAP
3060
4890
8500
8200
8500
4890
3060
ENDCHAR
STARTCHAR U+221E
ENCODING 8734
SWIDTH 941 0
DWIDTH 16 0
BBX 13 7 1 3
BITMAP
3060
4890
8508
8208
8508
4890
3060
ENDCHAR
STARTCHAR U+221F
ENCODING 8735
SWIDTH 941 0
DWIDTH 16 0
BBX 12 12 2 1
BITMAP
8000
8000
8000
8000
8000
8000
8000
8000
8000
8000
8000
FFF0
ENDCHAR
STARTCHAR U+2220
ENCODING 8736
SWIDTH 941 0
DWIDTH 16 0
BBX 12 11 2 1
BITMAP
0020
0040
0080
0100
0200
0400
0800
1000
2000
4000
FFF0
ENDCHAR
STARTCHAR U+2225
ENCODING 8741
SWIDTH 941 0
DWIDTH 16 0
BBX 5 12 5 1
BITMAP
88
88
88
88
88
88
88
88
88
88
88
88
ENDCHAR
STARTCHAR U+2227
ENCODING 8743
SWIDTH 941 0
DWIDTH 16 0
BBX 13 14 1 -2
BITMAP
0200
0200
0500
0500
0880
0880
1040
1040
2020
2020
4010
4010
8008
8008
ENDCHAR
STARTCHAR U+2228
ENCODING 8744
SWIDTH 941 0
DWIDTH 16 0
BBX 13 14 1 0
BITMAP
8008
8008
4010
4010
2020
2020
1040
1040
0880
0880
0500
0500
0200
0200
ENDCHAR
STARTCHAR U+2229
ENCODING 8745
SWIDTH 941 0
DWIDTH 16 0
BBX 9 14 3 -1
BITMAP
1C00
2200
4100
8080
8080
8080
8080
8080
8080
8080
8080
8080
8080
8080
ENDCHAR
STARTCHAR U+222A
ENCODING 8746
SWIDTH 941 0
DWIDTH 16 0
BBX 9 14 3 -1
BITMAP
8080
8080
8080
8080
8080
8080
8080
8080
8080
8080
8080
4100
2200
1C00
ENDCHAR
STARTCHAR U+222B
ENCODING 8747
SWIDTH 941 0
DWIDTH 16 0
BBX 4 16 6 -2
BITMAP
60
90
B0
80
80
40
40
40
20
20
20
10
10
D0
90
60
ENDCHAR
STARTCHAR U+222C
ENCODING 8748
SWIDTH 941 0
DWIDTH 16 0
BBX 9 16 3 -2
BITMAP
6300
9480
8400
8400
8400
4200
4200
4200
2100
2100
2100
1080
1080
1080
9480
6300
ENDCHAR
STARTCHAR U+222E
ENCODING 8750
SWIDTH 941 0
DWIDTH 16 0
BBX 6 16 5 -2
BITMAP
30
48
58
40
40
78
A4
A4
94
78
10
08
08
68
48
30
ENDCHAR
STARTCHAR U+2234
ENCODING 8756
SWIDTH 941 0
DWIDTH 16 0
BBX 11 10 2 1
BITMAP
0400
0E00
0400
0000
0000
0000
0000
4040
E0E0
4040
ENDCHAR
STARTCHAR U+2235
ENCODING 8757
SWIDTH 941 0
DWIDTH 16 0
BBX 11 10 2 1
BITMAP
4040
E0E0
4040
0000
0000
0000
0000
0400
0E00
0400
ENDCHAR
STARTCHAR U+2236
ENCODING 8758
SWIDTH 941 0
DWIDTH 16 0
BBX 3 11 6 1
BITMAP
40
E0
40
00
00
00
00
00
40
E0
40
ENDCHAR
STARTCHAR U+2237
ENCODING 8759
SWIDTH 941 0
DWIDTH 16 0
BBX 10 10 3 1
BITMAP
4080
E1C0
4080
0000
0000
0000
0000
4080
E1C0
4080
ENDCHAR
STARTCHAR U+223D
ENCODING 8765
SWIDTH 941 0
DWIDTH 16 0
BBX 13 7 1 3
BITMAP
3060
4890
8108
8208
8408
4890
3060
ENDCHAR
STARTCHAR U+2248
ENCODING 8776
SWIDTH 941 0
DWIDTH 16 0
BBX 11 8 2 3
BITMAP
3820
4440
8380
0000
0000
3820
4440
8380
ENDCHAR
STARTCHAR U+224C
ENCODING 8780
SWIDTH 941 0
DWIDTH 16 0
BBX 11 8 2 3
BITMAP
8380
4440
3820
0000
FFE0
0000
0000
FFE0
ENDCHAR
STARTCHAR U+2252
ENCODING 8786
SWIDTH 941 0
DWIDTH 16 0
BBX 11 14 2 -1
BITMAP
2000
7000
2000
0000
0000
FFE0
0000
0000
FFE0
0000
0000
0080
01C0
0080
ENDCHAR
STARTCHAR U+2260
ENCODING 8800
SWIDTH 941 0
DWIDTH 16 0
BBX 11 12 2 0
BITMAP
0080
0100
0100
0200
FFE0
0400
0400
FFE0
0800
1000
1000
2000
ENDCHAR
STARTCHAR U+2261
ENCODING 8801
SWIDTH 941 0
DWIDTH 16 0
BBX 11 7 2 3
BITMAP
FFE0
0000
0000
FFE0
0000
0000
FFE0
ENDCHAR
STARTCHAR U+2264
ENCODING 8804
SWIDTH 941 0
DWIDTH 16 0
BBX 12 13 1 0
BITMAP
0030
00C0
0300
0C00
3000
C000
3000
0C00
0300
00C0
0030
0000
FFF0
ENDCHAR
STARTCHAR U+2265
ENCODING 8805
SWIDTH 941 0
DWIDTH 16 0
BBX 12 13 2 0
BITMAP
C000
3000
0C00
0300
00C0
0030
00C0
0300
0C00
3000
C000
0000
FFF0
ENDCHAR
STARTCHAR U+2266
ENCODING 8806
SWIDTH 941 0
DWIDTH 16 0
BBX 11 13 2 0
BITMAP
0060
0380
0C00
3000
C000
3000
0C00
0380
0060
0000
FFE0
0000
FFE0
ENDCHAR
STARTCHAR U+2267
ENCODING 8807
SWIDTH 941 0
DWIDTH 16 0
BBX 11 13 2 0
BITMAP
C000
3800
0600
0180
0060
0180
0600
3800
C000
0000
FFE0
0000
FFE0
ENDCHAR
STARTCHAR U+226A
ENCODING 8810
SWIDTH 941 0
DWIDTH 16 0
BBX 12 13 2 0
BITMAP
00C0
0100
0630
0840
3180
4200
8400
4200
3180
0840
0630
0100
00C0
ENDCHAR
STARTCHAR U+226B
ENCODING 8811
SWIDTH 941 0
DWIDTH 16 0
BBX 12 13 1 0
BITMAP
3000
0800
C600
2100
18C0
0420
0210
0420
18C0
2100
C600
0800
3000
ENDCHAR
STARTCHAR U+226E
ENCODING 8814
SWIDTH 941 0
DWIDTH 16 0
BBX 12 13 1 0
BITMAP
0040
00B0
00C0
0300
0D00
3200
C200
3400
0C00
0B00
10C0
1030
2000
ENDCHAR
STARTCHAR U+226F
ENCODING 8815
SWIDTH 941 0
DWIDTH 16 0
BBX 12 13 2 0
BITMAP
2000
D000
3000
0C00
0B00
04C0
0430
02C0
0300
0D00
3080
C080
0040
ENDCHAR
STARTCHAR U+2282
ENCODING 8834
SWIDTH 941 0
DWIDTH 16 0
BBX 11 9 2 2
BITMAP
3FE0
4000
8000
8000
8000
8000
8000
4000
3FE0
ENDCHAR
STARTCHAR U+2283
ENCODING 8835
SWIDTH 941 0
DWIDTH 16 0
BBX 11 9 2 2
BITMAP
FF80
0040
0020
0020
0020
0020
0020
0040
FF80
ENDCHAR
STARTCHAR U+2286
ENCODING 8838
SWIDTH 941 0
DWIDTH 16 0
BBX 11 11 2 1
BITMAP
3FE0
4000
8000
8000
8000
8000
4000
3FE0
0000
0000
FFE0
ENDCHAR
STARTCHAR U+2287
ENCODING 8839
SWIDTH 941 0
DWIDTH 16 0
BBX 11 11 2 1
BITMAP
FF80
0040
0020
0020
0020
0020
0040
FF80
0000
0000
FFE0
ENDCHAR
STARTCHAR U+2299
ENCODING 8857
SWIDTH 941 0
DWIDTH 16 0
BBX 8 8 4 2
BITMAP
18
66
42
99
99
42
66
18
ENDCHAR
STARTCHAR U+22A5
ENCODING 8869
SWIDTH 941 0
DWIDTH 16 0
BBX 13 12 1 1
BITMAP
0200
0200
0200
0200
0200
0200
0200
0200
0200
0200
0200
FFF8
ENDCHAR
STARTCHAR U+22BF
ENCODING 8895
SWIDTH 941 0
DWIDTH 16 0
BBX 11 11 2 1
BITMAP
0020
0060
00A0
0120
0220
0420
0820
1020
2020
4020
FFE0
ENDCHAR
STARTCHAR U+2312
ENCODING 8978
SWIDTH 941 0
DWIDTH 16 0
BBX 13 4 1 8
BITMAP
0F80
3060
4010
8008
ENDCHAR
STARTCHAR U+2460
ENCODING 9312
SWIDTH 941 0
DWIDTH 16 0
BBX 15 16 0 -2
BITMAP
07C0
1830
2108
4104
4704
8102
8102
8102
8102
8102
8102
4104
47C4
2008
1830
07C0
ENDCHAR
STARTCHAR U+2461
ENCODING 9313
SWIDTH 941 0
DWIDTH 16 0
BBX 15 16 0 -2
BITMAP
07C0
1830
2008
4784
4844
8842
8042
8082
8102
8202
8442
4844
4FC4
2008
1830
07C0
ENDCHAR
STARTCHAR U+2462
ENCODING 9314
SWIDTH 941 0
DWIDTH 16 0
BBX 15 16 0 -2
BITMAP
07C0
1830
2008
4784
4844
8842
8042
8382
8042
8042
8842
4844
4784
2008
1830
07C0
ENDCHAR
STARTCHAR U+2463
ENCODING 9315
SWIDTH 941 0
DWIDTH 16 0
BBX 15 16 0 -2
BITMAP
07C0
1830
2008
4084
4184
8282
8282
8482
8882
9FE2
8082
4084
43C4
2008
1830
07C0
ENDCHAR
STARTCHAR U+2464
ENCODING 9316
SWIDTH 941 0
DWIDTH 16 0
BBX 15 16 0 -2
BITMAP
07C0
1830
2008
4FC4
4804
8802
8802
8F82
8842
8042
8842
4844
4784
2008
1830
07C0
ENDCHAR
STARTCHAR U+2465
ENCODING 9317
SWIDTH 941 0
DWIDTH 16 0
BBX 15 16 0 -2
BITMAP
07C0
1830
2008
4784
4844
8842
8802
8F82
8842
8842
8842
4844
4784
2008
1830
07C0
ENDCHAR
STARTCHAR U+2466
ENCODING 9318
SWIDTH 941 0
DWIDTH 16 0
BBX 15 16 0 -2
BITMAP
07C0
1830
2008
4FC4
4844
8842
8082
8082
8102
8102
8202
4204
4204
2008
1830
07C0
ENDCHAR
STARTCHAR U+2467
ENCODING 9319
SWIDTH 941 0
DWIDTH 16 0
BBX 15 16 0 -2
BITMAP
07C0
1830
2008
4784
4844
8842
8842
8782
8842
8842
8842
4844
4784
2008
1830
07C0
ENDCHAR
STARTCHAR U+2468
ENCODING 9320
SWIDTH 941 0
DWIDTH 16 0
BBX 15 16 0 -2
BITMAP
07C0
1830
2008
4784
4844
8842
8842
8842
87C2
8042
8842
4844
4784
2008
1830
07C0
ENDCHAR
STARTCHAR U+2469
ENCODING 9321
SWIDTH 941 0
DWIDTH 16 0
BBX 15 16 0 -2
BITMAP
07C0
1830
2008
48E4
5914
8912
8912
8912
8912
8912
8912
4914
5CE4
2008
1830
07C0
ENDCHAR
STARTCHAR U+246A
ENCODING 9322
SWIDTH 941 0
DWIDTH 16 0
BBX 15 16 0 -2
BITMAP
07C0
1830
2008
4444
4CC4
8442
8442
8442
8442
8442
8442
4444
4EE4
2008
1830
07C0
ENDCHAR
STARTCHAR U+246B
ENCODING 9323
SWIDTH 941 0
DWIDTH 16 0
BBX 15 16 0 -2
BITMAP
07C0
1830
2008
48E4
5914
8912
8812
8822
8842
8882
8902
4914
5DF4
2008
1830
07C0
ENDCHAR
STARTCHAR U+246C
ENCODING 9324
SWIDTH 941 0
DWIDTH 16 0
BBX 15 16 0 -2
BITMAP
07C0
1830
2008
48E4
5914
8912
8812
8862
8812
8812
8912
4914
5CE4
2008
1830
07C0
ENDCHAR
STARTCHAR U+246D
ENCODING 9325
SWIDTH 941 0
DWIDTH 16 0
BBX 15 16 0 -2
BITMAP
07C0
1830
2008
4824
5864
88A2
88A2
8922
8A22
8BF2
8822
4824
5CF4
2008
1830
07C0
ENDCHAR
STARTCHAR U+246E
ENCODING 9326
SWIDTH 941 0
DWIDTH 16 0
BBX 15 16 0 -2
BITMAP
07C0
1830
2008
49E4
5904
8902
8902
89E2
8912
8812
8912
4914
5CE4
2008
1830
07C0
ENDCHAR
STARTCHAR U+246F
ENCODING 9327
SWIDTH 941 0
DWIDTH 16 0
BBX 15 16 0 -2
BITMAP
07C0
1830
2008
48E4
5914
8912
8902
89E2
8912
8912
8912
4914
5CE4
2008
1830
07C0
ENDCHAR
STARTCHAR U+2470
ENCODING 9328
SWIDTH 941 0
DWIDTH 16 0
BBX 15 16 0 -2
BITMAP
07C0
1830
2008
49F4
5914
8912
8822
8822
8842
8842
8882
4884
5C84
2008
1830
07C0
ENDCHAR
STARTCHAR U+2471
ENCODING 9329
SWIDTH 941 0
DWIDTH 16 0
BBX 15 16 0 -2
BITMAP
07C0
1830
2008
48E4
5914
8912
8912
88E2
8912
8912
8912
4914
5CE4
2008
1830
07C0
ENDCHAR
STARTCHAR U+2472
ENCODING 9330
SWIDTH 941 0
DWIDTH 16 0
BBX 15 16 0 -2
BITMAP
07C0
1830
2008
48E4
5914
8912
8912
8912
88F2
8812
8912
4914
5CE4
2008
1830
07C0
ENDCHAR
STARTCHAR U+2473
ENCODING 9331
SWIDTH 941 0
DWIDTH 16 0
BBX 15 16 0 -2
BITMAP
07C0
1830
2008
4C64
5294
9292
8292
8292
8492
8892
9092
5294
5E64
2008
1830
07C0
ENDCHAR
STARTCHAR U+2474
ENCODING 9332
SWIDTH 941 0
DWIDTH 16 0
BBX 15 15 0 -1
BITMAP
1010
2008
4104
4104
8702
8102
8102
8102
8102
8102
8102
4104
4104
2008
1010
ENDCHAR
STARTCHAR U+2475
ENCODING 9333
SWIDTH 941 0
DWIDTH 16 0
BBX 15 15 0 -1
BITMAP
1010
2008
4384
4444
8822
8822
8042
8082
8102
8202
8402
4804
4FE4
2008
1010
ENDCHAR
STARTCHAR U+2476
ENCODING 9334
SWIDTH 941 0
DWIDTH 16 0
BBX 15 15 0 -1
BITMAP
1010
2008
4384
4444
8822
8822
8042
8382
8042
8822
8822
4444
4384
2008
1010
ENDCHAR
STARTCHAR U+2477
ENCODING 9335
SWIDTH 941 0
DWIDTH 16 0
BBX 15 15 0 -1
BITMAP
1010
2008
4084
4184
8182
8282
8282
8482
8482
8882
8FE2
4084
4084
2008
1010
ENDCHAR
STARTCHAR U+2478
ENCODING 9336
SWIDTH 941 0
DWIDTH 16 0
BBX 15 15 0 -1
BITMAP
1010
2008
4FC4
4804
8802
8B82
8C42
8822
8022
8822
8822
4444
4384
2008
1010
ENDCHAR
STARTCHAR U+2479
ENCODING 9337
SWIDTH 941 0
DWIDTH 16 0
BBX 15 15 0 -1
BITMAP
1010
2008
4384
4444
8822
8822
8B82
8C42
8822
8822
8822
4444
4384
2008
1010
ENDCHAR
STARTCHAR U+247A
ENCODING 9338
SWIDTH 941 0
DWIDTH 16 0
BBX 15 15 0 -1
BITMAP
1010
2008
4FE4
4024
8042
8042
8082
8082
8082
8102
8102
4104
4104
2008
1010
ENDCHAR
STARTCHAR U+247B
ENCODING 9339
SWIDTH 941 0
DWIDTH 16 0
BBX 15 15 0 -1
BITMAP
1010
2008
4384
4444
8822
8822
8442
8382
8442
8822
8822
4444
4384
2008
1010
ENDCHAR
STARTCHAR U+247C
ENCODING 9340
SWIDTH 941 0
DWIDTH 16 0
BBX 15 15 0 -1
BITMAP
1010
2008
4384
4444
8822
8822
8822
8822
8462
83A2
8822
4444
4384
2008
1010
ENDCHAR
STARTCHAR U+247D
ENCODING 9341
SWIDTH 941 0
DWIDTH 16 0
BBX 15 15 0 -1
BITMAP
2008
4004
4864
8892
B90A
890A
890A
890A
890A
890A
890A
8892
4864
4004
2008
ENDCHAR
STARTCHAR U+247E
ENCODING 9342
SWIDTH 941 0
DWIDTH 16 0
BBX 15 15 0 -1
BITMAP
2008
4004
4424
8422
9CE2
8422
8422
8422
8422
8422
8422
8422
4424
4004
2008
ENDCHAR
STARTCHAR U+247F
ENCODING 9343
SWIDTH 941 0
DWIDTH 16 0
BBX 15 15 0 -1
BITMAP
2008
4004
4844
88A2
B912
8912
8812
8822
8842
8882
8902
8902
49F4
4004
2008
ENDCHAR
STARTCHAR U+2480
ENCODING 9344
SWIDTH 941 0
DWIDTH 16 0
BBX 15 15 0 -1
BITMAP
2008
4004
4864
8892
B90A
890A
8812
8862
8812
890A
890A
8892
4864
4004
2008
ENDCHAR
STARTCHAR U+2481
ENCODING 9345
SWIDTH 941 0
DWIDTH 16 0
BBX 15 15 0 -1
BITMAP
2008
4004
4814
8832
B832
8852
8852
8892
8892
8912
89FA
8812
4814
4004
2008
ENDCHAR
STARTCHAR U+2482
ENCODING 9346
SWIDTH 941 0
DWIDTH 16 0
BBX 15 15 0 -1
BITMAP
2008
4004
49F4
8902
B902
8962
8992
890A
880A
890A
890A
8892
4864
4004
2008
ENDCHAR
STARTCHAR U+2483
ENCODING 9347
SWIDTH 941 0
DWIDTH 16 0
BBX 15 15 0 -1
BITMAP
2008
4004
4864
8892
B90A
890A
8962
8992
890A
890A
890A
8892
4864
4004
2008
ENDCHAR
STARTCHAR U+2484
ENCODING 9348
SWIDTH 941 0
DWIDTH 16 0
BBX 15 15 0 -1
BITMAP
2008
4004
49F4
8812
B812
8812
8822
8822
8822
8842
8842
8842
4844
4004
2008
ENDCHAR
STARTCHAR U+2485
ENCODING 9349
SWIDTH 941 0
DWIDTH 16 0
BBX 15 15 0 -1
BITMAP
2008
4004
4864
8892
B90A
890A
8892
8862
8892
890A
890A
8892
4864
4004
2008
ENDCHAR
STARTCHAR U+2486
ENCODING 9350
SWIDTH 941 0
DWIDTH 16 0
BBX 15 15 0 -1
BITMAP
2008
4004
4864
8892
B90A
890A
890A
889A
886A
890A
890A
8892
4864
4004
2008
ENDCHAR
STARTCHAR U+2487
ENCODING 9351
SWIDTH 941 0
DWIDTH 16 0
BBX 15 15 0 -1
BITMAP
2008
4004
4C24
9252
928A
828A
848A
848A
888A
888A
908A
9052
5E24
4004
2008
ENDCHAR
STARTCHAR U+2488
ENCODING 9352
SWIDTH 941 0
DWIDTH 16 0
BBX 7 13 6 0
BITMAP
20
20
E0
20
20
20
20
20
20
20
20
20
22
ENDCHAR
STARTCHAR U+2489
ENCODING 9353
SWIDTH 941 0
DWIDTH 16 0
BBX 8 13 5 0
BITMAP
30
48
84
84
04
08
10
10
20
40
40
80
FD
ENDCHAR
STARTCHAR U+248A
ENCODING 9354
SWIDTH 941 0
DWIDTH 16 0
BBX 8 13 5 0
BITMAP
30
48
84
84
04
08
30
08
04
84
84
48
31
ENDCHAR
STARTCHAR U+248B
ENCODING 9355
SWIDTH 941 0
DWIDTH 16 0
BBX 8 13 5 0
BITMAP
08
18
18
28
28
48
48
88
88
FC
08
08
09
ENDCHAR
STARTCHAR U+248C
ENCODING 9356
SWIDTH 941 0
DWIDTH 16 0
BBX 8 13 5 0
BITMAP
F8
80
80
80
B0
C8
84
04
04
84
84
48
31
ENDCHAR
STARTCHAR U+248D
ENCODING 9357
SWIDTH 941 0
DWIDTH 16 0
BBX 8 13 5 0
BITMAP
30
48
84
84
B0
C8
84
84
84
84
84
48
31
ENDCHAR
STARTCHAR U+248E
ENCODING 9358
SWIDTH 941 0
DWIDTH 16 0
BBX 8 13 5 0
BITMAP
FC
04
04
08
08
10
10
10
20
20
20
20
21
ENDCHAR
STARTCHAR U+248F
ENCODING 9359
SWIDTH 941 0
DWIDTH 16 0
BBX 8 13 5 0
BITMAP
30
48
84
84
84
48
30
48
84
84
84
48
31
ENDCHAR
STARTCHAR U+2490
ENCODING 9360
SWIDTH 941 0
DWIDTH 16 0
BBX 8 13 5 0
BITMAP
30
48
84
84
84
84
84
4C
34
84
84
48
31
ENDCHAR
STARTCHAR U+2491
ENCODING 9361
SWIDTH 941 0
DWIDTH 16 0
BBX 14 13 1 0
BITMAP
2180
2240
E420
2420
2420
2420
2420
2420
2420
2420
2420
2240
2184
ENDCHAR
STARTCHAR U+2492
ENCODING 9362
SWIDTH 941 0
DWIDTH 16 0
BBX 14 13 1 0
BITMAP
2080
2080
E380
2080
2080
2080
2080
2080
2080
2080
2080
2080
2084
ENDCHAR
STARTCHAR U+2493
ENCODING 9363
SWIDTH 941 0
DWIDTH 16 0
BBX 14 13 1 0
BITMAP
2180
2240
E420
2420
2020
2040
2080
2080
2100
2200
2200
2400
27E4
ENDCHAR
STARTCHAR U+2494
ENCODING 9364
SWIDTH 941 0
DWIDTH 16 0
BBX 14 13 1 0
BITMAP
2180
2240
E420
2420
2020
2040
2180
2040
2020
2420
2420
2240
2184
ENDCHAR
STARTCHAR U+2495
ENCODING 9365
SWIDTH 941 0
DWIDTH 16 0
BBX 14 13 1 0
BITMAP
2040
20C0
E0C0
2140
2140
2240
2240
2440
2440
27E0
2040
2040
2044
ENDCHAR
STARTCHAR U+2496
ENCODING 9366
SWIDTH 941 0
DWIDTH 16 0
BBX 14 13 1 0
BITMAP
27C0
2400
E400
2400
2580
2640
2420
2020
2020
2420
2420
2240
2184
ENDCHAR
STARTCHAR U+2497
ENCODING 9367
SWIDTH 941 0
DWIDTH 16 0
BBX 14 13 1 0
BITMAP
2180
2240
E420
2420
2580
2640
2420
2420
2420
2420
2420
2240
2184
ENDCHAR
STARTCHAR U+2498
ENCODING 9368
SWIDTH 941 0
DWIDTH 16 0
BBX 14 13 1 0
BITMAP
27E0
2020
E020
2040
2040
2080
2080
2080
2100
2100
2100
2100
2104
ENDCHAR
STARTCHAR U+2499
ENCODING 9369
SWIDTH 941 0
DWIDTH 16 0
BBX 14 13 1 0
BITMAP
2180
2240
E420
2420
2420
2240
2180
2240
2420
2420
2420
2240
2184
ENDCHAR
STARTCHAR U+249A
ENCODING 9370
SWIDTH 941 0
DWIDTH 16 0
BBX 14 13 1 0
BITMAP
2180
2240
E420
2420
2420
2420
2420
2260
21A0
2420
2420
2240
2184
ENDCHAR
STARTCHAR U+249B
ENCODING 9371
SWIDTH 941 0
DWIDTH 16 0
BBX 15 13 0 0
BITMAP
3060
4890
8508
8508
0508
0908
1108
1108
2108
4108
4108
8090
FC62
ENDCHAR
STARTCHAR U+2500
ENCODING 9472
SWIDTH 941 0
DWIDTH 16 0
BBX 16 1 0 6
BITMAP
FFFF
ENDCHAR
STARTCHAR U+2501
ENCODING 9473
SWIDTH 941 0
DWIDTH 16 0
BBX 16 2 0 5
BITMAP
FFFF
FFFF
ENDCHAR
STARTCHAR U+2502
ENCODING 9474
SWIDTH 941 0
DWIDTH 16 0
BBX 1 16 7 -2
BITMAP
80
80
80
80
80
80
80
80
80
80
80
80
80
80
80
80
ENDCHAR
STARTCHAR U+2503
ENCODING 9475
SWIDTH 941 0
DWIDTH 16 0
BBX 2 16 7 -2
BITMAP
C0
C0
C0
C0
C0
C0
C0
C0
C0
C0
C0
C0
C0
C0
C0
C0
ENDCHAR
STARTCHAR U+2504
ENCODING 9476
SWIDTH 941 0
DWIDTH 16 0
BBX 13 1 1 6
BITMAP
E738
ENDCHAR
STARTCHAR U+2505
ENCODING 9477
SWIDTH 941 0
DWIDTH 16 0
BBX 13 2 1 5
BITMAP
E738
E738
ENDCHAR
STARTCHAR U+2506
ENCODING 9478
SWIDTH 941 0
DWIDTH 16 0
BBX 1 13 7 0
BITMAP
80
80
80
00
00
80
80
80
00
00
80
80
80
ENDCHAR
STARTCHAR U+2507
ENCODING 9479
SWIDTH 941 0
DWIDTH 16 0
BBX 2 13 7 0
BITMAP
C0
C0
C0
00
00
C0
C0
C0
00
00
C0
C0
C0
ENDCHAR
STARTCHAR U+2508
ENCODING 9480
SWIDTH 941 0
DWIDTH 16 0
BBX 15 1 0 6
BITMAP
EEEE
ENDCHAR
STARTCHAR U+2509
ENCODING 9481
SWIDTH 941 0
DWIDTH 16 0
BBX 15 2 0 5
BITMAP
EEEE
EEEE
ENDCHAR
STARTCHAR U+250A
ENCODING 9482
SWIDTH 941 0
DWIDTH 16 0
BBX 1 15 7 -1
BITMAP
80
80
80
00
80
80
80
00
80
80
80
00
80
80
80
ENDCHAR
STARTCHAR U+250B
ENCODING 9483
SWIDTH 941 0
DWIDTH 16 0
BBX 2 15 7 -1
BITMAP
C0
C0
C0
00
C0
C0
C0
00
C0
C0
C0
00
C0
C0
C0
ENDCHAR
STARTCHAR U+250C
ENCODING 9484
SWIDTH 941 0
DWIDTH 16 0
BBX 9 9 7 -2
BITMAP
FF80
8000
8000
8000
8000
8000
8000
8000
8000
ENDCHAR
STARTCHAR U+250D
ENCODING 9485
SWIDTH 941 0
DWIDTH 16 0
BBX 9 9 7 -2
BITMAP
FF80
FF80
8000
8000
8000
8000
8000
8000
8000
ENDCHAR
STARTCHAR U+250E
ENCODING 9486
SWIDTH 941 0
DWIDTH 16 0
BBX 9 9 7 -2
BITMAP
FF80
C000
C000
C000
C000
C000
C000
C000
C000
ENDCHAR
STARTCHAR U+250F
ENCODING 9487
SWIDTH 941 0
DWIDTH 16 0
BBX 9 9 7 -2
BITMAP
FF80
FF80
C000
C000
C000
C000
C000
C000
C000
ENDCHAR
STARTCHAR U+2510
ENCODING 9488
SWIDTH 941 0
DWIDTH 16 0
BBX 8 9 0 -2
BITMAP
FF
01
01
01
01
01
01
01
01
ENDCHAR
STARTCHAR U+2511
ENCODING 9489
SWIDTH 941 0
DWIDTH 16 0
BBX 8 9 0 -2
BITMAP
FF
FF
01
01
01
01
01
01
01
ENDCHAR
STARTCHAR U+2512
ENCODING 9490
SWIDTH 941 0
DWIDTH 16 0
BBX 9 9 0 -2
BITMAP
FF80
0180
0180
0180
0180
0180
0180
0180
0180
ENDCHAR
STARTCHAR U+2513
ENCODING 9491
SWIDTH 941 0
DWIDTH 16 0
BBX 9 9 0 -2
BITMAP
FF80
FF80
0180
0180
0180
0180
0180
0180
0180
ENDCHAR
STARTCHAR U+2514
ENCODING 9492
SWIDTH 941 0
DWIDTH 16 0
BBX 9 8 7 6
BITMAP
8000
8000
8000
8000
8000
8000
8000
FF80
ENDCHAR
STARTCHAR U+2515
ENCODING 9493
SWIDTH 941 0
DWIDTH 16 0
BBX 9 9 7 5
BITMAP
8000
8000
8000
8000
8000
8000
8000
FF80
FF80
ENDCHAR
STARTCHAR U+2516
ENCODING 9494
SWIDTH 941 0
DWIDTH 16 0
BBX 10 8 6 6
BITMAP
C000
C000
C000
C000
C000
C000
C000
FFC0
ENDCHAR
STARTCHAR U+2517
ENCODING 9495
SWIDTH 941 0
DWIDTH 16 0
BBX 9 9 7 5
BITMAP
C000
C000
C000
C000
C000
C000
C000
FF80
FF80
ENDCHAR
STARTCHAR U+2518
ENCODING 9496
SWIDTH 941 0
DWIDTH 16 0
BBX 8 8 0 6
BITMAP
01
01
01
01
01
01
01
FF
ENDCHAR
STARTCHAR U+2519
ENCODING 9497
SWIDTH 941 0
DWIDTH 16 0
BBX 8 9 0 5
BITMAP
01
01
01
01
01
01
01
FF
FF
ENDCHAR
STARTCHAR U+251A
ENCODING 9498
SWIDTH 941 0
DWIDTH 16 0
BBX 9 8 0 6
BITMAP
0180
0180
0180
0180
0180
0180
0180
FF80
ENDCHAR
STARTCHAR U+251B
ENCODING 9499
SWIDTH 941 0
DWIDTH 16 0
BBX 9 9 0 5
BITMAP
0180
0180
0180
0180
0180
0180
0180
FF80
FF80
ENDCHAR
STARTCHAR U+251C
ENCODING 9500
SWIDTH 941 0
DWIDTH 16 0
BBX 9 16 7 -2
BITMAP
8000
8000
8000
8000
8000
8000
8000
FF80
8000
8000
8000
8000
8000
8000
8000
8000
ENDCHAR
STARTCHAR U+251D
ENCODING 9501
SWIDTH 941 0
DWIDTH 16 0
BBX 9 16 7 -2
BITMAP
8000
8000
8000
8000
8000
8000
8000
FF80
FF80
8000
8000
8000
8000
8000
8000
8000
ENDCHAR
STARTCHAR U+251E
ENCODING 9502
SWIDTH 941 0
DWIDTH 16 0
BBX 9 16 7 -2
BITMAP
C000
C000
C000
C000
C000
C000
C000
FF80
8000
8000
8000
8000
8000
8000
8000
8000
ENDCHAR
STARTCHAR U+251F
ENCODING 9503
SWIDTH 941 0
DWIDTH 16 0
BBX 9 16 7 -2
BITMAP
8000
8000
8000
8000
8000
8000
8000
FF80
C000
C000
C000
C000
C000
C000
C000
C000
ENDCHAR
STARTCHAR U+2520
ENCODING 9504
SWIDTH 941 0
DWIDTH 16 0
BBX 9 16 7 -2
BITMAP
C000
C000
C000
C000
C000
C000
C000
FF80
C000
C000
C000
C000
C000
C000
C000
C000
ENDCHAR
STARTCHAR U+2521
ENCODING 9505
SWIDTH 941 0
DWIDTH 16 0
BBX 9 16 7 -2
BITMAP
C000
C000
C000
C000
C000
C000
C000
FF80
FF80
8000
8000
8000
8000
8000
8000
8000
ENDCHAR
STARTCHAR U+2522
ENCODING 9506
SWIDTH 941 0
DWIDTH 16 0
BBX 9 16 7 -2
BITMAP
8000
8000
8000
8000
8000
8000
8000
FF80
FF80
C000
C000
C000
C000
C000
C000
C000
ENDCHAR
STARTCHAR U+2523
ENCODING 9507
SWIDTH 941 0
DWIDTH 16 0
BBX 9 16 7 -2
BITMAP
C000
C000
C000
C000
C000
C000
C000
FF80
FF80
C000
C000
C000
C000
C000
C000
C000
ENDCHAR
STARTCHAR U+2524
ENCODING 9508
SWIDTH 941 0
DWIDTH 16 0
BBX 8 16 0 -2
BITMAP
01
01
01
01
01
01
01
FF
01
01
01
01
01
01
01
01
ENDCHAR
STARTCHAR U+2525
ENCODING 9509
SWIDTH 941 0
DWIDTH 16 0
BBX 8 16 0 -2
BITMAP
01
01
01
01
01
01
01
FF
FF
01
01
01
01
01
01
01
ENDCHAR
STARTCHAR U+2526
ENCODING 9510
SWIDTH 941 0
DWIDTH 16 0
BBX 9 16 0 -2
BITMAP
0180
0180
0180
0180
0180
0180
0180
FF80
0100
0100
0100
0100
0100
0100
0100
0100
ENDCHAR
STARTCHAR U+2527
ENCODING 9511
SWIDTH 941 0
DWIDTH 16 0
BBX 9 16 0 -2
BITMAP
0100
0100
0100
0100
0100
0100
0100
FF80
0180
0180
0180
0180
0180
0180
0180
0180
ENDCHAR
STARTCHAR U+2528
ENCODING 9512
SWIDTH 941 0
DWIDTH 16 0
BBX 9 16 0 -2
BITMAP
0180
0180
0180
0180
0180
0180
0180
FF80
0180
0180
0180
0180
0180
0180
0180
0180
ENDCHAR
STARTCHAR U+2529
ENCODING 9513
SWIDTH 941 0
DWIDTH 16 0
BBX 9 16 0 -2
BITMAP
0180
0180
0180
0180
0180
0180
0180
FF80
FF80
0100
0100
0100
0100
0100
0100
0100
ENDCHAR
STARTCHAR U+252A
ENCODING 9514
SWIDTH 941 0
DWIDTH 16 0
BBX 9 16 0 -2
BITMAP
0100
0100
0100
0100
0100
0100
0100
FF80
FF80
0180
0180
0180
0180
0180
0180
0180
ENDCHAR
STARTCHAR U+252B
ENCODING 9515
SWIDTH 941 0
DWIDTH 16 0
BBX 9 16 0 -2
BITMAP
0180
0180
0180
0180
0180
0180
0180
FF80
FF80
0180
0180
0180
0180
0180
0180
0180
ENDCHAR
STARTCHAR U+252C
ENCODING 9516
SWIDTH 941 0
DWIDTH 16 0
BBX 16 9 0 -2
BITMAP
FFFF
0100
0100
0100
0100
0100
0100
0100
0100
ENDCHAR
STARTCHAR U+252D
ENCODING 9517
SWIDTH 941 0
DWIDTH 16 0
BBX 16 9 0 -2
BITMAP
FFFF
FF00
0100
0100
0100
0100
0100
0100
0100
ENDCHAR
STARTCHAR U+252E
ENCODING 9518
SWIDTH 941 0
DWIDTH 16 0
BBX 16 9 0 -2
BITMAP
FFFF
01FF
0100
0100
0100
0100
0100
0100
0100
ENDCHAR
STARTCHAR U+252F
ENCODING 9519
SWIDTH 941 0
DWIDTH 16 0
BBX 16 9 0 -2
BITMAP
FFFF
FFFF
0100
0100
0100
0100
0100
0100
0100
ENDCHAR
STARTCHAR U+2530
ENCODING 9520
SWIDTH 941 0
DWIDTH 16 0
BBX 16 9 0 -2
BITMAP
FFFF
0300
0300
0300
0300
0300
0300
0300
0300
ENDCHAR
STARTCHAR U+2531
ENCODING 9521
SWIDTH 941 0
DWIDTH 16 0
BBX 16 9 0 -2
BITMAP
FFFF
FF00
0300
0300
0300
0300
0300
0300
0300
ENDCHAR
STARTCHAR U+2532
ENCODING 9522
SWIDTH 941 0
DWIDTH 16 0
BBX 16 9 0 -2
BITMAP
FFFF
01FF
0180
0180
0180
0180
0180
0180
0180
ENDCHAR
STARTCHAR U+2533
ENCODING 9523
SWIDTH 941 0
DWIDTH 16 0
BBX 16 9 0 -2
BITMAP
FFFF
FFFF
0180
0180
0180
0180
0180
0180
0180
ENDCHAR
STARTCHAR U+2534
ENCODING 9524
SWIDTH 941 0
DWIDTH 16 0
BBX 16 8 0 6
BITMAP
0100
0100
0100
0100
0100
0100
0100
FFFF
ENDCHAR
STARTCHAR U+2535
ENCODING 9525
SWIDTH 941 0
DWIDTH 16 0
BBX 16 9 0 5
BITMAP
0100
0100
0100
0100
0100
0100
0100
FFFF
FF00
ENDCHAR
STARTCHAR U+2536
ENCODING 9526
SWIDTH 941 0
DWIDTH 16 0
BBX 16 9 0 5
BITMAP
0100
0100
0100
0100
0100
0100
0100
FFFF
01FF
ENDCHAR
STARTCHAR U+2537
ENCODING 9527
SWIDTH 941 0
DWIDTH 16 0
BBX 16 9 0 5
BITMAP
0100
0100
0100
0100
0100
0100
0100
FFFF
FFFF
ENDCHAR
STARTCHAR U+2538
ENCODING 9528
SWIDTH 941 0
DWIDTH 16 0
BBX 16 8 0 6
BITMAP
0180
0180
0180
0180
0180
0180
0180
FFFF
ENDCHAR
STARTCHAR U+2539
ENCODING 9529
SWIDTH 941 0
DWIDTH 16 0
BBX 16 9 0 5
BITMAP
0180
0180
0180
0180
0180
0180
0180
FFFF
FF80
ENDCHAR
STARTCHAR U+253A
ENCODING 9530
SWIDTH 941 0
DWIDTH 16 0
BBX 16 9 0 5
BITMAP
0180
0180
0180
0180
0180
0180
0180
FFFF
01FF
ENDCHAR
STARTCHAR U+253B
ENCODING 9531
SWIDTH 941 0
DWIDTH 16 0
BBX 16 9 0 5
BITMAP
0180
0180
0180
0180
0180
0180
0180
FFFF
FFFF
ENDCHAR
STARTCHAR U+253C
ENCODING 9532
SWIDTH 941 0
DWIDTH 16 0
BBX 16 16 0 -2
BITMAP
0100
0100
0100
0100
0100
0100
0100
FFFF
0100
0100
0100
0100
0100
0100
0100
0100
ENDCHAR
STARTCHAR U+253D
ENCODING 9533
SWIDTH 941 0
DWIDTH 16 0
BBX 16 16 0 -2
BITMAP
0100
0100
0100
0100
0100
0100
0100
FFFF
FF00
0100
0100
0100
0100
0100
0100
0100
ENDCHAR
STARTCHAR U+253E
ENCODING 9534
SWIDTH 941 0
DWIDTH 16 0
BBX 16 16 0 -2
BITMAP
0100
0100
0100
0100
0100
0100
0100
FFFF
01FF
0100
0100
0100
0100
0100
0100
0100
ENDCHAR
STARTCHAR U+253F
ENCODING 9535
SWIDTH 941 0
DWIDTH 16 0
BBX 16 16 0 -2
BITMAP
0100
0100
0100
0100
0100
0100
0100
FFFF
FFFF
0100
0100
0100
0100
0100
0100
0100
ENDCHAR
STARTCHAR U+2540
ENCODING 9536
SWIDTH 941 0
DWIDTH 16 0
BBX 16 16 0 -2
BITMAP
0180
0180
0180
0180
0180
0180
0180
FFFF
0100
0100
0100
0100
0100
0100
0100
0100
ENDCHAR
STARTCHAR U+2541
ENCODING 9537
SWIDTH 941 0
DWIDTH 16 0
BBX 16 16 0 -2
BITMAP
0100
0100
0100
0100
0100
0100
0100
FFFF
0180
0180
0180
0180
0180
0180
0180
0180
ENDCHAR
STARTCHAR U+2542
ENCODING 9538
SWIDTH 941 0
DWIDTH 16 0
BBX 16 16 0 -2
BITMAP
0180
0180
0180
0180
0180
0180
0180
FFFF
0180
0180
0180
0180
0180
0180
0180
0180
ENDCHAR
STARTCHAR U+2543
ENCODING 9539
SWIDTH 941 0
DWIDTH 16 0
BBX 16 16 0 -2
BITMAP
0180
0180
0180
0180
0180
0180
0180
FFFF
FF00
0100
0100
0100
0100
0100
0100
0100
ENDCHAR
STARTCHAR U+2544
ENCODING 9540
SWIDTH 941 0
DWIDTH 16 0
BBX 16 16 0 -2
BITMAP
0180
0180
0180
0180
0180
0180
0180
FFFF
01FF
0100
0100
0100
0100
0100
0100
0100
ENDCHAR
STARTCHAR U+2545
ENCODING 9541
SWIDTH 941 0
DWIDTH 16 0
BBX 16 16 0 -2
BITMAP
0100
0100
0100
0100
0100
0100
0100
FFFF
FF80
0180
0180
0180
0180
0180
0180
0180
ENDCHAR
STARTCHAR U+2546
ENCODING 9542
SWIDTH 941 0
DWIDTH 16 0
BBX 16 16 0 -2
BITMAP
0100
0100
0100
0100
0100
0100
0100
FFFF
01FF
0180
0180
0180
0180
0180
0180
0180
ENDCHAR
STARTCHAR U+2547
ENCODING 9543
SWIDTH 941 0
DWIDTH 16 0
BBX 16 16 0 -2
BITMAP
0180
0180
0180
0180
0180
0180
0180
FFFF
FFFF
0100
0100
0100
0100
0100
0100
0100
ENDCHAR
STARTCHAR U+2548
ENCODING 9544
SWIDTH 941 0
DWIDTH 16 0
BBX 16 16 0 -2
BITMAP
0100
0100
0100
0100
0100
0100
0100
FFFF
FFFF
0180
0180
0180
0180
0180
0180
0180
ENDCHAR
STARTCHAR U+2549
ENCODING 9545
SWIDTH 941 0
DWIDTH 16 0
BBX 16 16 0 -2
BITMAP
0180
0180
0180
0180
0180
0180
0180
FFFF
FF80
0180
0180
0180
0180
0180
0180
0180
ENDCHAR
STARTCHAR U+254A
ENCODING 9546
SWIDTH 941 0
DWIDTH 16 0
BBX 16 16 0 -2
BITMAP
0180
0180
0180
0180
0180
0180
0180
FFFF
01FF
0180
0180
0180
0180
0180
0180
0180
ENDCHAR
STARTCHAR U+254B
ENCODING 9547
SWIDTH 941 0
DWIDTH 16 0
BBX 16 16 0 -2
BITMAP
0180
0180
0180
0180
0180
0180
0180
FFFF
FFFF
0180
0180
0180
0180
0180
0180
0180
ENDCHAR
STARTCHAR U+25A0
ENCODING 9632
SWIDTH 941 0
DWIDTH 16 0
BBX 15 16 0 -2
BITMAP
FFFE
FFFE
FFFE
FFFE
FFFE
FFFE
FFFE
FFFE
FFFE
FFFE
FFFE
FFFE
FFFE
FFFE
FFFE
FFFE
ENDCHAR
STARTCHAR U+25A1
ENCODING 9633
SWIDTH 941 0
DWIDTH 16 0
BBX 15 16 0 -2
BITMAP
FFFE
8002
8002
8002
8002
8002
8002
8002
8002
8002
8002
8002
8002
8002
8002
FFFE
ENDCHAR
STARTCHAR U+25B2
ENCODING 9650
SWIDTH 941 0
DWIDTH 16 0
BBX 15 15 0 -1
BITMAP
0100
0100
0380
0380
07C0
07C0
0FE0
0FE0
1FF0
1FF0
3FF8
3FF8
7FFC
7FFC
FFFE
ENDCHAR
STARTCHAR U+25B3
ENCODING 9651
SWIDTH 941 0
DWIDTH 16 0
BBX 15 15 0 -1
BITMAP
0100
0100
0280
0280
0440
0440
0820
0820
1010
1010
2008
2008
4004
4004
FFFE
ENDCHAR
STARTCHAR U+25BC
ENCODING 9660
SWIDTH 941 0
DWIDTH 16 0
BBX 15 15 0 -2
BITMAP
FFFE
7FFC
7FFC
3FF8
3FF8
1FF0
1FF0
0FE0
0FE0
07C0
07C0
0380
0380
0100
0100
ENDCHAR
STARTCHAR U+25BD
ENCODING 9661
SWIDTH 941 0
DWIDTH 16 0
BBX 15 15 0 -2
BITMAP
FFFE
4004
4004
2008
2008
1010
1010
0820
0820
0440
0440
0280
0280
0100
0100
ENDCHAR
STARTCHAR U+25C6
ENCODING 9670
SWIDTH 941 0
DWIDTH 16 0
BBX 15 16 0 -2
BITMAP
0100
0380
07C0
0FE0
1FF0
3FF8
7FFC
FFFE
FFFE
7FFC
3FF8
1FF0
0FE0
07C0
0380
0100
ENDCHAR
STARTCHAR U+25C7
ENCODING 9671
SWIDTH 941 0
DWIDTH 16 0
BBX 15 15 0 -1
BITMAP
0100
0280
0440
0820
1010
2008
4004
8002
4004
2008
1010
0820
0440
0280
0100
ENDCHAR
STARTCHAR U+25CB
ENCODING 9675
SWIDTH 941 0
DWIDTH 16 0
BBX 15 16 0 -2
BITMAP
07C0
1830
2008
4004
4004
8002
8002
8002
8002
8002
8002
4004
4004
2008
1830
07C0
ENDCHAR
STARTCHAR U+25CE
ENCODING 9678
SWIDTH 941 0
DWIDTH 16 0
BBX 15 16 0 -2
BITMAP
07C0
1830
2008
4004
47C4
8822
9012
9012
9012
9012
8822
47C4
4004
2008
1830
07C0
ENDCHAR
STARTCHAR U+25CF
ENCODING 9679
SWIDTH 941 0
DWIDTH 16 0
BBX 15 16 0 -2
BITMAP
07C0
1FF0
3FF8
7FFC
7FFC
FFFE
FFFE
FFFE
FFFE
FFFE
FFFE
7FFC
7FFC
3FF8
1FF0
07C0
ENDCHAR
STARTCHAR U+25EF
ENCODING 9711
SWIDTH 941 0
DWIDTH 16 0
BBX 15 16 0 -2
BITMAP
07C0
1830
2008
4004
4004
8002
8002
8002
8002
8002
8002
4004
4004
2008
1830
07C0
ENDCHAR
STARTCHAR U+2605
ENCODING 9733
SWIDTH 941 0
DWIDTH 16 0
BBX 15 16 0 -2
BITMAP
0100
0100
0380
0380
07C0
07C0
FFFE
7FFC
3FF8
1FF0
0FE0
1FF0
1EF0
1C70
3838
3018
ENDCHAR
STARTCHAR U+2606
ENCODING 9734
SWIDTH 941 0
DWIDTH 16 0
BBX 15 16 0 -2
BITMAP
0100
0100
0280
0280
0440
0440
FC7E
4004
2008
1010
0820
1110
1290
1450
2828
3018
ENDCHAR
STARTCHAR U+2640
ENCODING 9792
SWIDTH 941 0
DWIDTH 16 0
BBX 11 15 2 -1
BITMAP
0E00
1100
2080
2080
2080
1100
0E00
0400
0400
FFE0
0400
0400
0400
0400
0400
ENDCHAR
STARTCHAR U+2642
ENCODING 9794
SWIDTH 941 0
DWIDTH 16 0
BBX 14 14 0 -1
BITMAP
00FC
000C
0014
0024
0044
0084
0100
3A00
4400
8200
8200
8200
4400
3800
ENDCHAR
STARTCHAR U+266A
ENCODING 9834
SWIDTH 941 0
DWIDTH 16 0
BBX 10 14 2 -1
BITMAP
0400
0600
0500
0480
0480
0440
0440
0440
0480
1C00
7C00
F800
F800
7000
ENDCHAR
STARTCHAR U+266D
ENCODING 9837
SWIDTH 941 0
DWIDTH 16 0
BBX 6 14 4 -1
BITMAP
80
80
80
80
B0
C8
84
84
88
88
90
A0
C0
80
ENDCHAR
STARTCHAR U+266F
ENCODING 9839
SWIDTH 941 0
DWIDTH 16 0
BBX 9 14 3 -1
BITMAP
0200
2200
2380
3F80
FE00
E200
2200
2200
2380
3F80
FE00
E200
2200
2000
ENDCHAR
STARTCHAR U+2E80
ENCODING 11904
SWIDTH 941 0
DWIDTH 16 0
BBX 8 10 4 1
BITMAP
C0
30
0C
02
01
C0
30
0C
02
01
ENDCHAR
STARTCHAR U+2E81
ENCODING 11905
SWIDTH 941 0
DWIDTH 16 0
BBX 13 15 0 -1
BITMAP
0018
00E0
6300
3C00
2000
2000
2000
2000
2000
2000
2000
2000
4000
4000
8000
ENDCHAR
STARTCHAR U+2E82
ENCODING 11906
SWIDTH 941 0
DWIDTH 16 0
BBX 15 4 0 9
BITMAP
81FE
7E04
0008
0010
ENDCHAR
STARTCHAR U+2E83
ENCODING 11907
SWIDTH 941 0
DWIDTH 16 0
BBX 13 15 1 -1
BITMAP
C000
4000
4000
4000
4000
4000
4000
4000
4000
4000
4000
4010
4010
2010
1FF8
ENDCHAR
STARTCHAR U+2E84
ENCODING 11908
SWIDTH 941 0
DWIDTH 16 0
BBX 15 15 0 -2
BITMAP
83E0
7C40
0040
0040
0040
0040
0040
0040
0040
0040
0020
0022
0012
000C
0006
ENDCHAR
STARTCHAR U+2E85
ENCODING 11909
SWIDTH 941 0
DWIDTH 16 0
BBX 5 16 4 -2
BITMAP
08
08
08
10
10
10
30
50
90
10
10
10
10
10
10
10
ENDCHAR
STARTCHAR U+2E86
ENCODING 11910
SWIDTH 941 0
DWIDTH 16 0
BBX 12 15 1 -2
BITMAP
31F0
1E20
1020
1020
1020
1020
1020
1020
1020
1020
1020
2020
20A0
4060
8040
ENDCHAR
STARTCHAR U+2E87
ENCODING 11911
SWIDTH 941 0
DWIDTH 16 0
BBX 15 15 0 -2
BITMAP
61F8
3E10
2010
2010
2010
2010
2010
2010
2010
200A
200A
400C
4004
8006
0002
ENDCHAR
STARTCHAR U+2E88
ENCODING 11912
SWIDTH 941 0
DWIDTH 16 0
BBX 12 8 2 6
BITMAP
0200
0200
04F0
0F20
1040
2080
C100
0200
ENDCHAR
STARTCHAR U+2E89
ENCODING 11913
SWIDTH 941 0
DWIDTH 16 0
BBX 6 16 4 -2
BITMAP
0C
04
C4
44
44
44
44
44
44
44
04
04
04
14
0C
08
ENDCHAR
STARTCHAR U+2E8A
ENCODING 11914
SWIDTH 941 0
DWIDTH 16 0
BBX 8 16 5 -2
BITMAP
C0
40
40
40
40
40
47
78
40
40
40
40
40
40
40
40
ENDCHAR
STARTCHAR U+2E8B
ENCODING 11915
SWIDTH 941 0
DWIDTH 16 0
BBX 12 8 2 -2
BITMAP
C7C0
7880
4080
4280
41A0
4120
2020
1FF0
ENDCHAR
STARTCHAR U+2E8C
ENCODING 11916
SWIDTH 941 0
DWIDTH 16 0
BBX 11 6 2 8
BITMAP
0C20
8420
4440
2480
2400
0400
ENDCHAR
STARTCHAR U+2E8D
ENCODING 11917
SWIDTH 941 0
DWIDTH 16 0
BBX 11 8 2 6
BITMAP
0020
1020
8820
4440
4440
2480
2080
0100
ENDCHAR
STARTCHAR U+2E8E
ENCODING 11918
SWIDTH 941 0
DWIDTH 16 0
BBX 15 15 0 -2
BITMAP
81FE
7E80
0480
0480
0480
0480
0480
0480
0880
0880
1080
1084
2084
4044
803E
ENDCHAR
STARTCHAR U+2E8F
ENCODING 11919
SWIDTH 941 0
DWIDTH 16 0
BBX 15 16 0 -2
BITMAP
0080
0440
0420
0810
0808
1004
2CC2
4442
8440
0440
0440
0840
0844
1044
2044
C03E
ENDCHAR
STARTCHAR U+2E90
ENCODING 11920
SWIDTH 941 0
DWIDTH 16 0
BBX 15 16 0 -2
BITMAP
0300
0100
0100
0100
81FE
7F00
0100
02C0
0280
0280
0480
0480
0884
1084
2044
C03E
ENDCHAR
STARTCHAR U+2E91
ENCODING 11921
SWIDTH 941 0
DWIDTH 16 0
BBX 15 16 0 -2
BITMAP
0080
0440
0420
0810
0808
14E4
2742
4442
8440
0440
0440
0840
0844
1044
2044
C03E
ENDCHAR
STARTCHAR U+2E92
ENCODING 11922
SWIDTH 941 0
DWIDTH 16 0
BBX 14 15 1 -2
BITMAP
C1F0
7E20
4020
4020
4020
43E0
7C20
4000
4000
4000
4000
4008
4008
2008
1FFC
ENDCHAR
STARTCHAR U+2E93
ENCODING 11923
SWIDTH 941 0
DWIDTH 16 0
BBX 15 15 0 -1
BITMAP
0100
0100
0200
0220
0420
0440
0840
0F80
3120
0110
0208
0434
05C4
1E02
E002
ENDCHAR
STARTCHAR U+2E94
ENCODING 11924
SWIDTH 941 0
DWIDTH 16 0
BBX 15 15 0 -1
BITMAP
0C00
0400
0478
0790
0410
0810
0820
0820
11E0
1E20
1040
0040
0040
81FE
7E00
ENDCHAR
STARTCHAR U+2E95
ENCODING 11925
SWIDTH 941 0
DWIDTH 16 0
BBX 12 15 2 -2
BITMAP
87F0
7820
0020
0020
0020
0020
47E0
3820
0020
0020
0020
0020
87E0
7820
0020
ENDCHAR
STARTCHAR U+2E96
ENCODING 11926
SWIDTH 941 0
DWIDTH 16 0
BBX 7 16 4 -2
BITMAP
30
10
10
58
54
52
90
90
10
10
10
10
10
10
10
10
ENDCHAR
STARTCHAR U+2E97
ENCODING 11927
SWIDTH 941 0
DWIDTH 16 0
BBX 13 8 1 -2
BITMAP
0C00
0520
2490
2448
2448
5448
8C00
0800
ENDCHAR
STARTCHAR U+2E98
ENCODING 11928
SWIDTH 941 0
DWIDTH 16 0
BBX 7 16 4 -2
BITMAP
30
10
10
9E
70
10
10
16
18
30
D0
10
10
50
30
20
ENDCHAR
STARTCHAR U+2E99
ENCODING 11929
SWIDTH 941 0
DWIDTH 16 0
BBX 15 16 0 -2
BITMAP
0800
0800
0800
10FE
1F20
2020
4020
8C20
0240
0140
00C0
0120
0210
0C08
3004
C002
ENDCHAR
STARTCHAR U+2E9B
ENCODING 11931
SWIDTH 941 0
DWIDTH 16 0
BBX 15 15 0 -2
BITMAP
2078
1F80
1080
1080
2080
21FE
3F00
41C0
0280
0280
0480
0484
0884
3044
C03E
ENDCHAR
STARTCHAR U+2E9C
ENCODING 11932
SWIDTH 941 0
DWIDTH 16 0
BBX 14 6 1 7
BITMAP
C1FC
7E08
51E8
4E08
51E8
4E00
ENDCHAR
STARTCHAR U+2E9D
ENCODING 11933
SWIDTH 941 0
DWIDTH 16 0
BBX 10 15 3 -2
BITMAP
C7C0
7880
4080
4780
7880
4080
4080
4780
7880
4080
4080
4080
4280
4180
4100
ENDCHAR
STARTCHAR U+2E9E
ENCODING 11934
SWIDTH 941 0
DWIDTH 16 0
BBX 14 16 0 -2
BITMAP
0100
013C
01C0
0100
0900
09F8
0F10
1020
2820
C440
0280
0100
0200
0C00
3000
C000
ENDCHAR
STARTCHAR U+2E9F
ENCODING 11935
SWIDTH 941 0
DWIDTH 16 0
BBX 15 15 0 -2
BITMAP
18F8
0F10
0910
0890
0890
89FE
7E10
0910
1090
1090
11FE
3E20
20A0
0060
0040
ENDCHAR
STARTCHAR U+2EA0
ENCODING 11936
SWIDTH 941 0
DWIDTH 16 0
BBX 15 15 0 -2
BITMAP
61F8
3E10
2010
21F0
3F10
2100
21FC
3F00
2080
2080
2040
2140
2624
3814
E00E
ENDCHAR
STARTCHAR U+2EA1
ENCODING 11937
SWIDTH 941 0
DWIDTH 16 0
BBX 5 16 5 -2
BITMAP
40
20
10
00
88
48
28
10
10
10
20
20
C0
20
20
20
ENDCHAR
STARTCHAR U+2EA2
ENCODING 11938
SWIDTH 941 0
DWIDTH 16 0
BBX 15 16 0 -2
BITMAP
0300
0100
0104
4104
2118
11A0
0940
0120
0510
0908
1108
2104
C102
0502
0300
0200
ENDCHAR
STARTCHAR U+2EA3
ENCODING 11939
SWIDTH 941 0
DWIDTH 16 0
BBX 15 4 0 -2
BITMAP
0008
2444
2222
C222
ENDCHAR
STARTCHAR U+2EA4
ENCODING 11940
SWIDTH 941 0
DWIDTH 16 0
BBX 11 6 2 8
BITMAP
00E0
0700
F820
8420
4240
2240
ENDCHAR
STARTCHAR U+2EA5
ENCODING 11941
SWIDTH 941 0
DWIDTH 16 0
BBX 14 6 1 8
BITMAP
0070
0390
7C08
2204
4104
8100
ENDCHAR
STARTCHAR U+2EA6
ENCODING 11942
SWIDTH 941 0
DWIDTH 16 0
BBX 5 16 5 -2
BITMAP
18
08
08
48
28
28
08
08
18
28
C8
08
08
08
08
08
ENDCHAR
STARTCHAR U+2EA7
ENCODING 11943
SWIDTH 941 0
DWIDTH 16 0
BBX 15 8 0 6
BITMAP
0300
1100
1100
11F8
3F00
4100
81FE
7F00
ENDCHAR
STARTCHAR U+2EA8
ENCODING 11944
SWIDTH 941 0
DWIDTH 16 0
BBX 5 16 5 -2
BITMAP
08
88
50
20
20
50
90
28
28
48
88
08
08
50
30
20
ENDCHAR
STARTCHAR U+2EA9
ENCODING 11945
SWIDTH 941 0
DWIDTH 16 0
BBX 7 11 4 1
BITMAP
8E
70
10
10
9C
70
10
12
1C
10
E0
ENDCHAR
STARTCHAR U+2EAA
ENCODING 11946
SWIDTH 941 0
DWIDTH 16 0
BBX 6 13 5 0
BITMAP
8C
74
08
10
D0
5C
50
50
50
54
58
60
C0
ENDCHAR
STARTCHAR U+2EAB
ENCODING 11947
SWIDTH 941 0
DWIDTH 16 0
BBX 15 5 0 8
BITMAP
C1FE
7E44
4444
45FC
7E04
ENDCHAR
STARTCHAR U+2EAC
ENCODING 11948
SWIDTH 941 0
DWIDTH 16 0
BBX 7 15 4 -2
BITMAP
4C
30
00
8E
70
18
54
54
54
54
54
90
90
10
10
ENDCHAR
STARTCHAR U+2EAD
ENCODING 11949
SWIDTH 941 0
DWIDTH 16 0
BBX 8 16 4 -2
BITMAP
18
08
08
8E
72
04
04
08
1C
2A
49
88
08
08
08
08
ENDCHAR
STARTCHAR U+2EAE
ENCODING 11950
SWIDTH 941 0
DWIDTH 16 0
BBX 15 8 0 6
BITMAP
1040
1040
269E
38F0
2890
4520
8420
0040
ENDCHAR
STARTCHAR U+2EAF
ENCODING 11951
SWIDTH 941 0
DWIDTH 16 0
BBX 6 15 5 -1
BITMAP
20
20
40
50
D0
28
28
74
C4
00
28
A8
A4
94
80
ENDCHAR
STARTCHAR U+2EB0
ENCODING 11952
SWIDTH 941 0
DWIDTH 16 0
BBX 6 14 5 0
BITMAP
10
10
10
24
24
38
D0
10
3C
E0
00
0C
30
C0
ENDCHAR
STARTCHAR U+2EB1
ENCODING 11953
SWIDTH 941 0
DWIDTH 16 0
BBX 15 5 0 8
BITMAP
C1FE
7E44
4484
4304
4CC4
ENDCHAR
STARTCHAR U+2EB2
ENCODING 11954
SWIDTH 941 0
DWIDTH 16 0
BBX 15 5 0 8
BITMAP
C1FE
7E44
4884
65F4
5E04
ENDCHAR
STARTCHAR U+2EB3
ENCODING 11955
SWIDTH 941 0
DWIDTH 16 0
BBX 15 7 0 6
BITMAP
40FE
7F84
4468
8410
0808
1004
6000
ENDCHAR
STARTCHAR U+2EB4
ENCODING 11956
SWIDTH 941 0
DWIDTH 16 0
BBX 15 15 0 -2
BITMAP
41FE
7E84
4488
8480
0480
0480
0480
0480
0480
0480
0880
0884
1084
2044
C03E
ENDCHAR
STARTCHAR U+2EB5
ENCODING 11957
SWIDTH 941 0
DWIDTH 16 0
BBX 15 15 0 -2
BITMAP
C1FE
7E44
4444
4444
4444
4444
4444
4444
4444
4444
4444
4444
4444
4444
4004
ENDCHAR
STARTCHAR U+2EB6
ENCODING 11958
SWIDTH 941 0
DWIDTH 16 0
BBX 15 12 0 2
BITMAP
0420
42FC
3F00
21F8
1F00
82FE
7F00
0400
0800
1000
2000
C000
ENDCHAR
STARTCHAR U+2EB7
ENCODING 11959
SWIDTH 941 0
DWIDTH 16 0
BBX 15 7 0 7
BITMAP
0420
42FC
3F00
21F8
1F00
81FE
7F00
ENDCHAR
STARTCHAR U+2EB8
ENCODING 11960
SWIDTH 941 0
DWIDTH 16 0
BBX 15 16 0 -2
BITMAP
0CC0
0440
847E
7C40
0440
0400
80FE
7F00
0100
0100
41FC
3F00
0100
0100
0100
0100
ENDCHAR
STARTCHAR U+2EB9
ENCODING 11961
SWIDTH 941 0
DWIDTH 16 0
BBX 15 13 0 1
BITMAP
0600
0210
0210
23E0
1E20
0240
83FE
7E80
0100
0200
0C00
3000
C000
ENDCHAR
STARTCHAR U+2EBA
ENCODING 11962
SWIDTH 941 0
DWIDTH 16 0
BBX 15 16 0 -2
BITMAP
0300
0100
21F8
1F10
81FE
7F10
21F0
1F00
0100
0100
0100
0100
0100
0100
0100
0100
ENDCHAR
STARTCHAR U+2EBB
ENCODING 11963
SWIDTH 941 0
DWIDTH 16 0
BBX 15 10 0 4
BITMAP
0300
0100
21F8
1F10
81FE
7F10
21F0
1F00
81FE
7F00
ENDCHAR
STARTCHAR U+2EBC
ENCODING 11964
SWIDTH 941 0
DWIDTH 16 0
BBX 12 15 1 -2
BITMAP
31F0
1E20
1020
1020
1620
1120
10A0
1620
1120
10A0
1020
2020
20A0
4060
8040
ENDCHAR
STARTCHAR U+2EBD
ENCODING 11965
SWIDTH 941 0
DWIDTH 16 0
BBX 14 16 1 -2
BITMAP
0300
0400
08FC
D008
6008
4008
4008
40F8
7C08
4008
4008
4008
4008
40F8
7C08
4008
ENDCHAR
STARTCHAR U+2EBE
ENCODING 11966
SWIDTH 941 0
DWIDTH 16 0
BBX 15 5 0 9
BITMAP
0440
85FE
7E40
0440
0400
ENDCHAR
STARTCHAR U+2EBF
ENCODING 11967
SWIDTH 941 0
DWIDTH 16 0
BBX 15 5 0 9
BITMAP
0440
84FE
7E40
0440
0400
ENDCHAR
STARTCHAR U+2EC0
ENCODING 11968
SWIDTH 941 0
DWIDTH 16 0
BBX 15 5 0 9
BITMAP
0440
847E
7C40
0440
0400
ENDCHAR
STARTCHAR U+2EC1
ENCODING 11969
SWIDTH 941 0
DWIDTH 16 0
BBX 15 16 0 -2
BITMAP
0300
01F0
0100
61FC
3F08
2230
33C0
2E10
2210
21F8
2000
2DC0
4684
4484
8844
303E
ENDCHAR
STARTCHAR U+2EC2
ENCODING 11970
SWIDTH 941 0
DWIDTH 16 0
BBX 7 16 4 -2
BITMAP
30
10
10
9C
64
08
0A
14
38
54
92
10
10
10
10
10
ENDCHAR
STARTCHAR U+2EC3
ENCODING 11971
SWIDTH 941 0
DWIDTH 16 0
BBX 15 9 0 4
BITMAP
81FE
7E40
0440
65FC
3E48
2448
25F8
3E08
2008
ENDCHAR
STARTCHAR U+2EC4
ENCODING 11972
SWIDTH 941 0
DWIDTH 16 0
BBX 15 15 0 -2
BITMAP
80FE
7F40
0240
0240
62FE
3F44
2244
2444
243C
2804
3004
2004
20FC
3F04
2004
ENDCHAR
STARTCHAR U+2EC5
ENCODING 11973
SWIDTH 941 0
DWIDTH 16 0
BBX 15 15 0 -2
BITMAP
19F0
0E20
0820
0B20
0920
0920
0920
0920
09A0
0280
0280
0484
0884
3084
C07E
ENDCHAR
STARTCHAR U+2EC6
ENCODING 11974
SWIDTH 941 0
DWIDTH 16 0
BBX 13 16 1 -2
BITMAP
0800
09C0
0E80
1100
31F8
5F10
91F0
1F10
1110
11F0
1F10
1110
2110
2150
4030
8020
ENDCHAR
STARTCHAR U+2EC7
ENCODING 11975
SWIDTH 941 0
DWIDTH 16 0
BBX 13 16 1 -2
BITMAP
0800
09C0
0E80
1100
31F8
5F10
9110
1290
1250
1D30
1190
1250
1C30
1050
1030
1020
ENDCHAR
STARTCHAR U+2EC8
ENCODING 11976
SWIDTH 941 0
DWIDTH 16 0
BBX 6 14 5 -1
BITMAP
40
20
10
10
00
B8
50
10
10
10
10
14
18
30
ENDCHAR
STARTCHAR U+2EC9
ENCODING 11977
SWIDTH 941 0
DWIDTH 16 0
BBX 15 15 0 -2
BITMAP
18F8
0F10
0810
0B10
0910
0910
0910
0910
0910
0910
09C0
0230
0408
1804
E002
ENDCHAR
STARTCHAR U+2ECA
ENCODING 11978
SWIDTH 941 0
DWIDTH 16 0
BBX 6 14 5 -1
BITMAP
CC
74
44
4C
74
10
10
DC
50
50
54
58
60
C0
ENDCHAR
STARTCHAR U+2ECB
ENCODING 11979
SWIDTH 941 0
DWIDTH 16 0
BBX 15 16 0 -2
BITMAP
0200
0200
0200
84FE
7F00
0800
0B00
11F8
3F00
2100
0100
81FE
7F00
0100
0100
0100
ENDCHAR
STARTCHAR U+2ECC
ENCODING 11980
SWIDTH 941 0
DWIDTH 16 0
BBX 15 14 0 -2
BITMAP
4000
3000
0000
0000
0000
B000
5000
2000
4000
3000
2000
F000
0E00
01FE
ENDCHAR
STARTCHAR U+2ECD
ENCODING 11981
SWIDTH 941 0
DWIDTH 16 0
BBX 15 15 0 -2
BITMAP
2000
1800
0000
4000
3000
0000
0000
B000
5000
2000
1000
2000
D800
0600
01FE
ENDCHAR
STARTCHAR U+2ECE
ENCODING 11982
SWIDTH 941 0
DWIDTH 16 0
BBX 15 14 0 -2
BITMAP
4000
3000
0000
0000
0000
B000
5000
2000
4000
3000
1000
2800
4600
81FE
ENDCHAR
STARTCHAR U+2ECF
ENCODING 11983
SWIDTH 941 0
DWIDTH 16 0
BBX 7 15 4 -2
BITMAP
CE
72
44
44
58
44
44
42
42
72
4C
48
40
40
40
ENDCHAR
STARTCHAR U+2ED0
ENCODING 11984
SWIDTH 941 0
DWIDTH 16 0
BBX 7 15 4 -1
BITMAP
10
10
2E
30
20
4E
B0
10
9E
70
10
12
14
18
30
ENDCHAR
STARTCHAR U+2ED1
ENCODING 11985
SWIDTH 941 0
DWIDTH 16 0
BBX 15 15 0 -2
BITMAP
18F0
0F00
08E0
0F00
08E0
0F00
0800
88FE
7F08
0888
0850
0830
0988
0E04
7002
ENDCHAR
STARTCHAR U+2ED2
ENCODING 11986
SWIDTH 941 0
DWIDTH 16 0
BBX 15 14 0 -1
BITMAP
18F0
0F00
0800
08E0
0F00
08E0
0F00
0800
88FE
7F40
0420
0470
0B88
7C08
ENDCHAR
STARTCHAR U+2ED3
ENCODING 11987
SWIDTH 941 0
DWIDTH 16 0
BBX 15 16 0 -2
BITMAP
0010
1810
0820
0840
0880
0900
0A00
88FE
7F00
0900
0880
0840
0830
0988
0E04
7002
ENDCHAR
STARTCHAR U+2ED4
ENCODING 11988
SWIDTH 941 0
DWIDTH 16 0
BBX 15 15 0 -2
BITMAP
447E
2382
1002
1002
C002
4002
4002
4002
4002
4002
4002
4002
400A
4006
4004
ENDCHAR
STARTCHAR U+2ED5
ENCODING 11989
SWIDTH 941 0
DWIDTH 16 0
BBX 10 16 3 -2
BITMAP
0800
DF80
7100
4100
4F00
7000
4FC0
7080
4780
7800
47C0
7880
4080
4780
7880
4080
ENDCHAR
STARTCHAR U+2ED6
ENCODING 11990
SWIDTH 941 0
DWIDTH 16 0
BBX 6 15 5 -2
BITMAP
CC
74
44
48
50
48
48
44
44
64
58
50
40
40
40
ENDCHAR
STARTCHAR U+2ED7
ENCODING 11991
SWIDTH 941 0
DWIDTH 16 0
BBX 15 8 0 5
BITMAP
21F8
1F00
41FE
7F04
4178
BD00
0178
3C00
ENDCHAR
STARTCHAR U+2ED8
ENCODING 11992
SWIDTH 941 0
DWIDTH 16 0
BBX 15 16 0 -2
BITMAP
0300
21F8
1F00
11F0
0F00
81FE
7F00
08F0
0F10
08F0
0F10
08F0
0F10
0850
0830
0820
ENDCHAR
STARTCHAR U+2ED9
ENCODING 11993
SWIDTH 941 0
DWIDTH 16 0
BBX 15 16 0 -2
BITMAP
0300
0100
41FC
3F00
0100
21F8
1F00
0100
81FE
7F04
0104
0128
0118
0110
0100
0100
ENDCHAR
STARTCHAR U+2EDA
ENCODING 11994
SWIDTH 941 0
DWIDTH 16 0
BBX 15 15 0 -2
BITMAP
80FE
7F00
0200
1BF0
0E20
0820
0B20
0920
0920
0920
0900
02C0
0430
0808
7004
ENDCHAR
STARTCHAR U+2EDB
ENCODING 11995
SWIDTH 941 0
DWIDTH 16 0
BBX 15 15 0 -2
BITMAP
61F8
3E10
20D0
2050
3850
2450
2290
2190
2090
214A
222A
442C
5804
8006
0002
ENDCHAR
STARTCHAR U+2EDC
ENCODING 11996
SWIDTH 941 0
DWIDTH 16 0
BBX 15 15 0 -2
BITMAP
83E0
7C44
0044
0048
0050
0060
0050
0048
0044
0044
0020
0022
0012
000C
0006
ENDCHAR
STARTCHAR U+2EDD
ENCODING 11997
SWIDTH 941 0
DWIDTH 16 0
BBX 15 16 0 -2
BITMAP
0100
0180
0260
0510
0908
19F4
2E22
C9E0
0E20
09E0
0E88
0868
0890
0B08
0C04
7002
ENDCHAR
STARTCHAR U+2EDE
ENCODING 11998
SWIDTH 941 0
DWIDTH 16 0
BBX 7 16 4 -2
BITMAP
10
18
24
2C
72
4C
F4
4C
74
4C
70
4C
70
4C
70
40
ENDCHAR
STARTCHAR U+2EDF
ENCODING 11999
SWIDTH 941 0
DWIDTH 16 0
BBX 7 15 4 -1
BITMAP
10
28
24
52
5C
E4
5C
64
5C
64
48
48
4C
74
C0
ENDCHAR
STARTCHAR U+2EE0
ENCODING 12000
SWIDTH 941 0
DWIDTH 16 0
BBX 7 15 4 -1
BITMAP
20
20
20
2E
74
48
B0
90
10
10
10
10
14
18
30
ENDCHAR
STARTCHAR U+2EE1
ENCODING 12001
SWIDTH 941 0
DWIDTH 16 0
BBX 15 16 0 -2
BITMAP
0444
0888
3330
0888
84FE
7F00
0100
19F8
0F10
08F0
0F10
08F0
0F10
08F0
0F10
0810
ENDCHAR
STARTCHAR U+2EE2
ENCODING 12002
SWIDTH 941 0
DWIDTH 16 0
BBX 15 15 0 -2
BITMAP
20F0
1F20
0020
0440
0440
0840
08FE
1F04
1004
80F4
7F04
0008
0048
0030
0020
ENDCHAR
STARTCHAR U+2EE3
ENCODING 12003
SWIDTH 941 0
DWIDTH 16 0
BBX 15 15 0 -2
BITMAP
19F0
0E20
09A0
0F20
49FE
7E04
49F0
8E20
09E0
0E20
09E0
0E20
08A0
0860
0840
ENDCHAR
STARTCHAR U+2EE4
ENCODING 12004
SWIDTH 941 0
DWIDTH 16 0
BBX 15 16 0 -2
BITMAP
0200
0200
65FC
3F08
21F8
3F08
2108
21F8
3F28
2220
0350
0558
05E8
0904
3104
C0FE
ENDCHAR
STARTCHAR U+2EE5
ENCODING 12005
SWIDTH 941 0
DWIDTH 16 0
BBX 15 15 0 -1
BITMAP
0400
0400
09C0
0E80
10F8
3F10
5110
91F0
1F10
1110
11F0
1F10
0000
80FE
7F00
ENDCHAR
STARTCHAR U+2EE6
ENCODING 12006
SWIDTH 941 0
DWIDTH 16 0
BBX 15 16 0 -2
BITMAP
0100
0200
1BF0
0C20
0A20
0920
0960
0800
09FE
0E04
0804
81E4
7E04
0024
0018
0010
ENDCHAR
STARTCHAR U+2EE7
ENCODING 12007
SWIDTH 941 0
DWIDTH 16 0
BBX 14 16 1 -2
BITMAP
0600
0200
02FC
0300
0200
C3F8
7C90
5090
4D10
4310
4290
4450
4830
53F0
7C10
4010
ENDCHAR
STARTCHAR U+2EE8
ENCODING 12008
SWIDTH 941 0
DWIDTH 16 0
BBX 15 16 0 -2
BITMAP
0300
0100
41FC
3F00
21F8
1F00
81FE
7E00
02F0
0320
0420
1B40
60C0
0330
0C0C
F002
ENDCHAR
STARTCHAR U+2EE9
ENCODING 12009
SWIDTH 941 0
DWIDTH 16 0
BBX 15 16 0 -2
BITMAP
0440
45FC
3E40
0440
85FE
7F00
01F8
1F10
11F0
1F10
1110
11F0
1E50
1420
0818
7004
ENDCHAR
STARTCHAR U+2EEA
ENCODING 12010
SWIDTH 941 0
DWIDTH 16 0
BBX 14 15 1 -2
BITMAP
31F0
1E20
11E0
1E20
1200
C3F8
7E10
43F0
7E10
4210
43F0
7E10
4208
0208
01FC
ENDCHAR
STARTCHAR U+2EEB
ENCODING 12011
SWIDTH 941 0
DWIDTH 16 0
BBX 15 16 0 -2
BITMAP
0300
41FC
3E40
0480
03C0
0230
1C2C
E9E2
0E20
0820
09E0
0E20
0820
1020
2020
C020
ENDCHAR
STARTCHAR U+2EEC
ENCODING 12012
SWIDTH 941 0
DWIDTH 16 0
BBX 15 16 0 -2
BITMAP
0300
0100
41FC
3E40
0880
0500
03C0
0430
18CC
E442
0440
0840
0840
1040
2040
C040
ENDCHAR
STARTCHAR U+2EED
ENCODING 12013
SWIDTH 941 0
DWIDTH 16 0
BBX 15 16 0 -2
BITMAP
0300
31F0
1100
91FE
7E00
0128
6928
2548
35F8
2F88
2568
2518
2908
31F8
3E08
2008
ENDCHAR
STARTCHAR U+2EEE
ENCODING 12014
SWIDTH 941 0
DWIDTH 16 0
BBX 15 16 0 -2
BITMAP
0300
1970
0980
0900
89FE
7E00
0108
2108
2108
2288
2248
2428
2808
21F8
3E08
2008
ENDCHAR
STARTCHAR U+2EEF
ENCODING 12015
SWIDTH 941 0
DWIDTH 16 0
BBX 15 16 0 -2
BITMAP
0300
21F8
1E20
0840
85FE
7E00
11F8
1F10
11F0
1F10
1110
11F0
1F14
1104
0104
00FE
ENDCHAR
STARTCHAR U+2EF0
ENCODING 12016
SWIDTH 941 0
DWIDTH 16 0
BBX 15 16 0 -2
BITMAP
0600
0260
0210
0208
83FE
7E00
0390
0510
0510
0520
0520
0940
0984
1304
2C84
C07E
ENDCHAR
STARTCHAR U+2EF1
ENCODING 12017
SWIDTH 941 0
DWIDTH 16 0
BBX 15 16 0 -2
BITMAP
0800
0F80
1178
3F88
62B8
BEC0
02BC
7AD4
0EAC
FA94
0AEC
7ABC
0EC4
FA84
0A04
79FE
ENDCHAR
STARTCHAR U+2EF2
ENCODING 12018
SWIDTH 941 0
DWIDTH 16 0
BBX 15 16 0 -2
BITMAP
0480
0780
08F8
1F10
31F0
DF10
11F0
1F10
61FC
3F08
21F8
3F08
21F8
3F0C
2104
00FE
ENDCHAR
STARTCHAR U+2EF3
ENCODING 12019
SWIDTH 941 0
DWIDTH 16 0
BBX 15 16 0 -2
BITMAP
0400
0400
09E0
0E40
1080
21F8
5F10
9110
11F0
1F10
1110
11F0
1F14
1104
0104
00FE
ENDCHAR
STARTCHAR U+2F00
ENCODING 12032
SWIDTH 941 0
DWIDTH 16 0
BBX 15 2 0 5
BITMAP
80FE
7F00
ENDCHAR
STARTCHAR U+2F01
ENCODING 12033
SWIDTH 941 0
DWIDTH 16 0
BBX 2 16 6 -2
BITMAP
C0
40
40
40
40
40
40
40
40
40
40
40
40
40
40
40
ENDCHAR
STARTCHAR U+2F02
ENCODING 12034
SWIDTH 941 0
DWIDTH 16 0
BBX 8 8 4 2
BITMAP
C0
30
08
04
02
02
01
01
ENDCHAR
STARTCHAR U+2F03
ENCODING 12035
SWIDTH 941 0
DWIDTH 16 0
BBX 7 16 2 -2
BITMAP
06
02
02
02
02
02
02
02
04
04
04
08
08
10
20
C0
ENDCHAR
STARTCHAR U+2F04
ENCODING 12036
SWIDTH 941 0
DWIDTH 16 0
BBX 13 14 1 -1
BITMAP
41C0
3E80
0100
0200
0400
0800
1000
2000
4000
4000
8010
8010
4010
3FF8
ENDCHAR
STARTCHAR U+2F05
ENCODING 12037
SWIDTH 941 0
DWIDTH 16 0
BBX 3 16 5 -2
BITMAP
60
20
20
20
20
20
20
20
20
20
20
20
20
A0
60
40
ENDCHAR
STARTCHAR U+2F06
ENCODING 12038
SWIDTH 941 0
DWIDTH 16 0
BBX 15 10 0 1
BITMAP
20F8
1F00
0000
0000
0000
0000
0000
0000
81FE
7E00
ENDCHAR
STARTCHAR U+2F07
ENCODING 12039
SWIDTH 941 0
DWIDTH 16 0
BBX 15 6 0 8
BITMAP
0300
0100
0100
0100
81FE
7E00
ENDCHAR
STARTCHAR U+2F08
ENCODING 12040
SWIDTH 941 0
DWIDTH 16 0
BBX 15 16 0 -2
BITMAP
0300
0100
0100
0100
0100
0100
0180
0240
0220
0210
0410
0408
0804
1004
2002
C002
ENDCHAR
STARTCHAR U+2F09
ENCODING 12041
SWIDTH 941 0
DWIDTH 16 0
BBX 15 16 0 -2
BITMAP
0CC0
0440
0440
0440
0440
0440
0440
0440
0840
0840
0840
1040
1044
2044
4024
801E
ENDCHAR
STARTCHAR U+2F0A
ENCODING 12042
SWIDTH 941 0
DWIDTH 16 0
BBX 15 16 0 -2
BITMAP
0100
0780
0100
0100
0100
0100
0100
0280
0240
0220
0410
0408
0808
1004
2002
C002
ENDCHAR
STARTCHAR U+2F0B
ENCODING 12043
SWIDTH 941 0
DWIDTH 16 0
BBX 15 16 0 -2
BITMAP
0080
03C0
0080
0C40
0440
0420
0420
0410
0810
0808
0808
1004
1004
2002
4002
8002
ENDCHAR
STARTCHAR U+2F0C
ENCODING 12044
SWIDTH 941 0
DWIDTH 16 0
BBX 15 15 0 -2
BITMAP
C0FE
7F04
4004
4004
4004
4004
4004
4004
4004
4004
4004
4004
4014
400C
4008
ENDCHAR
STARTCHAR U+2F0D
ENCODING 12045
SWIDTH 941 0
DWIDTH 16 0
BBX 15 5 0 9
BITMAP
0004
41FE
7E04
4008
8000
ENDCHAR
STARTCHAR U+2F0E
ENCODING 12046
SWIDTH 941 0
DWIDTH 16 0
BBX 5 15 4 -2
BITMAP
40
20
10
10
00
08
10
10
20
20
C0
20
20
20
20
ENDCHAR
STARTCHAR U+2F0F
ENCODING 12047
SWIDTH 941 0
DWIDTH 16 0
BBX 15 15 0 -2
BITMAP
19E0
0E40
0840
0840
0840
0840
0840
0840
0840
1040
1040
1044
2044
4024
801E
ENDCHAR
STARTCHAR U+2F10
ENCODING 12048
SWIDTH 941 0
DWIDTH 16 0
BBX 14 16 0 -2
BITMAP
C00C
4004
4004
4004
4004
4004
4004
4004
4004
4004
4004
4004
4004
41FC
7E04
4004
ENDCHAR
STARTCHAR U+2F11
ENCODING 12049
SWIDTH 941 0
DWIDTH 16 0
BBX 15 14 0 -2
BITMAP
40FE
3F04
0204
0204
0204
0204
0204
0404
0408
0808
0808
1050
2030
C020
ENDCHAR
STARTCHAR U+2F12
ENCODING 12050
SWIDTH 941 0
DWIDTH 16 0
BBX 14 16 0 -2
BITMAP
0300
0100
0100
0100
41FC
3F08
0108
0108
0208
0208
0208
0410
0410
0890
3060
C040
ENDCHAR
STARTCHAR U+2F13
ENCODING 12051
SWIDTH 941 0
DWIDTH 16 0
BBX 15 16 0 -2
BITMAP
0800
0800
0800
10FE
1F04
2004
2004
4004
8004
0004
0008
0008
0010
0090
0060
0040
ENDCHAR
STARTCHAR U+2F14
ENCODING 12052
SWIDTH 941 0
DWIDTH 16 0
BBX 13 15 1 -2
BITMAP
6000
2010
2020
2040
2080
2300
2C00
3000
E000
2000
2000
2010
2010
1010
0FF8
ENDCHAR
STARTCHAR U+2F15
ENCODING 12053
SWIDTH 941 0
DWIDTH 16 0
BBX 15 15 0 -2
BITMAP
C07C
7F80
4000
4000
4000
4000
4000
4000
4000
4000
4000
4000
40FE
7F00
4000
ENDCHAR
STARTCHAR U+2F16
ENCODING 12054
SWIDTH 941 0
DWIDTH 16 0
BBX 15 14 0 -1
BITMAP
80FE
7F00
2000
2000
2000
2000
2000
2000
2000
2000
2000
2000
1000
0FFC
ENDCHAR
STARTCHAR U+2F17
ENCODING 12055
SWIDTH 941 0
DWIDTH 16 0
BBX 15 16 0 -2
BITMAP
0300
0100
0100
0100
0100
0100
81FE
7F00
0100
0100
0100
0100
0100
0100
0100
0100
ENDCHAR
STARTCHAR U+2F18
ENCODING 12056
SWIDTH 941 0
DWIDTH 16 0
BBX 8 16 5 -2
BITMAP
C0
40
40
40
40
70
4C
42
41
40
40
40
40
40
40
40
ENDCHAR
STARTCHAR U+2F19
ENCODING 12057
SWIDTH 941 0
DWIDTH 16 0
BBX 9 15 3 -2
BITMAP
C780
7900
4100
4100
4100
4100
4100
4100
4900
4600
4200
4000
4000
4000
4000
ENDCHAR
STARTCHAR U+2F1A
ENCODING 12058
SWIDTH 941 0
DWIDTH 16 0
BBX 15 14 0 -1
BITMAP
607E
3F80
2000
2000
2000
2000
2000
2000
2000
2000
2000
4000
4000
8000
ENDCHAR
STARTCHAR U+2F1B
ENCODING 12059
SWIDTH 941 0
DWIDTH 16 0
BBX 15 16 0 -2
BITMAP
0300
0100
0100
0200
0200
0200
0200
0440
0420
0410
0810
0808
107C
1784
F802
0002
ENDCHAR
STARTCHAR U+2F1C
ENCODING 12060
SWIDTH 941 0
DWIDTH 16 0
BBX 15 14 0 -2
BITMAP
20F8
1F10
0820
0420
0240
0140
0080
00C0
0120
0210
0408
0804
3004
C002
ENDCHAR
STARTCHAR U+2F1D
ENCODING 12061
SWIDTH 941 0
DWIDTH 16 0
BBX 13 13 1 -1
BITMAP
C1F8
7E10
4010
4010
4010
4010
4010
4010
4010
4010
43F0
7C10
4010
ENDCHAR
STARTCHAR U+2F1E
ENCODING 12062
SWIDTH 941 0
DWIDTH 16 0
BBX 15 15 0 -2
BITMAP
C0FE
7F04
4004
4004
4004
4004
4004
4004
4004
4004
4004
4004
41FC
7E04
4004
ENDCHAR
STARTCHAR U+2F1F
ENCODING 12063
SWIDTH 941 0
DWIDTH 16 0
BBX 15 15 0 -1
BITMAP
0300
0100
0100
0100
0100
21F8
1F00
0100
0100
0100
0100
0100
0100
81FE
7E00
ENDCHAR
STARTCHAR U+2F20
ENCODING 12064
SWIDTH 941 0
DWIDTH 16 0
BBX 15 15 0 -1
BITMAP
0300
0100
0100
0100
0100
81FE
7F00
0100
0100
0100
0100
0100
0100
21F8
1E00
ENDCHAR
STARTCHAR U+2F21
ENCODING 12065
SWIDTH 941 0
DWIDTH 16 0
BBX 15 16 0 -2
BITMAP
0200
0200
0200
0478
0790
0810
0820
1620
2140
C0C0
00A0
0110
0208
0C04
3002
C002
ENDCHAR
STARTCHAR U+2F22
ENCODING 12066
SWIDTH 941 0
DWIDTH 16 0
BBX 15 16 0 -2
BITMAP
0100
0100
0138
23D0
1A10
2410
4A20
0920
10C0
2040
C0A0
0110
0208
0404
1802
6002
ENDCHAR
STARTCHAR U+2F23
ENCODING 12067
SWIDTH 941 0
DWIDTH 16 0
BBX 14 16 0 -2
BITMAP
0200
0200
027C
0788
0408
0810
1410
6220
0120
0140
0080
0100
0200
0400
1800
E000
ENDCHAR
STARTCHAR U+2F24
ENCODING 12068
SWIDTH 941 0
DWIDTH 16 0
BBX 15 16 0 -2
BITMAP
0300
0100
0100
0100
81FE
7F00
0280
0240
0220
0410
0410
0808
0804
1004
2002
C002
ENDCHAR
STARTCHAR U+2F25
ENCODING 12069
SWIDTH 941 0
DWIDTH 16 0
BBX 15 16 0 -2
BITMAP
0100
0100
0100
0200
82FE
7F20
0420
0420
0840
0E40
1180
00C0
0120
0210
0C08
7004
ENDCHAR
STARTCHAR U+2F26
ENCODING 12070
SWIDTH 941 0
DWIDTH 16 0
BBX 15 15 0 -2
BITMAP
10F0
0F20
0040
0280
0100
0100
81FE
7E80
0080
0080
0080
0080
0280
0100
0100
ENDCHAR
STARTCHAR U+2F27
ENCODING 12071
SWIDTH 941 0
DWIDTH 16 0
BBX 15 7 0 7
BITMAP
0300
0100
0104
41FE
7E04
4008
8000
ENDCHAR
STARTCHAR U+2F28
ENCODING 12072
SWIDTH 941 0
DWIDTH 16 0
BBX 15 16 0 -2
BITMAP
0060
0020
0020
0020
80FE
7F20
1020
0820
0820
0420
0420
0020
0020
00A0
0060
0040
ENDCHAR
STARTCHAR U+2F29
ENCODING 12073
SWIDTH 941 0
DWIDTH 16 0
BBX 15 16 0 -2
BITMAP
0300
0100
0100
0100
1920
0910
0908
1104
1104
2102
2102
4100
8100
0500
0300
0200
ENDCHAR
STARTCHAR U+2F2A
ENCODING 12074
SWIDTH 941 0
DWIDTH 16 0
BBX 15 16 0 -2
BITMAP
0300
0100
0100
0100
81FE
7F00
0100
02C0
0280
0280
0480
0480
0884
1084
2044
C03E
ENDCHAR
STARTCHAR U+2F2B
ENCODING 12075
SWIDTH 941 0
DWIDTH 16 0
BBX 14 14 0 -1
BITMAP
30FC
1F08
1008
1008
10F8
1F08
1000
1000
1000
2000
2000
2000
4000
8000
ENDCHAR
STARTCHAR U+2F2C
ENCODING 12076
SWIDTH 941 0
DWIDTH 16 0
BBX 12 16 1 -2
BITMAP
0600
0200
C230
4210
4210
4210
4210
4210
43F0
7E10
4210
0400
0400
0800
3000
C000
ENDCHAR
STARTCHAR U+2F2D
ENCODING 12077
SWIDTH 941 0
DWIDTH 16 0
BBX 14 16 0 -2
BITMAP
0300
0100
0100
010C
C104
4104
4104
4104
4104
4104
4104
4104
4104
41FC
7E04
4004
ENDCHAR
STARTCHAR U+2F2E
ENCODING 12078
SWIDTH 941 0
DWIDTH 16 0
BBX 14 16 0 -2
BITMAP
1998
0888
0888
1110
1110
2220
CCC0
4440
2220
1110
1110
0888
0888
0444
0444
0444
ENDCHAR
STARTCHAR U+2F2F
ENCODING 12079
SWIDTH 941 0
DWIDTH 16 0
BBX 15 13 0 -1
BITMAP
40FC
3F00
0100
0100
0100
0100
0100
0100
0100
0100
0100
81FE
7E00
ENDCHAR
STARTCHAR U+2F30
ENCODING 12080
SWIDTH 941 0
DWIDTH 16 0
BBX 14 15 1 -2
BITMAP
81F0
7E20
0020
0020
0020
C3E0
7C20
4020
4000
4000
4000
4008
4008
2008
1FFC
ENDCHAR
STARTCHAR U+2F31
ENCODING 12081
SWIDTH 941 0
DWIDTH 16 0
BBX 13 16 1 -2
BITMAP
0600
0200
0200
C3F8
7E10
4210
4210
4210
4210
4210
4250
4230
4220
0200
0200
0200
ENDCHAR
STARTCHAR U+2F32
ENCODING 12082
SWIDTH 941 0
DWIDTH 16 0
BBX 15 15 0 -2
BITMAP
20F8
1F00
0100
0100
0100
0100
81FE
7F00
0100
0100
0100
0100
0100
0100
0100
ENDCHAR
STARTCHAR U+2F33
ENCODING 12083
SWIDTH 941 0
DWIDTH 16 0
BBX 15 15 0 -1
BITMAP
0100
0100
0200
0220
0420
0440
0840
0F80
3120
0110
0208
0434
05C4
1E02
E002
ENDCHAR
STARTCHAR U+2F34
ENCODING 12084
SWIDTH 941 0
DWIDTH 16 0
BBX 15 15 0 -1
BITMAP
0180
0080
60FE
3F00
2000
2000
2000
2000
2000
2000
2000
2000
4000
4000
8000
ENDCHAR
STARTCHAR U+2F35
ENCODING 12085
SWIDTH 941 0
DWIDTH 16 0
BBX 15 15 0 -2
BITMAP
8800
7C00
0800
1000
1000
2E00
7400
8800
8800
5000
2000
3000
4C00
8380
007E
ENDCHAR
STARTCHAR U+2F36
ENCODING 12086
SWIDTH 941 0
DWIDTH 16 0
BBX 15 16 0 -2
BITMAP
0C60
0420
0420
0420
0420
84FE
7F20
0420
0420
0420
0420
0820
0820
1020
2020
C020
ENDCHAR
STARTCHAR U+2F37
ENCODING 12087
SWIDTH 941 0
DWIDTH 16 0
BBX 15 16 0 -2
BITMAP
0600
0260
0210
0208
83FE
7E00
0200
0100
0100
0100
0080
0080
0044
0024
001C
0006
ENDCHAR
STARTCHAR U+2F38
ENCODING 12088
SWIDTH 941 0
DWIDTH 16 0
BBX 14 15 1 -2
BITMAP
81F8
7E10
0010
01F0
3E10
2010
2000
21FC
7E08
C008
0008
0010
0090
0060
0040
ENDCHAR
STARTCHAR U+2F39
ENCODING 12089
SWIDTH 941 0
DWIDTH 16 0
BBX 14 13 1 -1
BITMAP
83FC
7C08
0008
0008
0008
43F8
3C08
0008
0008
0008
83F8
7C08
0008
ENDCHAR
STARTCHAR U+2F3A
ENCODING 12090
SWIDTH 941 0
DWIDTH 16 0
BBX 13 16 1 -2
BITMAP
0040
0080
0100
0220
0420
1840
6080
0108
0608
1810
6020
0040
0180
0600
1800
E000
ENDCHAR
STARTCHAR U+2F3B
ENCODING 12091
SWIDTH 941 0
DWIDTH 16 0
BBX 9 16 2 -2
BITMAP
0200
0200
0400
0880
1080
6100
0200
0400
0C00
3400
C400
0400
0400
0400
0400
0400
ENDCHAR
STARTCHAR U+2F3C
ENCODING 12092
SWIDTH 941 0
DWIDTH 16 0
BBX 15 14 0 -1
BITMAP
0100
0080
0040
0640
1248
1204
1202
1202
1202
2200
2108
4108
80C8
003C
ENDCHAR
STARTCHAR U+2F3D
ENCODING 12093
SWIDTH 941 0
DWIDTH 16 0
BBX 15 16 0 -2
BITMAP
0300
0130
0108
0104
81FE
7F00
0110
0110
00A0
00A0
0040
00C0
0324
0C14
700C
0006
ENDCHAR
STARTCHAR U+2F3E
ENCODING 12094
SWIDTH 941 0
DWIDTH 16 0
BBX 13 16 0 -2
BITMAP
0030
00C0
3300
1C00
11F8
1E10
1010
1010
11F0
1E10
1000
1000
2000
2000
4000
8000
ENDCHAR
STARTCHAR U+2F3F
ENCODING 12095
SWIDTH 941 0
DWIDTH 16 0
BBX 15 16 0 -2
BITMAP
0030
00C0
0300
3D00
0100
41FC
3E80
0080
81FE
7E80
0080
0080
0080
0280
0100
0100
ENDCHAR
STARTCHAR U+2F40
ENCODING 12096
SWIDTH 941 0
DWIDTH 16 0
BBX 15 16 0 -2
BITMAP
0300
0100
81FE
7F00
0100
0100
21F8
1F10
0220
0120
00C0
00A0
0110
0608
1804
E002
ENDCHAR
STARTCHAR U+2F41
ENCODING 12097
SWIDTH 941 0
DWIDTH 16 0
BBX 15 16 0 -2
BITMAP
0300
0100
017C
0180
0100
21F8
1F08
0010
0610
01A0
0040
00C0
0130
0608
1804
E002
ENDCHAR
STARTCHAR U+2F42
ENCODING 12098
SWIDTH 941 0
DWIDTH 16 0
BBX 15 16 0 -2
BITMAP
0300
0100
0100
81FE
7F20
0820
0420
0240
0140
0080
0140
0220
0410
0808
3004
C002
ENDCHAR
STARTCHAR U+2F43
ENCODING 12099
SWIDTH 941 0
DWIDTH 16 0
BBX 15 16 0 -2
BITMAP
1800
0966
4F3A
3922
0A24
8BA8
7C24
0824
17A2
3922
E732
392C
2128
2720
3920
2120
ENDCHAR
STARTCHAR U+2F44
ENCODING 12100
SWIDTH 941 0
DWIDTH 16 0
BBX 15 16 0 -2
BITMAP
0018
0060
3380
1C00
1000
1000
107E
1FC0
1040
1040
1040
2040
2040
4040
8040
0040
ENDCHAR
STARTCHAR U+2F45
ENCODING 12101
SWIDTH 941 0
DWIDTH 16 0
BBX 15 16 0 -2
BITMAP
0300
0100
0100
81FE
7F00
0400
0400
04F0
0720
0420
0420
0820
0820
1140
20C0
C080
ENDCHAR
STARTCHAR U+2F46
ENCODING 12102
SWIDTH 941 0
DWIDTH 16 0
BBX 15 15 0 -2
BITMAP
40FC
3F00
0100
0100
0100
81FE
7F00
01C0
0280
0280
0480
0484
0884
1044
E03E
ENDCHAR
STARTCHAR U+2F47
ENCODING 12103
SWIDTH 941 0
DWIDTH 16 0
BBX 12 13 2 -1
BITMAP
C3F0
7C20
4020
4020
4020
43E0
7C20
4020
4020
4020
43E0
7C20
4020
ENDCHAR
STARTCHAR U+2F48
ENCODING 12104
SWIDTH 941 0
DWIDTH 16 0
BBX 13 15 1 -2
BITMAP
C1F8
7E10
4010
4010
4010
4010
4790
7810
4010
4010
4010
4010
43F0
7C10
4010
ENDCHAR
STARTCHAR U+2F49
ENCODING 12105
SWIDTH 941 0
DWIDTH 16 0
BBX 12 15 1 -2
BITMAP
31F0
1E20
1020
11E0
1E20
1020
1020
11E0
1E20
1020
1020
2020
20A0
4060
8040
ENDCHAR
STARTCHAR U+2F4A
ENCODING 12106
SWIDTH 941 0
DWIDTH 16 0
BBX 15 16 0 -2
BITMAP
0300
0100
0100
0100
81FE
7F00
0380
0540
0520
0910
0908
1104
2102
C100
0100
0100
ENDCHAR
STARTCHAR U+2F4B
ENCODING 12107
SWIDTH 941 0
DWIDTH 16 0
BBX 15 16 0 -2
BITMAP
0800
0800
0800
10FE
1F04
2008
4210
8300
0280
0240
0420
0410
0808
1004
2004
C002
ENDCHAR
STARTCHAR U+2F4C
ENCODING 12108
SWIDTH 941 0
DWIDTH 16 0
BBX 15 15 0 -1
BITMAP
0300
0100
0100
0100
3100
1100
1178
1180
1100
1100
1100
1100
1100
91FE
7E00
ENDCHAR
STARTCHAR U+2F4D
ENCODING 12109
SWIDTH 941 0
DWIDTH 16 0
BBX 15 15 0 -2
BITMAP
80FE
7F00
0400
0400
08F8
0F10
1020
2820
C440
0280
0100
0200
0C00
3000
C000
ENDCHAR
STARTCHAR U+2F4E
ENCODING 12110
SWIDTH 941 0
DWIDTH 16 0
BBX 15 15 0 -2
BITMAP
0DE0
0640
0440
0840
0840
103E
31E0
CE20
0020
0340
00C0
0130
0608
1804
E002
ENDCHAR
STARTCHAR U+2F4F
ENCODING 12111
SWIDTH 941 0
DWIDTH 16 0
BBX 15 15 0 -2
BITMAP
187C
0F88
0888
0888
0888
88FE
7F90
1110
1110
1210
12FE
1F10
34A0
0860
3040
ENDCHAR
STARTCHAR U+2F50
ENCODING 12112
SWIDTH 941 0
DWIDTH 16 0
BBX 15 16 0 -2
BITMAP
6180
2080
2080
2080
2084
2E98
30E0
2080
2080
2080
2080
2380
2C84
3084
C084
007E
ENDCHAR
STARTCHAR U+2F51
ENCODING 12113
SWIDTH 941 0
DWIDTH 16 0
BBX 15 16 0 -2
BITMAP
0030
00C0
0700
3A00
0200
42F8
3F00
0200
0200
82FC
7F00
0200
0204
0204
0104
00FE
ENDCHAR
STARTCHAR U+2F52
ENCODING 12114
SWIDTH 941 0
DWIDTH 16 0
BBX 15 16 0 -2
BITMAP
0030
00C0
3300
1D00
1100
1100
117E
1F80
1080
1080
1040
1040
11A4
1614
180C
E006
ENDCHAR
STARTCHAR U+2F53
ENCODING 12115
SWIDTH 941 0
DWIDTH 16 0
BBX 15 16 0 -2
BITMAP
0800
0800
09FC
1E00
11F8
3E00
4000
C1F8
3E10
0010
0010
0012
000A
000C
0006
0002
ENDCHAR
STARTCHAR U+2F54
ENCODING 12116
SWIDTH 941 0
DWIDTH 16 0
BBX 15 16 0 -2
BITMAP
0300
0100
0104
0104
9D18
65A0
0540
0920
0910
1108
1108
2104
4102
8502
0300
0200
ENDCHAR
STARTCHAR U+2F55
ENCODING 12117
SWIDTH 941 0
DWIDTH 16 0
BBX 15 16 0 -2
BITMAP
0300
0100
0108
1118
1120
1140
2100
2100
4280
0240
0420
0410
0808
1004
2002
C002
ENDCHAR
STARTCHAR U+2F56
ENCODING 12118
SWIDTH 941 0
DWIDTH 16 0
BBX 15 16 0 -2
BITMAP
0018
00E0
3720
1820
1310
1110
1110
1108
1108
1108
2104
2104
2104
4102
8102
0102
ENDCHAR
STARTCHAR U+2F57
ENCODING 12119
SWIDTH 941 0
DWIDTH 16 0
BBX 15 16 0 -2
BITMAP
0200
02C0
0430
0408
0814
1412
2222
4120
80C0
0040
00A0
0110
0208
0C04
3002
C002
ENDCHAR
STARTCHAR U+2F58
ENCODING 12120
SWIDTH 941 0
DWIDTH 16 0
BBX 15 16 0 -2
BITMAP
0020
1820
06C0
0180
0260
0C10
7008
0020
0620
0140
00C0
0120
0210
0408
1804
E002
ENDCHAR
STARTCHAR U+2F59
ENCODING 12121
SWIDTH 941 0
DWIDTH 16 0
BBX 11 16 1 -2
BITMAP
1860
0820
0820
0820
09E0
0E20
0820
83E0
7C20
0820
0820
0820
1020
1020
2020
C020
ENDCHAR
STARTCHAR U+2F5A
ENCODING 12122
SWIDTH 941 0
DWIDTH 16 0
BBX 15 16 0 -2
BITMAP
0180
3080
1080
1080
10FE
1F80
1000
1000
11E0
1E40
1040
2040
2040
4040
8040
0040
ENDCHAR
STARTCHAR U+2F5B
ENCODING 12123
SWIDTH 941 0
DWIDTH 16 0
BBX 15 15 0 -2
BITMAP
40FC
3F40
0840
0840
1040
11FE
3EC0
2140
0240
0440
0840
3040
C140
00C0
0080
ENDCHAR
STARTCHAR U+2F5C
ENCODING 12124
SWIDTH 941 0
DWIDTH 16 0
BBX 15 16 0 -2
BITMAP
0300
1100
1100
11FC
1F00
2100
2100
4100
81FE
7F00
0100
0100
0100
0100
0100
0100
ENDCHAR
STARTCHAR U+2F5D
ENCODING 12125
SWIDTH 941 0
DWIDTH 16 0
BBX 15 16 0 -2
BITMAP
0330
0108
0108
0100
81FE
7F00
0180
0140
0220
0220
0410
0408
0804
1004
2002
C002
ENDCHAR
STARTCHAR U+2F5E
ENCODING 12126
SWIDTH 941 0
DWIDTH 16 0
BBX 15 16 0 -2
BITMAP
0300
0100
0100
81FE
7F00
0220
0420
0440
0BC0
1C80
0120
0110
0208
04F8
0F04
7004
ENDCHAR
STARTCHAR U+2F5F
ENCODING 12127
SWIDTH 941 0
DWIDTH 16 0
BBX 15 14 0 -1
BITMAP
40FC
3F00
0100
0100
0100
21F8
1F00
0120
0110
0108
0108
0100
81FE
7E00
ENDCHAR
STARTCHAR U+2F60
ENCODING 12128
SWIDTH 941 0
DWIDTH 16 0
BBX 15 16 0 -2
BITMAP
0038
30C0
1F20
1120
1110
1110
1110
1108
1108
1108
2144
2124
2164
4392
9C12
0002
ENDCHAR
STARTCHAR U+2F61
ENCODING 12129
SWIDTH 941 0
DWIDTH 16 0
BBX 15 15 0 -2
BITMAP
80FE
7F00
0800
09E0
0E40
0A40
0940
0940
0940
1040
10C4
1744
1844
E024
001E
ENDCHAR
STARTCHAR U+2F62
ENCODING 12130
SWIDTH 941 0
DWIDTH 16 0
BBX 15 16 0 -2
BITMAP
1860
0820
0820
0820
89FE
7E20
0820
0820
09E0
0E20
0820
0820
0820
09E0
0E20
0820
ENDCHAR
STARTCHAR U+2F63
ENCODING 12131
SWIDTH 941 0
DWIDTH 16 0
BBX 15 15 0 -1
BITMAP
0300
1900
0900
09F8
1F00
1100
2100
4100
A1F8
1F00
0100
0100
0100
81FE
7E00
ENDCHAR
STARTCHAR U+2F64
ENCODING 12132
SWIDTH 941 0
DWIDTH 16 0
BBX 14 15 0 -2
BITMAP
30FC
1F08
1108
11F8
1F08
1108
1108
11F8
1F08
1108
1108
2108
2128
4118
8010
ENDCHAR
STARTCHAR U+2F65
ENCODING 12133
SWIDTH 941 0
DWIDTH 16 0
BBX 14 14 1 -2
BITMAP
C1FC
7E08
4208
4208
4208
43F8
7E08
4208
4208
4208
4208
43F8
7C08
4008
ENDCHAR
STARTCHAR U+2F66
ENCODING 12134
SWIDTH 941 0
DWIDTH 16 0
BBX 15 15 0 -2
BITMAP
80FC
7F08
0110
0100
1900
0978
0980
0900
0900
0900
1500
1300
2100
40C0
803E
ENDCHAR
STARTCHAR U+2F67
ENCODING 12135
SWIDTH 941 0
DWIDTH 16 0
BBX 15 15 0 -1
BITMAP
0180
0080
30FE
9F80
5000
5000
1000
3000
D000
1000
1000
2000
2000
4000
8000
ENDCHAR
STARTCHAR U+2F68
ENCODING 12136
SWIDTH 941 0
DWIDTH 16 0
BBX 15 8 0 3
BITMAP
1380
0C90
0150
2224
1414
0808
3004
C002
ENDCHAR
STARTCHAR U+2F69
ENCODING 12137
SWIDTH 941 0
DWIDTH 16 0
BBX 13 16 1 -2
BITMAP
0200
0200
0400
C9F8
7E10
4010
4010
4010
43F0
7C10
4010
4010
4010
43F0
7C10
4010
ENDCHAR
STARTCHAR U+2F6A
ENCODING 12138
SWIDTH 941 0
DWIDTH 16 0
BBX 15 16 0 -2
BITMAP
0300
0100
0100
31FC
1F08
1110
1100
11F0
1E20
1220
2140
20C0
4130
8208
0C04
3002
ENDCHAR
STARTCHAR U+2F6B
ENCODING 12139
SWIDTH 941 0
DWIDTH 16 0
BBX 15 13 0 -1
BITMAP
30FC
1F48
1248
1248
1248
1248
1248
1248
1248
1248
1248
92FE
7F00
ENDCHAR
STARTCHAR U+2F6C
ENCODING 12140
SWIDTH 941 0
DWIDTH 16 0
BBX 11 15 2 -2
BITMAP
C7E0
7840
4040
4040
47C0
7840
4040
4040
47C0
7840
4040
4040
47C0
7840
4040
ENDCHAR
STARTCHAR U+2F6D
ENCODING 12141
SWIDTH 941 0
DWIDTH 16 0
BBX 15 15 0 -2
BITMAP
1078
0F90
0220
0140
0080
81FE
7E88
0190
02A0
04C0
0880
3080
C280
0180
0100
ENDCHAR
STARTCHAR U+2F6E
ENCODING 12142
SWIDTH 941 0
DWIDTH 16 0
BBX 15 16 0 -2
BITMAP
0800
0800
08F8
1F00
1100
2100
4100
81FE
7F00
0280
0440
0420
0810
1008
2004
C002
ENDCHAR
STARTCHAR U+2F6F
ENCODING 12143
SWIDTH 941 0
DWIDTH 16 0
BBX 15 15 0 -2
BITMAP
81FE
7E00
0200
0200
0400
0400
08F8
1F10
2810
C810
0810
0810
08F0
0F10
0810
ENDCHAR
STARTCHAR U+2F70
ENCODING 12144
SWIDTH 941 0
DWIDTH 16 0
BBX 15 15 0 -2
BITMAP
20F8
1F00
0000
0000
80FE
7F00
0100
0110
1108
1104
2104
2102
4502
8300
0200
ENDCHAR
STARTCHAR U+2F71
ENCODING 12145
SWIDTH 941 0
DWIDTH 16 0
BBX 14 16 1 -2
BITMAP
0600
0200
0200
C3FC
7E08
4208
4208
4488
4448
48C8
4B28
5C28
4008
4028
4018
4010
ENDCHAR
STARTCHAR U+2F72
ENCODING 12146
SWIDTH 941 0
DWIDTH 16 0
BBX 15 16 0 -2
BITMAP
0030
00C0
0300
3D00
0100
81FE
7F80
0540
0520
0910
0908
1108
2104
4102
8102
0100
ENDCHAR
STARTCHAR U+2F73
ENCODING 12147
SWIDTH 941 0
DWIDTH 16 0
BBX 15 16 0 -2
BITMAP
0300
0100
0100
41FE
7E04
4008
8040
04C0
0420
0410
0810
0808
1004
2004
4002
8002
ENDCHAR
STARTCHAR U+2F74
ENCODING 12148
SWIDTH 941 0
DWIDTH 16 0
BBX 15 15 0 -1
BITMAP
0300
0100
0100
21F8
1E20
0020
1020
0820
0840
0440
0440
0480
0480
81FE
7E00
ENDCHAR
STARTCHAR U+2F75
ENCODING 12149
SWIDTH 941 0
DWIDTH 16 0
BBX 15 16 0 -2
BITMAP
1040
1040
1040
169E
38F0
2910
4A10
8C10
0810
0810
0810
0810
0810
0850
0830
0820
ENDCHAR
STARTCHAR U+2F76
ENCODING 12150
SWIDTH 941 0
DWIDTH 16 0
BBX 15 16 0 -2
BITMAP
0308
2108
1110
0920
0940
81FE
7F80
0540
0520
0910
0908
1104
2104
C102
0100
0100
ENDCHAR
STARTCHAR U+2F77
ENCODING 12151
SWIDTH 941 0
DWIDTH 16 0
BBX 14 16 1 -2
BITMAP
0400
0440
0840
0880
1720
7910
0208
0478
0F84
F204
02C0
1220
1210
2A08
4604
8400
ENDCHAR
STARTCHAR U+2F78
ENCODING 12152
SWIDTH 941 0
DWIDTH 16 0
BBX 15 16 0 -2
BITMAP
1000
1000
10F8
1F00
2100
2100
4100
81FE
7F00
0100
0108
2108
2108
21F8
3E08
2008
ENDCHAR
STARTCHAR U+2F79
ENCODING 12153
SWIDTH 941 0
DWIDTH 16 0
BBX 15 15 0 -2
BITMAP
C0FE
7F22
4222
4222
62A2
5A62
4632
422A
452A
4546
4842
5082
608A
4106
4004
ENDCHAR
STARTCHAR U+2F7A
ENCODING 12154
SWIDTH 941 0
DWIDTH 16 0
BBX 15 16 0 -2
BITMAP
0820
0420
0240
42FC
3F00
0100
21F8
1F00
0100
0100
81FE
7F00
0100
0100
0100
0100
ENDCHAR
STARTCHAR U+2F7B
ENCODING 12155
SWIDTH 941 0
DWIDTH 16 0
BBX 15 15 0 -2
BITMAP
8F1E
72E4
0204
4284
2244
1224
0204
0A14
1224
A344
4284
4284
0A14
060C
0408
ENDCHAR
STARTCHAR U+2F7C
ENCODING 12156
SWIDTH 941 0
DWIDTH 16 0
BBX 15 16 0 -2
BITMAP
0600
0210
0210
23E0
1E20
0240
83FE
7E80
0300
0230
0CC0
3700
C408
0408
0408
03FC
ENDCHAR
STARTCHAR U+2F7D
ENCODING 12157
SWIDTH 941 0
DWIDTH 16 0
BBX 15 15 0 -2
BITMAP
80FE
7F00
0200
0400
C5FE
7E44
4444
4444
4444
4444
4444
4444
4454
444C
4008
ENDCHAR
STARTCHAR U+2F7E
ENCODING 12158
SWIDTH 941 0
DWIDTH 16 0
BBX 15 16 0 -2
BITMAP
0300
0100
41FC
3F00
21F8
1F00
0100
81FE
7F00
0380
0560
0510
0908
3104
C102
0100
ENDCHAR
STARTCHAR U+2F7F
ENCODING 12159
SWIDTH 941 0
DWIDTH 16 0
BBX 15 15 0 -2
BITMAP
80FE
7F20
0820
08E0
0F20
0820
08E0
0F20
0820
082E
08F0
0F20
7820
0020
0020
ENDCHAR
STARTCHAR U+2F80
ENCODING 12160
SWIDTH 941 0
DWIDTH 16 0
BBX 15 16 0 -2
BITMAP
0300
0100
21F8
1F10
81FE
7F10
21F0
1F00
41F8
3F00
0100
81FE
7F00
0100
0100
0100
ENDCHAR
STARTCHAR U+2F81
ENCODING 12161
SWIDTH 941 0
DWIDTH 16 0
BBX 14 16 1 -2
BITMAP
0300
0100
C1FC
7E08
4208
4308
44C8
4A28
5228
4208
4588
4448
4848
5028
4018
4010
ENDCHAR
STARTCHAR U+2F82
ENCODING 12162
SWIDTH 941 0
DWIDTH 16 0
BBX 14 15 1 -2
BITMAP
C1F8
7E00
4200
4200
43F0
7C20
4020
4020
43E0
7E20
4200
4200
43FC
7C00
4000
ENDCHAR
STARTCHAR U+2F83
ENCODING 12163
SWIDTH 941 0
DWIDTH 16 0
BBX 11 16 2 -2
BITMAP
0800
0800
D7E0
7840
4040
47C0
7840
4040
4040
47C0
7840
4040
4040
47C0
7840
4040
ENDCHAR
STARTCHAR U+2F84
ENCODING 12164
SWIDTH 941 0
DWIDTH 16 0
BBX 15 14 0 -1
BITMAP
81FE
7E20
0210
0478
0784
7804
0300
0100
21F8
1F00
0100
0100
81FE
7E00
ENDCHAR
STARTCHAR U+2F85
ENCODING 12165
SWIDTH 941 0
DWIDTH 16 0
BBX 14 16 1 -2
BITMAP
0300
0400
08FC
D008
6008
4008
4008
40F8
7808
4008
4008
4008
4008
43F8
7C08
4008
ENDCHAR
STARTCHAR U+2F86
ENCODING 12166
SWIDTH 941 0
DWIDTH 16 0
BBX 15 16 0 -2
BITMAP
0018
0060
0380
7D00
0100
81FE
7F00
0100
0100
31F8
1E10
1010
1010
11F0
1E10
1010
ENDCHAR
STARTCHAR U+2F87
ENCODING 12167
SWIDTH 941 0
DWIDTH 16 0
BBX 15 16 0 -2
BITMAP
1030
1010
1010
1610
1B9C
22F0
2250
5450
9490
089E
09F0
1110
2010
4010
8010
0010
ENDCHAR
STARTCHAR U+2F88
ENCODING 12168
SWIDTH 941 0
DWIDTH 16 0
BBX 15 16 0 -2
BITMAP
0100
0100
1AF8
0F10
0910
0890
0890
89FE
7E10
0A10
0910
0910
1110
1050
2030
4020
ENDCHAR
STARTCHAR U+2F89
ENCODING 12169
SWIDTH 941 0
DWIDTH 16 0
BBX 14 15 1 -2
BITMAP
33E0
1C40
1040
13C0
1C40
1040
13D0
1E50
1120
1080
1040
1320
1C10
3008
C004
ENDCHAR
STARTCHAR U+2F8A
ENCODING 12170
SWIDTH 941 0
DWIDTH 16 0
BBX 15 16 0 -2
BITMAP
0400
05E0
0E40
0880
11FC
3F08
5108
9108
11F8
1F08
1000
1000
1004
1004
0804
07FE
ENDCHAR
STARTCHAR U+2F8B
ENCODING 12171
SWIDTH 941 0
DWIDTH 16 0
BBX 15 16 0 -2
BITMAP
3030
1010
1010
9696
9292
9292
9292
9292
9E9E
F2F2
9292
1010
2010
2010
4010
8010
ENDCHAR
STARTCHAR U+2F8C
ENCODING 12172
SWIDTH 941 0
DWIDTH 16 0
BBX 15 16 0 -2
BITMAP
0300
013C
01C0
0100
61FE
3F04
2008
2300
2100
31F8
2F00
2100
4104
4104
8084
007E
ENDCHAR
STARTCHAR U+2F8D
ENCODING 12173
SWIDTH 941 0
DWIDTH 16 0
BBX 15 16 0 -2
BITMAP
0300
0100
0100
61FC
3F08
2108
2108
21F8
3F08
2120
0110
0108
0178
0784
F802
0002
ENDCHAR
STARTCHAR U+2F8E
ENCODING 12174
SWIDTH 941 0
DWIDTH 16 0
BBX 15 15 0 -1
BITMAP
0100
0100
0200
0200
64FC
3F48
2448
2448
2448
2448
2448
2448
2448
A5FE
7E00
ENDCHAR
STARTCHAR U+2F8F
ENCODING 12175
SWIDTH 941 0
DWIDTH 16 0
BBX 15 16 0 -2
BITMAP
1000
123C
21C0
4800
8800
143E
13D0
3010
5010
9010
1010
1010
1010
1050
1030
1020
ENDCHAR
STARTCHAR U+2F90
ENCODING 12176
SWIDTH 941 0
DWIDTH 16 0
BBX 15 16 0 -2
BITMAP
0300
0100
0100
81FE
7F00
0208
0508
0890
1860
2820
C810
0888
0908
0A04
0C02
7002
ENDCHAR
STARTCHAR U+2F91
ENCODING 12177
SWIDTH 941 0
DWIDTH 16 0
BBX 15 15 0 -2
BITMAP
80FE
7F40
0440
0440
C5FE
7E44
4444
4444
4444
45C4
4644
4444
4004
4004
4004
ENDCHAR
STARTCHAR U+2F92
ENCODING 12178
SWIDTH 941 0
DWIDTH 16 0
BBX 15 15 0 -2
BITMAP
19F0
0E20
09E0
0E20
0820
09E0
0E20
0820
09E0
0EA0
0480
0484
0884
3084
C07E
ENDCHAR
STARTCHAR U+2F93
ENCODING 12179
SWIDTH 941 0
DWIDTH 16 0
BBX 13 16 1 -2
BITMAP
0800
09C0
0E80
1100
31F8
5F10
91F0
1F10
1110
11F0
1F10
1110
2110
2150
4030
8020
ENDCHAR
STARTCHAR U+2F94
ENCODING 12180
SWIDTH 941 0
DWIDTH 16 0
BBX 15 16 0 -2
BITMAP
0300
0100
81FE
7E00
0000
11F0
0E00
11F0
0E00
0000
31F8
1E10
1010
11F0
1E10
1010
ENDCHAR
STARTCHAR U+2F95
ENCODING 12181
SWIDTH 941 0
DWIDTH 16 0
BBX 15 16 0 -2
BITMAP
0860
0810
1108
2184
4244
0420
0810
1008
29F4
CE22
0820
0820
0820
08E0
0F20
0820
ENDCHAR
STARTCHAR U+2F96
ENCODING 12182
SWIDTH 941 0
DWIDTH 16 0
BBX 15 14 0 -1
BITMAP
41FC
3E00
0000
19F0
0E20
0820
0820
09E0
0E20
0020
0840
0440
85FE
7E00
ENDCHAR
STARTCHAR U+2F97
ENCODING 12183
SWIDTH 941 0
DWIDTH 16 0
BBX 15 15 0 -2
BITMAP
80FE
7F00
0404
0A04
3108
C310
0CC0
31A0
C290
0488
0884
3082
C502
0300
0200
ENDCHAR
STARTCHAR U+2F98
ENCODING 12184
SWIDTH 941 0
DWIDTH 16 0
BBX 11 16 2 -2
BITMAP
0080
0100
0680
1860
6480
0300
0C80
3180
C240
0440
18C0
E140
0640
1A80
E180
0100
ENDCHAR
STARTCHAR U+2F99
ENCODING 12185
SWIDTH 941 0
DWIDTH 16 0
BBX 15 15 0 -2
BITMAP
18F8
0F10
0810
08F0
0F10
0810
08F0
0F10
0810
08F0
0F50
0A30
0408
1804
E002
ENDCHAR
STARTCHAR U+2F9A
ENCODING 12186
SWIDTH 941 0
DWIDTH 16 0
BBX 15 16 0 -2
BITMAP
0300
0100
21F8
1F00
0100
0100
81FE
7F40
1450
1448
2448
4444
8844
0940
10C0
6080
ENDCHAR
STARTCHAR U+2F9B
ENCODING 12187
SWIDTH 941 0
DWIDTH 16 0
BBX 15 16 0 -2
BITMAP
0300
0100
41FC
3F00
0100
0100
81FE
7F00
0100
1900
09F8
0900
1500
1300
20C0
C03E
ENDCHAR
STARTCHAR U+2F9C
ENCODING 12188
SWIDTH 941 0
DWIDTH 16 0
BBX 15 15 0 -2
BITMAP
19F0
0E20
0820
0820
09E0
0F20
0900
0100
1978
0980
0900
1500
1300
20C0
C03E
ENDCHAR
STARTCHAR U+2F9D
ENCODING 12189
SWIDTH 941 0
DWIDTH 16 0
BBX 14 16 1 -2
BITMAP
0200
37E0
1C40
1040
13C4
1C44
13C8
1C50
1050
93E0
7C40
01C0
0640
1940
E0C0
0080
ENDCHAR
STARTCHAR U+2F9E
ENCODING 12190
SWIDTH 941 0
DWIDTH 16 0
BBX 15 16 0 -2
BITMAP
0300
0100
41FC
3F00
11F8
1F10
11F0
1F10
1110
11F0
1F10
81FE
7F00
0100
0100
0100
ENDCHAR
STARTCHAR U+2F9F
ENCODING 12191
SWIDTH 941 0
DWIDTH 16 0
BBX 15 16 0 -2
BITMAP
0300
0100
41FC
3F20
0840
0440
84FE
7F00
0100
0100
41FC
3F00
0100
0100
0100
0100
ENDCHAR
STARTCHAR U+2FA0
ENCODING 12192
SWIDTH 941 0
DWIDTH 16 0
BBX 15 15 0 -2
BITMAP
60FC
3F00
28F8
2700
2000
20FC
3F08
2508
2490
2450
2420
4410
4588
8604
3802
ENDCHAR
STARTCHAR U+2FA1
ENCODING 12193
SWIDTH 941 0
DWIDTH 16 0
BBX 14 16 1 -2
BITMAP
0040
0080
0320
0C40
7190
0620
78C0
0300
FC00
0200
32F0
1300
1200
2A00
4600
81FC
ENDCHAR
STARTCHAR U+2FA2
ENCODING 12194
SWIDTH 941 0
DWIDTH 16 0
BBX 14 15 1 -2
BITMAP
19E0
0E40
0840
09C0
0E00
C1F8
7E10
4210
43F0
7C10
4000
4008
4008
2008
1FFC
ENDCHAR
STARTCHAR U+2FA3
ENCODING 12195
SWIDTH 941 0
DWIDTH 16 0
BBX 15 15 0 -2
BITMAP
81FE
7E80
0480
0480
65FC
3E88
2488
2478
2808
31F8
3E08
2008
21F8
3E08
2008
ENDCHAR
STARTCHAR U+2FA4
ENCODING 12196
SWIDTH 941 0
DWIDTH 16 0
BBX 15 16 0 -2
BITMAP
0038
01C8
3F08
1110
0910
0920
81FE
7F00
0380
0540
0520
0910
1108
2104
C102
0100
ENDCHAR
STARTCHAR U+2FA5
ENCODING 12197
SWIDTH 941 0
DWIDTH 16 0
BBX 15 14 0 -1
BITMAP
31F8
1F10
1110
11F0
1F10
1110
11F0
1F10
0100
21F8
1F00
0100
81FE
7E00
ENDCHAR
STARTCHAR U+2FA6
ENCODING 12198
SWIDTH 941 0
DWIDTH 16 0
BBX 15 15 0 -1
BITMAP
0100
0180
0260
0410
0808
10F4
2F02
C100
21F8
1F10
1110
0920
0940
85FE
7E00
ENDCHAR
STARTCHAR U+2FA7
ENCODING 12199
SWIDTH 941 0
DWIDTH 16 0
BBX 15 15 0 -2
BITMAP
18F0
0F00
08E0
0F00
08E0
0F00
0800
88FE
7F08
0888
0850
0830
0988
0E04
7002
ENDCHAR
STARTCHAR U+2FA8
ENCODING 12200
SWIDTH 941 0
DWIDTH 16 0
BBX 15 15 0 -2
BITMAP
CECE
7272
4E4E
7272
4242
4E4E
7272
4002
4002
4002
4002
4002
400A
4006
4004
ENDCHAR
STARTCHAR U+2FA9
ENCODING 12201
SWIDTH 941 0
DWIDTH 16 0
BBX 15 16 0 -2
BITMAP
0100
1BF0
0E20
0820
09E0
0E00
09F8
0E10
0810
09F0
0F00
81FE
7F00
0100
0100
0100
ENDCHAR
STARTCHAR U+2FAA
ENCODING 12202
SWIDTH 941 0
DWIDTH 16 0
BBX 15 16 0 -2
BITMAP
0300
21F8
1F10
0110
81FE
7F10
0110
21F0
1F14
4188
2150
1530
0908
3504
C302
0200
ENDCHAR
STARTCHAR U+2FAB
ENCODING 12203
SWIDTH 941 0
DWIDTH 16 0
BBX 15 16 0 -2
BITMAP
0820
0820
1040
10FE
3F00
6100
A1FC
3F00
2100
21FC
3F00
2100
2100
21FE
3F00
2000
ENDCHAR
STARTCHAR U+2FAC
ENCODING 12204
SWIDTH 941 0
DWIDTH 16 0
BBX 15 15 0 -2
BITMAP
80FE
7F00
0100
0100
C1FE
7F04
5144
4924
4514
5144
4924
4514
4114
410C
4108
ENDCHAR
STARTCHAR U+2FAD
ENCODING 12205
SWIDTH 941 0
DWIDTH 16 0
BBX 15 16 0 -2
BITMAP
0300
0100
21F8
1F00
11F0
0F00
81FE
7F00
08F0
0F10
0910
09F0
0F10
0850
0830
0820
ENDCHAR
STARTCHAR U+2FAE
ENCODING 12206
SWIDTH 941 0
DWIDTH 16 0
BBX 15 16 0 -2
BITMAP
0D80
0480
9CBE
64C0
0480
0480
4CBC
34C0
0480
0480
9CBE
64C0
0480
0480
0480
0480
ENDCHAR
STARTCHAR U+2FAF
ENCODING 12207
SWIDTH 941 0
DWIDTH 16 0
BBX 15 15 0 -2
BITMAP
80FE
7F00
0200
0200
65FC
3E48
25C8
2648
2448
25C8
2648
2448
25F8
3E08
2008
ENDCHAR
STARTCHAR U+2FB0
ENCODING 12208
SWIDTH 941 0
DWIDTH 16 0
BBX 15 16 0 -2
BITMAP
0440
84FE
7F40
0440
05C0
0700
31F8
1F10
1110
11F0
1F10
1100
81FE
7F00
0100
0100
ENDCHAR
STARTCHAR U+2FB1
ENCODING 12209
SWIDTH 941 0
DWIDTH 16 0
BBX 15 16 0 -2
BITMAP
0300
0100
21F0
1F20
82FE
7F00
08F0
0F20
08E0
0F80
20F8
1F80
10FE
3F80
2080
0080
ENDCHAR
STARTCHAR U+2FB2
ENCODING 12210
SWIDTH 941 0
DWIDTH 16 0
BBX 15 15 0 -1
BITMAP
06C0
0240
025C
4E60
3240
025C
4E60
3240
0240
4E5C
3260
0240
0240
83FE
7C00
ENDCHAR
STARTCHAR U+2FB3
ENCODING 12211
SWIDTH 941 0
DWIDTH 16 0
BBX 15 16 0 -2
BITMAP
0300
0100
21F8
1E20
0440
85FE
7E00
09F0
0E20
0820
09E0
0E20
0820
09E0
0E20
0820
ENDCHAR
STARTCHAR U+2FB4
ENCODING 12212
SWIDTH 941 0
DWIDTH 16 0
BBX 15 15 0 -2
BITMAP
80FE
7F00
0200
1BF0
0E20
09E0
0E20
09E0
0E20
0820
09E0
0E40
0430
0808
7004
ENDCHAR
STARTCHAR U+2FB5
ENCODING 12213
SWIDTH 941 0
DWIDTH 16 0
BBX 15 15 0 -2
BITMAP
61F8
3E10
20D0
2310
3E10
2BD0
2E50
2A50
2BD0
2E8A
224A
42EC
4714
B816
0002
ENDCHAR
STARTCHAR U+2FB6
ENCODING 12214
SWIDTH 941 0
DWIDTH 16 0
BBX 15 16 0 -2
BITMAP
0004
41E4
3E58
0A44
3224
D212
120C
93E6
7E40
1244
1258
1224
2222
2212
420C
8206
ENDCHAR
STARTCHAR U+2FB7
ENCODING 12215
SWIDTH 941 0
DWIDTH 16 0
BBX 15 16 0 -2
BITMAP
0100
0180
0260
0510
0908
19F4
2E22
C9E0
0E20
09E0
0E88
0868
0890
0B08
0C04
7002
ENDCHAR
STARTCHAR U+2FB8
ENCODING 12216
SWIDTH 941 0
DWIDTH 16 0
BBX 15 16 0 -2
BITMAP
0820
0440
84FE
7F00
0100
19F8
0F10
08F0
0F10
0810
08F0
0F10
0810
08F0
0F10
0810
ENDCHAR
STARTCHAR U+2FB9
ENCODING 12217
SWIDTH 941 0
DWIDTH 16 0
BBX 15 16 0 -2
BITMAP
0018
0060
0380
3D00
81FE
7F40
0530
090C
19F2
2E20
C9E0
0E20
0820
09E0
0E20
0820
ENDCHAR
STARTCHAR U+2FBA
ENCODING 12218
SWIDTH 941 0
DWIDTH 16 0
BBX 15 15 0 -2
BITMAP
307C
1F80
1080
10F8
1F80
1080
10F8
1F80
1080
10FE
1F44
2924
24A4
4498
8410
ENDCHAR
STARTCHAR U+2FBB
ENCODING 12219
SWIDTH 941 0
DWIDTH 16 0
BBX 15 15 0 -2
BITMAP
19F0
0E20
09A0
0F20
49FE
7E04
49F0
8E20
09E0
0E20
09E0
0E20
08A0
0860
0840
ENDCHAR
STARTCHAR U+2FBC
ENCODING 12220
SWIDTH 941 0
DWIDTH 16 0
BBX 15 16 0 -2
BITMAP
0300
81FE
7F00
04F0
0720
04E0
0720
60FE
3F04
24E4
2724
24E4
2724
2414
200C
2008
ENDCHAR
STARTCHAR U+2FBD
ENCODING 12221
SWIDTH 941 0
DWIDTH 16 0
BBX 15 16 0 -2
BITMAP
0008
6708
3810
2620
38C4
2604
3808
2010
AF22
70C2
2404
2404
4E08
7210
C060
0180
ENDCHAR
STARTCHAR U+2FBE
ENCODING 12222
SWIDTH 941 0
DWIDTH 16 0
BBX 15 16 0 -2
BITMAP
C006
66BA
5C62
66BA
5C62
66BA
5842
4002
4002
4002
4002
4002
4002
400A
4006
4004
ENDCHAR
STARTCHAR U+2FBF
ENCODING 12223
SWIDTH 941 0
DWIDTH 16 0
BBX 13 15 1 -2
BITMAP
C2E0
58A0
4520
4260
6520
48A0
53E0
7C20
4000
2060
2380
3C10
2010
1010
0FF8
ENDCHAR
STARTCHAR U+2FC0
ENCODING 12224
SWIDTH 941 0
DWIDTH 16 0
BBX 15 15 0 -2
BITMAP
81FE
7E00
09F0
0E20
09E0
0E20
C1FE
7E44
4844
4484
55E4
4F04
4114
410C
4008
ENDCHAR
STARTCHAR U+2FC1
ENCODING 12225
SWIDTH 941 0
DWIDTH 16 0
BBX 15 16 0 -2
BITMAP
0200
0200
65FC
3F08
21F8
3F08
2108
21F8
3F28
2220
0350
0558
05E8
0904
3104
C0FE
ENDCHAR
STARTCHAR U+2FC2
ENCODING 12226
SWIDTH 941 0
DWIDTH 16 0
BBX 15 16 0 -2
BITMAP
0400
0400
09C0
0E80
10F8
3F10
5110
91F0
1F10
1110
11F0
1F10
0088
1444
2222
C222
ENDCHAR
STARTCHAR U+2FC3
ENCODING 12227
SWIDTH 941 0
DWIDTH 16 0
BBX 15 16 0 -2
BITMAP
0100
0200
1BF0
0E20
09E0
0E20
09E0
0E00
09F8
0E00
09FE
0E44
1124
14A4
2298
C210
ENDCHAR
STARTCHAR U+2FC4
ENCODING 12228
SWIDTH 941 0
DWIDTH 16 0
BBX 15 16 0 -2
BITMAP
0300
0100
017E
0180
0100
C1FE
7E44
4944
4694
5194
4944
4A24
4494
49FC
7E04
4004
ENDCHAR
STARTCHAR U+2FC5
ENCODING 12229
SWIDTH 941 0
DWIDTH 16 0
BBX 15 16 0 -2
BITMAP
0300
61FE
3F40
2240
32FC
2F48
2248
32F8
2F44
2844
2858
2F60
4844
49C4
8E44
303E
ENDCHAR
STARTCHAR U+2FC6
ENCODING 12230
SWIDTH 941 0
DWIDTH 16 0
BBX 15 16 0 -2
BITMAP
0300
41FC
3F00
1110
1110
2BA8
4564
0910
32EC
C322
0440
0B40
3080
0360
0C10
F008
ENDCHAR
STARTCHAR U+2FC7
ENCODING 12231
SWIDTH 941 0
DWIDTH 16 0
BBX 15 16 0 -2
BITMAP
0180
0080
60FC
3FA0
2220
2220
32FC
2F20
2230
2768
2AE4
2AA4
5322
6220
8220
0220
ENDCHAR
STARTCHAR U+2FC8
ENCODING 12232
SWIDTH 941 0
DWIDTH 16 0
BBX 15 16 0 -2
BITMAP
0440
45FC
3E40
05C0
0600
81FE
7F00
01F8
1F10
11F0
1F10
11F0
1E50
1420
0818
7004
ENDCHAR
STARTCHAR U+2FC9
ENCODING 12233
SWIDTH 941 0
DWIDTH 16 0
BBX 15 16 0 -2
BITMAP
0030
01C0
1F00
41FC
3F40
0930
318C
C262
0D18
3114
C962
0B80
0560
1918
6304
0200
ENDCHAR
STARTCHAR U+2FCA
ENCODING 12234
SWIDTH 941 0
DWIDTH 16 0
BBX 15 15 0 -2
BITMAP
31F8
1F10
1150
1990
1510
11F0
1F10
1100
41FC
3F00
81FE
7E08
1444
2222
C222
ENDCHAR
STARTCHAR U+2FCB
ENCODING 12235
SWIDTH 941 0
DWIDTH 16 0
BBX 15 16 0 -2
BITMAP
0448
2448
1450
94FE
7F20
0920
0540
65FC
3F08
2148
2548
2528
2528
2928
3118
2110
ENDCHAR
STARTCHAR U+2FCC
ENCODING 12236
SWIDTH 941 0
DWIDTH 16 0
BBX 15 15 0 -2
BITMAP
C1FC
7E88
44F8
7C80
0480
C4FC
7C88
44F8
7C88
4488
44F8
7C88
4484
0404
03FE
ENDCHAR
STARTCHAR U+2FCD
ENCODING 12237
SWIDTH 941 0
DWIDTH 16 0
BBX 15 15 0 -2
BITMAP
19EC
CE24
49E4
4E24
49E4
4E24
49E4
5E9C
64E0
9C9E
E4E4
2484
2484
4484
8484
ENDCHAR
STARTCHAR U+2FCE
ENCODING 12238
SWIDTH 941 0
DWIDTH 16 0
BBX 15 16 0 -2
BITMAP
1860
0820
8E20
793E
4EE0
3020
4F3C
32E4
2248
2E28
3210
2410
1728
1844
E084
0302
ENDCHAR
STARTCHAR U+2FCF
ENCODING 12239
SWIDTH 941 0
DWIDTH 16 0
BBX 15 16 0 -2
BITMAP
0600
68F8
3010
26F0
3810
23F0
3C10
0080
7370
2D10
2190
316A
2D1A
256C
3986
C302
ENDCHAR
STARTCHAR U+2FD0
ENCODING 12240
SWIDTH 941 0
DWIDTH 16 0
BBX 15 16 0 -2
BITMAP
0100
0100
1BF0
0E20
09E0
0E20
39F8
1F10
11F0
1F10
11F0
1E00
81FE
7E20
0820
7020
ENDCHAR
STARTCHAR U+2FD1
ENCODING 12241
SWIDTH 941 0
DWIDTH 16 0
BBX 15 16 0 -2
BITMAP
0300
81FE
7E40
028C
9D78
7528
2528
2D34
4966
91F2
1E10
11F0
1E10
1010
2010
C010
ENDCHAR
STARTCHAR U+2FD2
ENCODING 12242
SWIDTH 941 0
DWIDTH 16 0
BBX 15 16 0 -2
BITMAP
0300
1970
0980
0900
89FE
7E40
0448
24A8
2BF8
3E48
2448
24A8
2A88
29F8
3E08
2008
ENDCHAR
STARTCHAR U+2FD3
ENCODING 12243
SWIDTH 941 0
DWIDTH 16 0
BBX 15 16 0 -2
BITMAP
3180
109C
5EE0
6480
28BC
BEC8
6038
5EC0
64B8
5CC0
64B8
5CC0
64B8
54C4
4C84
487E
ENDCHAR
STARTCHAR U+2FD4
ENCODING 12244
SWIDTH 941 0
DWIDTH 16 0
BBX 15 16 0 -2
BITMAP
0800
0F80
1178
3F88
62B8
BEC0
02BC
7AD4
0EAC
FA94
0AEC
7ABC
0EC4
FA84
0A04
79FE
ENDCHAR
STARTCHAR U+2FD5
ENCODING 12245
SWIDTH 941 0
DWIDTH 16 0
BBX 15 16 0 -2
BITMAP
0100
02C0
0430
09CC
3602
C2BC
3BA8
2AB8
3B00
00FC
3F44
24FC
3F44
2454
244C
2008
ENDCHAR
STARTCHAR U+3000
ENCODING 12288
SWIDTH 941 0
DWIDTH 16 0
BBX 0 0 0 0
BITMAP
ENDCHAR
STARTCHAR U+3001
ENCODING 12289
SWIDTH 941 0
DWIDTH 16 0
BBX 4 5 0 -2
BITMAP
80
40
20
30
10
ENDCHAR
STARTCHAR U+3002
ENCODING 12290
SWIDTH 941 0
DWIDTH 16 0
BBX 5 5 0 -2
BITMAP
70
88
88
88
70
ENDCHAR
STARTCHAR U+3003
ENCODING 12291
SWIDTH 941 0
DWIDTH 16 0
BBX 8 6 3 4
BITMAP
11
11
22
22
44
88
ENDCHAR
STARTCHAR U+3005
ENCODING 12293
SWIDTH 941 0
DWIDTH 16 0
BBX 12 15 1 -2
BITMAP
0400
0400
0400
09F0
0E20
1040
1040
2080
4080
8D00
0200
0100
0080
0040
0040
ENDCHAR
STARTCHAR U+3006
ENCODING 12294
SWIDTH 941 0
DWIDTH 16 0
BBX 12 14 1 -1
BITMAP
0020
0010
0020
0040
0880
1500
2200
2500
4800
5000
9000
A000
C000
8000
ENDCHAR
STARTCHAR U+3007
ENCODING 12295
SWIDTH 941 0
DWIDTH 16 0
BBX 15 12 0 0
BITMAP
07C0
1830
2008
4004
8002
8002
8002
8002
4004
2008
1830
07C0
ENDCHAR
STARTCHAR U+3008
ENCODING 12296
SWIDTH 941 0
DWIDTH 16 0
BBX 5 16 9 -2
BITMAP
08
08
10
10
20
40
40
80
80
40
40
20
10
10
08
08
ENDCHAR
STARTCHAR U+3009
ENCODING 12297
SWIDTH 941 0
DWIDTH 16 0
BBX 5 16 1 -2
BITMAP
80
80
40
40
20
10
10
08
08
10
10
20
40
40
80
80
ENDCHAR
STARTCHAR U+300A
ENCODING 12298
SWIDTH 941 0
DWIDTH 16 0
BBX 8 16 6 -2
BITMAP
09
09
12
12
24
48
48
90
90
48
48
24
12
12
09
09
ENDCHAR
STARTCHAR U+300B
ENCODING 12299
SWIDTH 941 0
DWIDTH 16 0
BBX 8 16 1 -2
BITMAP
90
90
48
48
24
12
12
09
09
12
12
24
48
48
90
90
ENDCHAR
STARTCHAR U+300C
ENCODING 12300
SWIDTH 941 0
DWIDTH 16 0
BBX 5 12 9 2
BITMAP
F8
80
80
80
80
80
80
80
80
80
80
80
ENDCHAR
STARTCHAR U+300D
ENCODING 12301
SWIDTH 941 0
DWIDTH 16 0
BBX 5 12 1 -2
BITMAP
08
08
08
08
08
08
08
08
08
08
08
F8
ENDCHAR
STARTCHAR U+300E
ENCODING 12302
SWIDTH 941 0
DWIDTH 16 0
BBX 6 12 8 2
BITMAP
FC
84
BC
A0
A0
A0
A0
A0
A0
A0
A0
E0
ENDCHAR
STARTCHAR U+300F
ENCODING 12303
SWIDTH 941 0
DWIDTH 16 0
BBX 6 12 1 -2
BITMAP
1C
14
14
14
14
14
14
14
14
F4
84
FC
ENDCHAR
STARTCHAR U+3010
ENCODING 12304
SWIDTH 941 0
DWIDTH 16 0
BBX 4 16 10 -2
BITMAP
F0
E0
C0
C0
C0
C0
C0
C0
C0
C0
C0
C0
C0
C0
E0
F0
ENDCHAR
STARTCHAR U+3011
ENCODING 12305
SWIDTH 941 0
DWIDTH 16 0
BBX 4 16 1 -2
BITMAP
F0
70
30
30
30
30
30
30
30
30
30
30
30
30
70
F0
ENDCHAR
STARTCHAR U+3012
ENCODING 12306
SWIDTH 941 0
DWIDTH 16 0
BBX 14 15 0 -2
BITMAP
FFFC
FFFC
0000
0000
FFFC
FFFC
0300
0300
0300
0300
0300
0300
0300
0300
0300
ENDCHAR
STARTCHAR U+3013
ENCODING 12307
SWIDTH 941 0
DWIDTH 16 0
BBX 11 7 2 3
BITMAP
FFE0
FFE0
0000
0000
0000
FFE0
FFE0
ENDCHAR
STARTCHAR U+3014
ENCODING 12308
SWIDTH 941 0
DWIDTH 16 0
BBX 4 16 10 -2
BITMAP
10
60
80
80
80
80
80
80
80
80
80
80
80
80
60
10
ENDCHAR
STARTCHAR U+3015
ENCODING 12309
SWIDTH 941 0
DWIDTH 16 0
BBX 4 16 1 -2
BITMAP
80
60
10
10
10
10
10
10
10
10
10
10
10
10
60
80
ENDCHAR
STARTCHAR U+3016
ENCODING 12310
SWIDTH 941 0
DWIDTH 16 0
BBX 4 16 10 -2
BITMAP
F0
A0
C0
C0
C0
C0
C0
C0
C0
C0
C0
C0
C0
C0
A0
F0
ENDCHAR
STARTCHAR U+3017
ENCODING 12311
SWIDTH 941 0
DWIDTH 16 0
BBX 4 16 1 -2
BITMAP
F0
50
30
30
30
30
30
30
30
30
30
30
30
30
50
F0
ENDCHAR
STARTCHAR U+301C
ENCODING 12316
SWIDTH 941 0
DWIDTH 16 0
BBX 15 6 0 3
BITMAP
3800
4400
8202
0104
0088
0070
ENDCHAR
STARTCHAR U+301D
ENCODING 12317
SWIDTH 941 0
DWIDTH 16 0
BBX 6 3 9 10
BITMAP
6C
48
90
ENDCHAR
STARTCHAR U+301F
ENCODING 12319
SWIDTH 941 0
DWIDTH 16 0
BBX 6 3 1 -1
BITMAP
6C
48
90
ENDCHAR
STARTCHAR U+3021
ENCODING 12321
SWIDTH 941 0
DWIDTH 16 0
BBX 2 14 6 -1
BITMAP
C0
40
40
40
40
40
40
40
40
40
40
40
40
40
ENDCHAR
STARTCHAR U+3022
ENCODING 12322
SWIDTH 941 0
DWIDTH 16 0
BBX 8 14 3 -1
BITMAP
03
01
C1
41
41
41
41
41
41
41
41
01
01
01
ENDCHAR
STARTCHAR U+3023
ENCODING 12323
SWIDTH 941 0
DWIDTH 16 0
BBX 12 14 1 -1
BITMAP
0030
C010
4610
4210
4210
4210
4210
4210
4210
4210
4210
4010
4010
0010
ENDCHAR
STARTCHAR U+3024
ENCODING 12324
SWIDTH 941 0
DWIDTH 16 0
BBX 11 14 2 -1
BITMAP
00C0
0040
3040
0880
0480
0300
0100
0280
0240
0440
0820
1020
2000
C000
ENDCHAR
STARTCHAR U+3025
ENCODING 12325
SWIDTH 941 0
DWIDTH 16 0
BBX 10 14 3 -1
BITMAP
2180
1080
1100
2100
7A00
8E00
1100
2080
2040
4040
4080
2080
2100
1E00
ENDCHAR
STARTCHAR U+3026
ENCODING 12326
SWIDTH 941 0
DWIDTH 16 0
BBX 14 13 1 0
BITMAP
0600
0200
0200
0200
0200
0200
0200
0200
0200
0200
0200
83FC
7E00
ENDCHAR
STARTCHAR U+3027
ENCODING 12327
SWIDTH 941 0
DWIDTH 16 0
BBX 14 13 1 0
BITMAP
0600
0200
0200
0200
0200
0200
0200
0200
83FC
7E00
0000
41F8
3E00
ENDCHAR
STARTCHAR U+3028
ENCODING 12328
SWIDTH 941 0
DWIDTH 16 0
BBX 14 13 1 0
BITMAP
0600
0200
0200
0200
0200
83FC
7E00
0000
41F8
3E00
0000
41F8
3E00
ENDCHAR
STARTCHAR U+3029
ENCODING 12329
SWIDTH 941 0
DWIDTH 16 0
BBX 14 14 1 -1
BITMAP
1800
0800
08FC
1F20
1420
2240
2140
4080
8080
0140
0220
0420
1800
E000
ENDCHAR
STARTCHAR U+3038
ENCODING 12344
SWIDTH 941 0
DWIDTH 16 0
BBX 14 14 1 -1
BITMAP
0600
0200
0200
0200
0200
83FC
7E00
0200
0200
0200
0200
0200
0200
0200
ENDCHAR
STARTCHAR U+3039
ENCODING 12345
SWIDTH 941 0
DWIDTH 16 0
BBX 14 14 1 -1
BITMAP
18C0
0840
0840
0840
0840
89FC
7E40
0840
0840
0840
0840
0840
0840
0840
ENDCHAR
STARTCHAR U+303A
ENCODING 12346
SWIDTH 941 0
DWIDTH 16 0
BBX 14 14 1 -1
BITMAP
1B60
0920
0920
0920
0920
89FC
7F20
0920
0920
0920
1120
1120
2120
4120
ENDCHAR
STARTCHAR U+3041
ENCODING 12353
SWIDTH 941 0
DWIDTH 16 0
BBX 9 11 3 -2
BITMAP
3000
1600
5800
7000
1F00
3480
5480
8880
B500
4200
0C00
ENDCHAR
STARTCHAR U+3042
ENCODING 12354
SWIDTH 941 0
DWIDTH 16 0
BBX 12 15 1 -1
BITMAP
0800
0400
0460
4580
3E00
0800
0FC0
1920
2910
4610
4410
8C10
9420
60C0
0300
ENDCHAR
STARTCHAR U+3043
ENCODING 12355
SWIDTH 941 0
DWIDTH 16 0
BBX 9 8 3 -1
BITMAP
8000
4200
4100
8080
9080
5080
6000
3000
ENDCHAR
STARTCHAR U+3044
ENCODING 12356
SWIDTH 941 0
DWIDTH 16 0
BBX 13 12 1 0
BITMAP
8080
4040
4020
4010
8010
8008
8838
8808
5000
5000
3000
1000
ENDCHAR
STARTCHAR U+3045
ENCODING 12357
SWIDTH 941 0
DWIDTH 16 0
BBX 7 11 4 -2
BITMAP
20
18
00
9C
62
02
02
02
04
04
18
ENDCHAR
STARTCHAR U+3046
ENCODING 12358
SWIDTH 941 0
DWIDTH 16 0
BBX 9 16 3 -2
BITMAP
2000
1E00
0400
0800
0000
8E00
F100
4080
0080
0080
0080
0100
0100
0200
0400
1800
ENDCHAR
STARTCHAR U+3047
ENCODING 12359
SWIDTH 941 0
DWIDTH 16 0
BBX 9 9 3 -1
BITMAP
1C00
0000
4E00
3400
0800
1000
2800
4800
8780
ENDCHAR
STARTCHAR U+3048
ENCODING 12360
SWIDTH 941 0
DWIDTH 16 0
BBX 13 15 1 -1
BITMAP
0800
0780
0100
0000
0100
4780
3900
0200
0400
0800
1C00
2200
C200
8200
01F8
ENDCHAR
STARTCHAR U+3049
ENCODING 12361
SWIDTH 941 0
DWIDTH 16 0
BBX 9 10 3 -2
BITMAP
3100
1080
9C80
7000
1F00
3080
5080
9480
5300
3000
ENDCHAR
STARTCHAR U+304A
ENCODING 12362
SWIDTH 941 0
DWIDTH 16 0
BBX 13 15 1 -1
BITMAP
1800
0860
0810
0808
8E08
7800
0800
09E0
0A10
0C10
1810
2810
CA20
39C0
0800
ENDCHAR
STARTCHAR U+304B
ENCODING 12363
SWIDTH 941 0
DWIDTH 16 0
BBX 14 15 1 -1
BITMAP
0800
0400
0400
0800
0E60
B110
D108
1108
211C
2104
4200
4200
5200
8C00
8800
ENDCHAR
STARTCHAR U+304C
ENCODING 12364
SWIDTH 941 0
DWIDTH 16 0
BBX 14 15 1 -1
BITMAP
0808
0424
0414
0810
0E60
B110
D108
1108
211C
2104
4200
4200
5200
8C00
8800
ENDCHAR
STARTCHAR U+304D
ENCODING 12365
SWIDTH 941 0
DWIDTH 16 0
BBX 10 15 2 -1
BITMAP
1800
0800
0800
4580
3E00
0400
82C0
7F00
0100
0080
3F80
40C0
4000
3000
0F80
ENDCHAR
STARTCHAR U+304E
ENCODING 12366
SWIDTH 941 0
DWIDTH 16 0
BBX 13 15 2 -1
BITMAP
1810
0848
0828
45A0
3E00
0400
82C0
7F00
0100
0080
3F80
40C0
4000
3000
0F80
ENDCHAR
STARTCHAR U+304F
ENCODING 12367
SWIDTH 941 0
DWIDTH 16 0
BBX 7 16 4 -2
BITMAP
08
04
04
08
10
20
40
80
40
20
10
08
04
04
02
02
ENDCHAR
STARTCHAR U+3050
ENCODING 12368
SWIDTH 941 0
DWIDTH 16 0
BBX 11 16 4 -2
BITMAP
0800
0400
0400
0840
1120
20A0
4080
8000
4000
2000
1000
0800
0400
0400
0200
0200
ENDCHAR
STARTCHAR U+3051
ENCODING 12369
SWIDTH 941 0
DWIDTH 16 0
BBX 13 16 1 -2
BITMAP
0080
0040
8040
4040
4048
4470
43C0
8040
8040
8040
9040
A040
4080
4080
0100
0200
ENDCHAR
STARTCHAR U+3052
ENCODING 12370
SWIDTH 941 0
DWIDTH 16 0
BBX 14 16 1 -2
BITMAP
0108
00A4
8094
4090
4080
48E0
4780
8080
8080
8080
9080
A080
4100
4100
0200
0400
ENDCHAR
STARTCHAR U+3053
ENCODING 12371
SWIDTH 941 0
DWIDTH 16 0
BBX 11 12 2 0
BITMAP
2000
1F80
0200
0400
0000
0000
2000
4000
8000
8000
6040
1FE0
ENDCHAR
STARTCHAR U+3054
ENCODING 12372
SWIDTH 941 0
DWIDTH 16 0
BBX 13 14 2 0
BITMAP
0010
0048
2028
1FA0
0200
0400
0000
0000
2000
4000
8000
8000
6040
1FE0
ENDCHAR
STARTCHAR U+3055
ENCODING 12373
SWIDTH 941 0
DWIDTH 16 0
BBX 11 14 2 -1
BITMAP
0C00
0400
0460
8380
7E00
0100
0100
0080
3F40
40C0
4000
2000
1800
0780
ENDCHAR
STARTCHAR U+3056
ENCODING 12374
SWIDTH 941 0
DWIDTH 16 0
BBX 13 15 2 -1
BITMAP
0010
0C48
0428
04A0
8380
7E00
0100
0100
0080
3F40
40C0
4000
2000
1800
0780
ENDCHAR
STARTCHAR U+3057
ENCODING 12375
SWIDTH 941 0
DWIDTH 16 0
BBX 11 15 3 -1
BITMAP
8000
6000
4000
4000
4000
4000
4000
4000
4000
4020
4040
4080
4100
2600
1800
ENDCHAR
STARTCHAR U+3058
ENCODING 12376
SWIDTH 941 0
DWIDTH 16 0
BBX 11 15 3 -1
BITMAP
8000
6080
4240
4140
4100
4000
4000
4000
4000
4020
4040
4080
4100
2600
1800
ENDCHAR
STARTCHAR U+3059
ENCODING 12377
SWIDTH 941 0
DWIDTH 16 0
BBX 15 16 0 -2
BITMAP
0180
0080
0080
81FE
7E80
0080
0780
0880
0880
0980
0680
0080
0100
0100
0200
0400
ENDCHAR
STARTCHAR U+305A
ENCODING 12378
SWIDTH 941 0
DWIDTH 16 0
BBX 15 16 0 -2
BITMAP
01A4
0092
0092
81FE
7E80
0080
0780
0880
0880
0980
0680
0080
0100
0100
0200
0400
ENDCHAR
STARTCHAR U+305B
ENCODING 12379
SWIDTH 941 0
DWIDTH 16 0
BBX 15 14 0 -1
BITMAP
0060
1020
0820
0820
087E
8BC0
7C40
0840
0940
0880
0880
0800
0800
07F0
ENDCHAR
STARTCHAR U+305C
ENCODING 12380
SWIDTH 941 0
DWIDTH 16 0
BBX 15 15 0 -1
BITMAP
0004
00D2
104A
0848
0840
087E
8BC0
7C40
0840
0940
0880
0880
0800
0800
07F0
ENDCHAR
STARTCHAR U+305D
ENCODING 12381
SWIDTH 941 0
DWIDTH 16 0
BBX 13 14 1 -1
BITMAP
1380
0CC0
0100
0200
0200
05F8
1E00
E200
8400
0400
0400
0400
0200
0180
ENDCHAR
STARTCHAR U+305E
ENCODING 12382
SWIDTH 941 0
DWIDTH 16 0
BBX 14 14 1 -1
BITMAP
1388
0CA4
0114
0210
0200
05F8
1E00
E200
8400
0400
0400
0400
0200
0180
ENDCHAR
STARTCHAR U+305F
ENCODING 12383
SWIDTH 941 0
DWIDTH 16 0
BBX 13 14 1 -1
BITMAP
1800
0800
0800
8E00
70C0
1030
1040
2000
2000
2200
4200
4180
8078
8000
ENDCHAR
STARTCHAR U+3060
ENCODING 12384
SWIDTH 941 0
DWIDTH 16 0
BBX 14 15 1 -1
BITMAP
0008
1824
0814
0810
8E00
70C0
1030
1040
2000
2000
2200
4200
4180
8078
8000
ENDCHAR
STARTCHAR U+3061
ENCODING 12385
SWIDTH 941 0
DWIDTH 16 0
BBX 12 15 2 -1
BITMAP
1800
0800
08C0
8F00
7800
0800
1000
11E0
2610
3810
2010
0020
0020
00C0
0700
ENDCHAR
STARTCHAR U+3062
ENCODING 12386
SWIDTH 941 0
DWIDTH 16 0
BBX 13 15 2 -1
BITMAP
1800
0800
0990
8E48
7828
0820
1000
11E0
2610
3810
2010
0020
0020
00C0
0700
ENDCHAR
STARTCHAR U+3063
ENCODING 12387
SWIDTH 941 0
DWIDTH 16 0
BBX 10 8 2 -2
BITMAP
0780
9840
6040
0040
0080
0080
0300
0C00
ENDCHAR
STARTCHAR U+3064
ENCODING 12388
SWIDTH 941 0
DWIDTH 16 0
BBX 14 10 0 0
BITMAP
01F0
0608
9804
6004
0004
0008
0008
0010
0060
0380
ENDCHAR
STARTCHAR U+3065
ENCODING 12389
SWIDTH 941 0
DWIDTH 16 0
BBX 15 14 0 0
BITMAP
0004
0012
000A
0008
01F0
0608
9804
6004
0004
0008
0008
0010
0060
0380
ENDCHAR
STARTCHAR U+3066
ENCODING 12390
SWIDTH 941 0
DWIDTH 16 0
BBX 14 12 0 0
BITMAP
00FC
8740
7880
0100
0200
0200
0400
0400
0400
0400
0200
01E0
ENDCHAR
STARTCHAR U+3067
ENCODING 12391
SWIDTH 941 0
DWIDTH 16 0
BBX 15 12 0 0
BITMAP
00FC
8740
7884
0112
020A
0208
0400
0400
0400
0400
0200
01E0
ENDCHAR
STARTCHAR U+3068
ENCODING 12392
SWIDTH 941 0
DWIDTH 16 0
BBX 11 14 2 -1
BITMAP
1800
0800
0800
0800
0800
05C0
0600
1800
2000
4000
8000
8000
4060
3F80
ENDCHAR
STARTCHAR U+3069
ENCODING 12393
SWIDTH 941 0
DWIDTH 16 0
BBX 12 15 2 -1
BITMAP
0020
1890
0850
0840
0800
0800
05C0
0600
1800
2000
4000
8000
8000
4060
3F80
ENDCHAR
STARTCHAR U+306A
ENCODING 12394
SWIDTH 941 0
DWIDTH 16 0
BBX 13 15 1 -1
BITMAP
1000
0800
08C0
9C30
7018
1040
2080
2080
4080
4040
8040
83E0
0458
0440
0380
ENDCHAR
STARTCHAR U+306B
ENCODING 12395
SWIDTH 941 0
DWIDTH 16 0
BBX 13 13 1 -1
BITMAP
8000
44F0
4340
4000
4000
8000
8200
8400
9400
A400
A300
40F8
4000
ENDCHAR
STARTCHAR U+306C
ENCODING 12396
SWIDTH 941 0
DWIDTH 16 0
BBX 14 13 1 0
BITMAP
0300
2100
2100
23E0
2E10
3208
2408
5408
5808
88E8
9518
9114
60E0
ENDCHAR
STARTCHAR U+306D
ENCODING 12397
SWIDTH 941 0
DWIDTH 16 0
BBX 14 14 1 -1
BITMAP
3000
1000
10E0
1D10
B210
7410
1810
3010
3010
51D0
5238
B214
91E0
1000
ENDCHAR
STARTCHAR U+306E
ENCODING 12398
SWIDTH 941 0
DWIDTH 16 0
BBX 13 12 1 0
BITMAP
07C0
1A20
2210
4208
4408
8408
8808
8810
9010
A020
40C0
0300
ENDCHAR
STARTCHAR U+306F
ENCODING 12399
SWIDTH 941 0
DWIDTH 16 0
BBX 13 14 1 -1
BITMAP
00C0
8040
4040
4878
47C0
4040
8040
8040
8040
9040
A3C0
A470
4448
4380
ENDCHAR
STARTCHAR U+3070
ENCODING 12400
SWIDTH 941 0
DWIDTH 16 0
BBX 14 15 1 -1
BITMAP
0008
01A4
8094
4090
48E0
4780
4080
8080
8080
8080
8080
A780
A8E0
4890
4700
ENDCHAR
STARTCHAR U+3071
ENCODING 12401
SWIDTH 941 0
DWIDTH 16 0
BBX 14 15 1 -1
BITMAP
0018
01A4
80A4
4098
48E0
4780
4080
8080
8080
8080
8080
A780
A8E0
4890
4700
ENDCHAR
STARTCHAR U+3072
ENCODING 12402
SWIDTH 941 0
DWIDTH 16 0
BBX 14 13 1 -1
BITMAP
9C40
6840
1040
2060
2050
4050
4048
4044
4080
4080
4100
2200
1C00
ENDCHAR
STARTCHAR U+3073
ENCODING 12403
SWIDTH 941 0
DWIDTH 16 0
BBX 14 15 1 -1
BITMAP
0008
0024
9C54
6850
1040
2060
2050
4050
4048
4044
4080
4080
4100
2200
1C00
ENDCHAR
STARTCHAR U+3074
ENCODING 12404
SWIDTH 941 0
DWIDTH 16 0
BBX 14 15 1 -1
BITMAP
0018
0024
9C64
6858
1040
2060
2050
4050
4048
4044
4080
4080
4100
2200
1C00
ENDCHAR
STARTCHAR U+3075
ENCODING 12405
SWIDTH 941 0
DWIDTH 16 0
BBX 14 14 0 -1
BITMAP
0200
0100
00C0
0300
0400
0400
0200
01E0
0718
0884
1084
A480
4300
4000
ENDCHAR
STARTCHAR U+3076
ENCODING 12406
SWIDTH 941 0
DWIDTH 16 0
BBX 15 14 0 -1
BITMAP
0200
0100
00C4
0312
040A
0408
0200
01E0
0718
0884
1084
A480
4300
4000
ENDCHAR
STARTCHAR U+3077
ENCODING 12407
SWIDTH 941 0
DWIDTH 16 0
BBX 15 14 0 -1
BITMAP
0200
0100
00CC
0312
0412
040C
0200
01E0
0718
0884
1084
A480
4300
4000
ENDCHAR
STARTCHAR U+3078
ENCODING 12408
SWIDTH 941 0
DWIDTH 16 0
BBX 15 8 0 2
BITMAP
0600
0900
0880
1040
9020
6010
0008
0006
ENDCHAR
STARTCHAR U+3079
ENCODING 12409
SWIDTH 941 0
DWIDTH 16 0
BBX 15 11 0 2
BITMAP
0010
0048
0028
0620
0900
0880
1040
9020
6010
0008
0006
ENDCHAR
STARTCHAR U+307A
ENCODING 12410
SWIDTH 941 0
DWIDTH 16 0
BBX 15 11 0 2
BITMAP
0030
0048
0048
0630
0900
0880
1040
9020
6010
0008
0006
ENDCHAR
STARTCHAR U+307B
ENCODING 12411
SWIDTH 941 0
DWIDTH 16 0
BBX 13 14 1 -1
BITMAP
0270
81C0
4040
4040
4040
4878
87C0
8040
8040
9040
A3C0
A470
4448
4380
ENDCHAR
STARTCHAR U+307C
ENCODING 12412
SWIDTH 941 0
DWIDTH 16 0
BBX 14 15 1 -1
BITMAP
0008
0264
81D4
4050
4040
4040
4878
87C0
8040
8040
9040
A3C0
A470
444C
4380
ENDCHAR
STARTCHAR U+307D
ENCODING 12413
SWIDTH 941 0
DWIDTH 16 0
BBX 14 15 1 -1
BITMAP
0018
0264
81E4
4058
4040
4040
4878
87C0
8040
8040
9040
A3C0
A470
444C
4380
ENDCHAR
STARTCHAR U+307E
ENCODING 12414
SWIDTH 941 0
DWIDTH 16 0
BBX 11 15 1 -1
BITMAP
0600
0200
0200
83C0
7E00
0200
0240
2380
1E00
0200
0200
1F00
22C0
2220
1C00
ENDCHAR
STARTCHAR U+307F
ENCODING 12415
SWIDTH 941 0
DWIDTH 16 0
BBX 13 14 1 -1
BITMAP
2700
1900
0200
0200
0440
0420
0820
3F20
50E0
9058
A080
C080
0100
0200
ENDCHAR
STARTCHAR U+3080
ENCODING 12416
SWIDTH 941 0
DWIDTH 16 0
BBX 14 15 1 -1
BITMAP
1800
0800
0800
8E30
7808
0804
1004
1000
7000
9000
9000
B010
5020
10C0
0F00
ENDCHAR
STARTCHAR U+3081
ENCODING 12417
SWIDTH 941 0
DWIDTH 16 0
BBX 13 14 1 0
BITMAP
0200
0100
4100
2100
27E0
2A10
3208
5208
5408
8C08
8810
9410
6060
0180
ENDCHAR
STARTCHAR U+3082
ENCODING 12418
SWIDTH 941 0
DWIDTH 16 0
BBX 11 15 2 -1
BITMAP
1800
0800
0800
4800
3800
2800
5500
9080
9040
5040
3C20
1020
1020
1040
0F80
ENDCHAR
STARTCHAR U+3083
ENCODING 12419
SWIDTH 941 0
DWIDTH 16 0
BBX 10 11 2 -1
BITMAP
0400
2200
5E00
4380
2440
1840
B480
4B00
0800
0400
0400
ENDCHAR
STARTCHAR U+3084
ENCODING 12420
SWIDTH 941 0
DWIDTH 16 0
BBX 14 14 0 -1
BITMAP
0080
0C40
13C0
1078
0884
0B04
0C04
9488
6270
0200
0100
0100
0080
0080
ENDCHAR
STARTCHAR U+3085
ENCODING 12421
SWIDTH 941 0
DWIDTH 16 0
BBX 10 12 3 -2
BITMAP
0800
9400
5F00
5480
7440
9440
9440
9480
4F00
0400
0800
1000
ENDCHAR
STARTCHAR U+3086
ENCODING 12422
SWIDTH 941 0
DWIDTH 16 0
BBX 13 15 1 -2
BITMAP
0300
0480
C4E0
4790
4488
4C88
5488
9488
A288
A290
41E0
4100
0100
0200
0400
ENDCHAR
STARTCHAR U+3087
ENCODING 12423
SWIDTH 941 0
DWIDTH 16 0
BBX 9 11 3 -1
BITMAP
1800
0800
0B80
0C00
0800
0800
0800
7800
8E00
8980
7000
ENDCHAR
STARTCHAR U+3088
ENCODING 12424
SWIDTH 941 0
DWIDTH 16 0
BBX 11 14 2 -1
BITMAP
0C00
0400
0400
04C0
0700
0400
0400
0400
0400
0400
7E00
8580
8460
7800
ENDCHAR
STARTCHAR U+3089
ENCODING 12425
SWIDTH 941 0
DWIDTH 16 0
BBX 10 15 3 -1
BITMAP
2000
1800
0600
0800
2000
4000
4000
8700
9880
A040
C040
8040
0080
0300
1C00
ENDCHAR
STARTCHAR U+308A
ENCODING 12426
SWIDTH 941 0
DWIDTH 16 0
BBX 9 15 3 -2
BITMAP
6000
2000
2E00
5100
5080
A080
A080
A080
C080
4080
4100
0100
0200
0C00
3000
ENDCHAR
STARTCHAR U+308B
ENCODING 12427
SWIDTH 941 0
DWIDTH 16 0
BBX 11 14 2 -1
BITMAP
2380
1C80
0100
0200
0400
0800
1780
3840
4020
C020
8C20
1240
1180
0E00
ENDCHAR
STARTCHAR U+308C
ENCODING 12428
SWIDTH 941 0
DWIDTH 16 0
BBX 14 15 1 -1
BITMAP
3000
1000
1000
19C0
1A20
B420
5820
1020
3020
3040
5040
D044
B048
1030
1000
ENDCHAR
STARTCHAR U+308D
ENCODING 12429
SWIDTH 941 0
DWIDTH 16 0
BBX 11 14 2 -1
BITMAP
2700
1900
0200
0400
0800
1000
17C0
3820
6020
8020
8020
0040
0180
0600
ENDCHAR
STARTCHAR U+308E
ENCODING 12430
SWIDTH 941 0
DWIDTH 16 0
BBX 10 10 2 -2
BITMAP
3000
1000
1380
5440
7840
1040
3040
5080
B300
1000
ENDCHAR
STARTCHAR U+308F
ENCODING 12431
SWIDTH 941 0
DWIDTH 16 0
BBX 13 14 1 -1
BITMAP
1800
0800
0800
0C00
19E0
9610
7808
1008
3008
5008
5010
9020
B0C0
1300
ENDCHAR
STARTCHAR U+3090
ENCODING 12432
SWIDTH 941 0
DWIDTH 16 0
BBX 13 14 1 -1
BITMAP
1300
0D80
0100
0200
0200
07E0
1C10
2408
4808
4808
9308
9490
6460
0380
ENDCHAR
STARTCHAR U+3091
ENCODING 12433
SWIDTH 941 0
DWIDTH 16 0
BBX 13 14 1 -1
BITMAP
1380
0D00
0200
0400
0FC0
1820
2020
0E40
0B80
0E00
10E0
2910
C608
8418
ENDCHAR
STARTCHAR U+3092
ENCODING 12434
SWIDTH 941 0
DWIDTH 16 0
BBX 12 15 2 -1
BITMAP
0C00
0400
8780
7C00
0800
1020
2C10
7230
43C0
0600
0A00
1200
2000
2080
1FC0
ENDCHAR
STARTCHAR U+3093
ENCODING 12435
SWIDTH 941 0
DWIDTH 16 0
BBX 13 14 1 -1
BITMAP
0600
0200
0400
0400
0800
0800
1000
1C08
3208
2210
4210
4220
81C0
8000
ENDCHAR
STARTCHAR U+3094
ENCODING 12436
SWIDTH 941 0
DWIDTH 16 0
BBX 12 16 3 -2
BITMAP
2020
1E90
0450
0840
0000
8E00
F100
4080
0080
0080
0080
0100
0100
0200
0400
1800
ENDCHAR
STARTCHAR U+3095
ENCODING 12437
SWIDTH 941 0
DWIDTH 16 0
BBX 10 10 3 -2
BITMAP
1000
0800
0B00
BC80
D240
12C0
2240
2400
4C00
8800
ENDCHAR
STARTCHAR U+3096
ENCODING 12438
SWIDTH 941 0
DWIDTH 16 0
BBX 9 10 3 -2
BITMAP
0400
8280
5300
4E00
8200
9200
A200
4200
4400
0800
ENDCHAR
STARTCHAR U+309B
ENCODING 12443
SWIDTH 941 0
DWIDTH 16 0
BBX 5 5 0 9
BITMAP
20
90
48
28
20
ENDCHAR
STARTCHAR U+309C
ENCODING 12444
SWIDTH 941 0
DWIDTH 16 0
BBX 5 5 0 9
BITMAP
70
88
88
88
70
ENDCHAR
STARTCHAR U+309D
ENCODING 12445
SWIDTH 941 0
DWIDTH 16 0
BBX 7 10 4 1
BITMAP
80
80
40
40
20
10
08
04
1A
62
ENDCHAR
STARTCHAR U+309E
ENCODING 12446
SWIDTH 941 0
DWIDTH 16 0
BBX 9 12 4 1
BITMAP
0100
0080
8480
8200
4200
4000
2000
1000
0800
0400
1A00
6200
ENDCHAR
STARTCHAR U+30A1
ENCODING 12449
SWIDTH 941 0
DWIDTH 16 0
BBX 9 8 3 -1
BITMAP
8F80
7100
0200
0C00
0800
0800
1000
6000
ENDCHAR
STARTCHAR U+30A2
ENCODING 12450
SWIDTH 941 0
DWIDTH 16 0
BBX 11 13 2 -1
BITMAP
0040
87E0
7840
0080
0900
0600
0400
0400
0400
0800
0800
1000
2000
ENDCHAR
STARTCHAR U+30A3
ENCODING 12451
SWIDTH 941 0
DWIDTH 16 0
BBX 7 10 3 -2
BITMAP
04
06
08
18
28
48
88
08
08
08
ENDCHAR
STARTCHAR U+30A4
ENCODING 12452
SWIDTH 941 0
DWIDTH 16 0
BBX 9 14 2 -1
BITMAP
0100
0180
0200
0200
0400
0800
1400
2400
4400
8400
0400
0400
0400
0400
ENDCHAR
STARTCHAR U+30A5
ENCODING 12453
SWIDTH 941 0
DWIDTH 16 0
BBX 8 10 4 -2
BITMAP
30
10
9F
E1
81
82
02
04
08
30
ENDCHAR
STARTCHAR U+30A6
ENCODING 12454
SWIDTH 941 0
DWIDTH 16 0
BBX 11 13 2 -1
BITMAP
0C00
0400
0440
C7E0
7840
4040
4080
4080
0100
0100
0200
0400
1800
ENDCHAR
STARTCHAR U+30A7
ENCODING 12455
SWIDTH 941 0
DWIDTH 16 0
BBX 9 7 3 -1
BITMAP
4F00
3800
0800
0800
0800
8F80
7000
ENDCHAR
STARTCHAR U+30A8
ENCODING 12456
SWIDTH 941 0
DWIDTH 16 0
BBX 13 9 1 1
BITMAP
21E0
1E00
0200
0200
0200
0200
0200
87F0
7808
ENDCHAR
STARTCHAR U+30A9
ENCODING 12457
SWIDTH 941 0
DWIDTH 16 0
BBX 9 10 3 -2
BITMAP
0C00
0400
8780
7C00
1400
2400
4400
9400
0C00
0400
ENDCHAR
STARTCHAR U+30AA
ENCODING 12458
SWIDTH 941 0
DWIDTH 16 0
BBX 12 14 1 -1
BITMAP
0300
0100
0100
0100
87F0
7B00
0500
0500
0900
1100
2100
4500
8300
0100
ENDCHAR
STARTCHAR U+30AB
ENCODING 12459
SWIDTH 941 0
DWIDTH 16 0
BBX 10 13 2 0
BITMAP
0C00
0400
0400
87C0
7840
0840
1040
1080
2080
2080
4500
4300
8200
ENDCHAR
STARTCHAR U+30AC
ENCODING 12460
SWIDTH 941 0
DWIDTH 16 0
BBX 13 14 2 0
BITMAP
0010
0C48
0428
0420
87C0
7840
0840
1040
1080
2080
2080
4500
4300
8200
ENDCHAR
STARTCHAR U+30AD
ENCODING 12461
SWIDTH 941 0
DWIDTH 16 0
BBX 12 14 1 -1
BITMAP
0C00
0400
0400
25C0
1E00
0400
0400
02F0
8F00
7200
0200
0200
0200
0200
ENDCHAR
STARTCHAR U+30AE
ENCODING 12462
SWIDTH 941 0
DWIDTH 16 0
BBX 14 15 1 -1
BITMAP
0008
0C24
0414
0410
25C0
1E00
0400
0400
02F0
8F00
7200
0200
0200
0200
0200
ENDCHAR
STARTCHAR U+30AF
ENCODING 12463
SWIDTH 941 0
DWIDTH 16 0
BBX 10 14 2 -1
BITMAP
0800
0400
0480
0FC0
1080
2100
4100
8200
0200
0400
0800
1000
2000
C000
ENDCHAR
STARTCHAR U+30B0
ENCODING 12464
SWIDTH 941 0
DWIDTH 16 0
BBX 13 15 2 -1
BITMAP
0010
0848
0428
04A0
0F80
1080
2100
4100
8200
0200
0400
0800
1000
2000
C000
ENDCHAR
STARTCHAR U+30B1
ENCODING 12465
SWIDTH 941 0
DWIDTH 16 0
BBX 12 14 1 -1
BITMAP
1800
0800
0800
1000
11F0
3E00
2100
4100
8200
0200
0400
0400
0800
1000
ENDCHAR
STARTCHAR U+30B2
ENCODING 12466
SWIDTH 941 0
DWIDTH 16 0
BBX 14 15 1 -1
BITMAP
0008
1824
0814
0810
1000
11F0
3E00
2100
4100
8200
0200
0400
0400
0800
1000
ENDCHAR
STARTCHAR U+30B3
ENCODING 12467
SWIDTH 941 0
DWIDTH 16 0
BBX 10 10 3 1
BITMAP
0080
87C0
7880
0080
0080
0080
0080
0080
8F80
7000
ENDCHAR
STARTCHAR U+30B4
ENCODING 12468
SWIDTH 941 0
DWIDTH 16 0
BBX 12 13 3 1
BITMAP
0020
0090
0050
0040
8780
7880
0080
0080
0080
0080
0080
8F80
7000
ENDCHAR
STARTCHAR U+30B5
ENCODING 12469
SWIDTH 941 0
DWIDTH 16 0
BBX 13 13 1 -1
BITMAP
0180
1880
0880
0880
8BF8
7C80
0880
0900
0100
0100
0200
0200
0400
ENDCHAR
STARTCHAR U+30B6
ENCODING 12470
SWIDTH 941 0
DWIDTH 16 0
BBX 14 15 1 -1
BITMAP
0008
0024
0194
1890
0880
0880
8BF8
7C80
0880
0900
0100
0100
0200
0200
0400
ENDCHAR
STARTCHAR U+30B7
ENCODING 12471
SWIDTH 941 0
DWIDTH 16 0
BBX 11 12 3 0
BITMAP
3000
0800
0000
0020
C040
2080
0100
0200
0400
0800
B000
C000
ENDCHAR
STARTCHAR U+30B8
ENCODING 12472
SWIDTH 941 0
DWIDTH 16 0
BBX 12 14 3 0
BITMAP
0020
0090
3050
0840
0000
0020
C040
2080
0100
0200
0400
0800
B000
C000
ENDCHAR
STARTCHAR U+30B9
ENCODING 12473
SWIDTH 941 0
DWIDTH 16 0
BBX 11 11 2 0
BITMAP
4780
3900
0100
0200
0200
0500
0500
0880
1040
2020
C020
ENDCHAR
STARTCHAR U+30BA
ENCODING 12474
SWIDTH 941 0
DWIDTH 16 0
BBX 13 14 2 0
BITMAP
0010
0048
0028
47A0
3900
0100
0200
0200
0500
0500
0880
1040
2020
C020
ENDCHAR
STARTCHAR U+30BB
ENCODING 12475
SWIDTH 941 0
DWIDTH 16 0
BBX 12 12 1 0
BITMAP
0C00
0400
0400
0470
05A0
8E20
7440
0480
0400
0400
0400
03F0
ENDCHAR
STARTCHAR U+30BC
ENCODING 12476
SWIDTH 941 0
DWIDTH 16 0
BBX 14 14 1 0
BITMAP
0008
0024
0C14
0410
0400
0470
05A0
8E20
7440
0480
0400
0400
0400
03F0
ENDCHAR
STARTCHAR U+30BD
ENCODING 12477
SWIDTH 941 0
DWIDTH 16 0
BBX 9 13 3 -1
BITMAP
0180
8080
4080
2100
2100
0100
0200
0200
0400
0400
0800
1000
2000
ENDCHAR
STARTCHAR U+30BE
ENCODING 12478
SWIDTH 941 0
DWIDTH 16 0
BBX 13 15 2 -1
BITMAP
0010
0048
0028
81A0
4080
2100
2100
0100
0200
0200
0400
0400
0800
1000
2000
ENDCHAR
STARTCHAR U+30BF
ENCODING 12479
SWIDTH 941 0
DWIDTH 16 0
BBX 10 13 2 -1
BITMAP
1800
0880
0FC0
1080
1080
2900
4500
8200
0200
0400
0800
1000
6000
ENDCHAR
STARTCHAR U+30C0
ENCODING 12480
SWIDTH 941 0
DWIDTH 16 0
BBX 13 15 2 -1
BITMAP
0010
0048
1828
08A0
0F80
1080
1080
2900
4500
8200
0200
0400
0800
1000
6000
ENDCHAR
STARTCHAR U+30C1
ENCODING 12481
SWIDTH 941 0
DWIDTH 16 0
BBX 12 13 1 -1
BITMAP
01C0
0600
3A00
0200
83F0
7E00
0200
0200
0200
0400
0400
0800
1000
ENDCHAR
STARTCHAR U+30C2
ENCODING 12482
SWIDTH 941 0
DWIDTH 16 0
BBX 14 15 1 -1
BITMAP
0008
0024
0194
0610
3A00
0200
83F0
7E00
0200
0200
0200
0400
0400
0800
1000
ENDCHAR
STARTCHAR U+30C3
ENCODING 12483
SWIDTH 941 0
DWIDTH 16 0
BBX 9 9 3 -2
BITMAP
1180
8880
4880
4100
0100
0200
0200
0400
0800
ENDCHAR
STARTCHAR U+30C4
ENCODING 12484
SWIDTH 941 0
DWIDTH 16 0
BBX 11 12 2 -1
BITMAP
0860
8420
4440
4040
0080
0080
0100
0100
0200
0400
0800
1000
ENDCHAR
STARTCHAR U+30C5
ENCODING 12485
SWIDTH 941 0
DWIDTH 16 0
BBX 14 15 1 -1
BITMAP
0008
0024
0014
0810
84C0
4440
4040
0080
0080
0100
0100
0200
0400
0800
1000
ENDCHAR
STARTCHAR U+30C6
ENCODING 12486
SWIDTH 941 0
DWIDTH 16 0
BBX 12 13 1 -1
BITMAP
11C0
0E00
0000
0000
87F0
7A00
0200
0200
0200
0400
0400
0800
1000
ENDCHAR
STARTCHAR U+30C7
ENCODING 12487
SWIDTH 941 0
DWIDTH 16 0
BBX 14 15 1 -1
BITMAP
0008
0024
1194
0E10
0000
0000
87F0
7A00
0200
0200
0200
0400
0400
0800
1000
ENDCHAR
STARTCHAR U+30C8
ENCODING 12488
SWIDTH 941 0
DWIDTH 16 0
BBX 7 14 5 -1
BITMAP
C0
40
40
40
40
70
48
44
42
40
40
40
40
40
ENDCHAR
STARTCHAR U+30C9
ENCODING 12489
SWIDTH 941 0
DWIDTH 16 0
BBX 9 14 5 -1
BITMAP
C100
4480
4280
4200
4000
7000
4800
4400
4200
4000
4000
4000
4000
4000
ENDCHAR
STARTCHAR U+30CA
ENCODING 12490
SWIDTH 941 0
DWIDTH 16 0
BBX 12 14 1 -1
BITMAP
0600
0200
0200
0200
83F0
7E00
0200
0200
0400
0400
0400
0800
0800
1000
ENDCHAR
STARTCHAR U+30CB
ENCODING 12491
SWIDTH 941 0
DWIDTH 16 0
BBX 13 8 1 2
BITMAP
11C0
0E00
0000
0000
0000
0000
83F8
7C00
ENDCHAR
STARTCHAR U+30CC
ENCODING 12492
SWIDTH 941 0
DWIDTH 16 0
BBX 10 11 2 0
BITMAP
4380
3C80
0100
0100
1A00
0600
0500
0880
1040
2040
C000
ENDCHAR
STARTCHAR U+30CD
ENCODING 12493
SWIDTH 941 0
DWIDTH 16 0
BBX 12 15 1 -1
BITMAP
0400
0200
0100
0000
2380
1CC0
0100
0280
0640
0A20
1210
2210
C200
0200
0200
ENDCHAR
STARTCHAR U+30CE
ENCODING 12494
SWIDTH 941 0
DWIDTH 16 0
BBX 8 13 2 -1
BITMAP
03
01
01
01
02
02
04
04
08
10
20
40
80
ENDCHAR
STARTCHAR U+30CF
ENCODING 12495
SWIDTH 941 0
DWIDTH 16 0
BBX 13 10 1 1
BITMAP
0080
1040
0820
0810
1010
1008
2008
2008
4000
8000
ENDCHAR
STARTCHAR U+30D0
ENCODING 12496
SWIDTH 941 0
DWIDTH 16 0
BBX 14 13 1 1
BITMAP
0008
0024
0014
0090
1040
0820
0810
1010
1008
2008
2008
4000
8000
ENDCHAR
STARTCHAR U+30D1
ENCODING 12497
SWIDTH 941 0
DWIDTH 16 0
BBX 14 13 1 1
BITMAP
0018
0024
0024
0098
1040
0820
0810
1010
1008
2008
2008
4000
8000
ENDCHAR
STARTCHAR U+30D2
ENCODING 12498
SWIDTH 941 0
DWIDTH 16 0
BBX 9 10 3 1
BITMAP
C000
4000
4300
4C00
7000
4000
4000
4000
4000
3F80
ENDCHAR
STARTCHAR U+30D3
ENCODING 12499
SWIDTH 941 0
DWIDTH 16 0
BBX 12 13 3 1
BITMAP
0020
0090
0050
C040
4000
4300
4C00
7000
4000
4000
4000
4000
3F80
ENDCHAR
STARTCHAR U+30D4
ENCODING 12500
SWIDTH 941 0
DWIDTH 16 0
BBX 12 13 3 1
BITMAP
0060
0090
0090
C060
4000
4300
4C00
7000
4000
4000
4000
4000
3F80
ENDCHAR
STARTCHAR U+30D5
ENCODING 12501
SWIDTH 941 0
DWIDTH 16 0
BBX 10 12 2 -1
BITMAP
01C0
8E40
7040
0080
0080
0100
0100
0200
0400
0800
1000
2000
ENDCHAR
STARTCHAR U+30D6
ENCODING 12502
SWIDTH 941 0
DWIDTH 16 0
BBX 14 15 1 -1
BITMAP
0008
0024
0014
01D0
8E40
7040
0080
0080
0100
0100
0200
0400
0800
1000
2000
ENDCHAR
STARTCHAR U+30D7
ENCODING 12503
SWIDTH 941 0
DWIDTH 16 0
BBX 14 15 1 -1
BITMAP
0018
0024
0024
01D8
8E40
7040
0080
0080
0100
0100
0200
0400
0800
1000
2000
ENDCHAR
STARTCHAR U+30D8
ENCODING 12504
SWIDTH 941 0
DWIDTH 16 0
BBX 13 7 1 3
BITMAP
0600
0900
1080
2040
A020
4010
0008
ENDCHAR
STARTCHAR U+30D9
ENCODING 12505
SWIDTH 941 0
DWIDTH 16 0
BBX 13 11 1 3
BITMAP
0020
0090
0050
0040
0600
0900
1080
2040
A020
4010
0008
ENDCHAR
STARTCHAR U+30DA
ENCODING 12506
SWIDTH 941 0
DWIDTH 16 0
BBX 13 11 1 3
BITMAP
0060
0090
0090
0060
0600
0900
1080
2040
A020
4010
0008
ENDCHAR
STARTCHAR U+30DB
ENCODING 12507
SWIDTH 941 0
DWIDTH 16 0
BBX 11 14 2 -1
BITMAP
0800
0400
0400
0400
87E0
7C00
0400
0480
2440
2440
2420
4420
8C00
0400
ENDCHAR
STARTCHAR U+30DC
ENCODING 12508
SWIDTH 941 0
DWIDTH 16 0
BBX 13 15 2 -1
BITMAP
0010
0848
0428
0420
0400
87E0
7C00
0400
0480
2440
2440
2420
4420
8C00
0400
ENDCHAR
STARTCHAR U+30DD
ENCODING 12509
SWIDTH 941 0
DWIDTH 16 0
BBX 13 15 2 -1
BITMAP
0030
0848
0448
0430
0400
87E0
7C00
0400
0480
2440
2440
2420
4420
8C00
0400
ENDCHAR
STARTCHAR U+30DE
ENCODING 12510
SWIDTH 941 0
DWIDTH 16 0
BBX 12 9 1 1
BITMAP
00E0
8F30
7040
0040
0080
0D00
0200
0100
0080
ENDCHAR
STARTCHAR U+30DF
ENCODING 12511
SWIDTH 941 0
DWIDTH 16 0
BBX 7 12 4 0
BITMAP
60
18
04
00
60
18
00
00
E0
18
04
02
ENDCHAR
STARTCHAR U+30E0
ENCODING 12512
SWIDTH 941 0
DWIDTH 16 0
BBX 13 12 1 0
BITMAP
0400
0200
0200
0400
0400
0800
0880
0840
10E0
1710
F808
4000
ENDCHAR
STARTCHAR U+30E1
ENCODING 12513
SWIDTH 941 0
DWIDTH 16 0
BBX 9 13 2 -1
BITMAP
0300
0100
0100
3200
0A00
0400
0A00
0900
1080
1080
2000
4000
8000
ENDCHAR
STARTCHAR U+30E2
ENCODING 12514
SWIDTH 941 0
DWIDTH 16 0
BBX 12 10 1 1
BITMAP
23C0
1C00
0400
0400
87F0
7C00
0400
0400
0400
03E0
ENDCHAR
STARTCHAR U+30E3
ENCODING 12515
SWIDTH 941 0
DWIDTH 16 0
BBX 9 10 3 -2
BITMAP
3000
1000
1380
9C80
7100
1200
0800
0800
0800
0800
ENDCHAR
STARTCHAR U+30E4
ENCODING 12516
SWIDTH 941 0
DWIDTH 16 0
BBX 12 14 1 -1
BITMAP
1800
0800
0800
0860
07B0
9C20
E440
0480
0400
0200
0200
0200
0200
0200
ENDCHAR
STARTCHAR U+30E5
ENCODING 12517
SWIDTH 941 0
DWIDTH 16 0
BBX 9 7 3 0
BITMAP
4600
3A00
0200
0400
0400
8F80
7000
ENDCHAR
STARTCHAR U+30E6
ENCODING 12518
SWIDTH 941 0
DWIDTH 16 0
BBX 13 9 1 1
BITMAP
2380
1CC0
0080
0080
0100
0100
0100
8FF8
7000
ENDCHAR
STARTCHAR U+30E7
ENCODING 12519
SWIDTH 941 0
DWIDTH 16 0
BBX 8 8 4 -1
BITMAP
9E
63
02
5E
62
02
9E
62
ENDCHAR
STARTCHAR U+30E8
ENCODING 12520
SWIDTH 941 0
DWIDTH 16 0
BBX 9 10 3 1
BITMAP
8F00
7180
0100
0100
4F00
3100
0100
0100
8F00
7100
ENDCHAR
STARTCHAR U+30E9
ENCODING 12521
SWIDTH 941 0
DWIDTH 16 0
BBX 10 13 3 -1
BITMAP
4700
3800
0000
0000
87C0
7880
0080
0100
0100
0200
0400
0800
1000
ENDCHAR
STARTCHAR U+30EA
ENCODING 12522
SWIDTH 941 0
DWIDTH 16 0
BBX 7 14 4 -1
BITMAP
06
C2
42
42
42
42
42
42
42
02
04
04
08
10
ENDCHAR
STARTCHAR U+30EB
ENCODING 12523
SWIDTH 941 0
DWIDTH 16 0
BBX 14 11 1 0
BITMAP
0300
1100
0900
0900
0900
0904
1108
1110
2160
4180
8100
ENDCHAR
STARTCHAR U+30EC
ENCODING 12524
SWIDTH 941 0
DWIDTH 16 0
BBX 11 13 3 -1
BITMAP
C000
4000
4000
4000
4000
4020
4040
4080
4100
4200
4C00
7000
4000
ENDCHAR
STARTCHAR U+30ED
ENCODING 12525
SWIDTH 941 0
DWIDTH 16 0
BBX 10 10 3 0
BITMAP
0F80
F0C0
4080
4080
4080
4100
4100
4100
7F80
4000
ENDCHAR
STARTCHAR U+30EE
ENCODING 12526
SWIDTH 941 0
DWIDTH 16 0
BBX 8 9 3 -2
BITMAP
CF
71
41
42
42
04
04
08
10
ENDCHAR
STARTCHAR U+30EF
ENCODING 12527
SWIDTH 941 0
DWIDTH 16 0
BBX 11 12 2 -1
BITMAP
83C0
7C60
4040
4040
4080
4080
0080
0100
0100
0200
0400
0800
ENDCHAR
STARTCHAR U+30F0
ENCODING 12528
SWIDTH 941 0
DWIDTH 16 0
BBX 12 14 1 -1
BITMAP
0600
0200
0200
43C0
3E00
2200
1200
97F0
7A00
0200
0200
0200
0200
0200
ENDCHAR
STARTCHAR U+30F1
ENCODING 12529
SWIDTH 941 0
DWIDTH 16 0
BBX 13 9 1 1
BITMAP
21E0
1E40
0080
0100
0600
0200
0200
87F8
7800
ENDCHAR
STARTCHAR U+30F2
ENCODING 12530
SWIDTH 941 0
DWIDTH 16 0
BBX 10 12 2 -1
BITMAP
8FC0
7080
0080
0080
4F80
7100
0100
0200
0200
0400
0800
1000
ENDCHAR
STARTCHAR U+30F3
ENCODING 12531
SWIDTH 941 0
DWIDTH 16 0
BBX 11 11 3 0
BITMAP
C000
2020
1040
0040
0080
0100
0200
0400
0800
9000
6000
ENDCHAR
STARTCHAR U+30F4
ENCODING 12532
SWIDTH 941 0
DWIDTH 16 0
BBX 14 15 1 -1
BITMAP
0008
0024
0C14
0410
0440
C7E0
7840
4040
4080
4080
0100
0100
0200
0400
1800
ENDCHAR
STARTCHAR U+30F5
ENCODING 12533
SWIDTH 941 0
DWIDTH 16 0
BBX 9 10 3 -2
BITMAP
1800
0800
4F80
3880
0880
1080
1100
2500
4300
8200
ENDCHAR
STARTCHAR U+30F6
ENCODING 12534
SWIDTH 941 0
DWIDTH 16 0
BBX 10 11 2 -2
BITMAP
3000
1000
1000
27C0
3A00
4200
8200
0400
0400
0800
1000
ENDCHAR
STARTCHAR U+30F7
ENCODING 12535
SWIDTH 941 0
DWIDTH 16 0
BBX 13 15 2 -1
BITMAP
0010
0048
0028
83E0
7C40
4040
4040
4080
4080
0080
0100
0100
0200
0400
0800
ENDCHAR
STARTCHAR U+30F8
ENCODING 12536
SWIDTH 941 0
DWIDTH 16 0
BBX 14 15 1 -1
BITMAP
0008
0624
0214
0210
43C0
3E00
2200
1200
97F0
7A00
0200
0200
0200
0200
0200
ENDCHAR
STARTCHAR U+30F9
ENCODING 12537
SWIDTH 941 0
DWIDTH 16 0
BBX 14 13 1 1
BITMAP
0008
0024
0014
0010
21E0
1E40
0080
0100
0600
0200
0200
87F8
7800
ENDCHAR
STARTCHAR U+30FA
ENCODING 12538
SWIDTH 941 0
DWIDTH 16 0
BBX 13 15 2 -1
BITMAP
0010
0048
0028
8FA0
7080
0080
0080
4F80
7100
0100
0200
0200
0400
0800
1000
ENDCHAR
STARTCHAR U+30FB
ENCODING 12539
SWIDTH 941 0
DWIDTH 16 0
BBX 2 2 7 5
BITMAP
C0
C0
ENDCHAR
STARTCHAR U+30FC
ENCODING 12540
SWIDTH 941 0
DWIDTH 16 0
BBX 13 3 1 4
BITMAP
80F8
7F00
1000
ENDCHAR
STARTCHAR U+30FD
ENCODING 12541
SWIDTH 941 0
DWIDTH 16 0
BBX 6 8 5 2
BITMAP
80
40
20
10
08
08
04
04
ENDCHAR
STARTCHAR U+30FE
ENCODING 12542
SWIDTH 941 0
DWIDTH 16 0
BBX 8 11 4 2
BITMAP
02
01
09
84
44
20
10
08
08
04
04
ENDCHAR
STARTCHAR U+3105
ENCODING 12549
SWIDTH 941 0
DWIDTH 16 0
BBX 11 14 2 -1
BITMAP
1000
1000
2000
2000
47E0
F840
8040
0040
0040
0080
0080
0480
0300
0200
ENDCHAR
STARTCHAR U+3106
ENCODING 12550
SWIDTH 941 0
DWIDTH 16 0
BBX 10 14 2 -1
BITMAP
2000
2000
4000
4380
FC80
8100
0100
1A00
0600
0500
0880
1040
2040
C000
ENDCHAR
STARTCHAR U+3107
ENCODING 12551
SWIDTH 941 0
DWIDTH 16 0
BBX 11 12 2 0
BITMAP
83E0
7C20
4020
4020
4020
4020
4020
4020
4020
4020
4020
4020
ENDCHAR
STARTCHAR U+3108
ENCODING 12552
SWIDTH 941 0
DWIDTH 16 0
BBX 13 11 1 0
BITMAP
81F8
7E00
2000
2000
2000
2000
2000
2000
2000
1000
0FF0
ENDCHAR
STARTCHAR U+3109
ENCODING 12553
SWIDTH 941 0
DWIDTH 16 0
BBX 12 14 2 -1
BITMAP
1000
1000
2000
27F0
7A20
4420
0420
0820
0820
1040
2040
C240
0180
0100
ENDCHAR
STARTCHAR U+310A
ENCODING 12554
SWIDTH 941 0
DWIDTH 16 0
BBX 12 13 2 0
BITMAP
0400
0400
0400
0400
87E0
7C00
0800
0880
1040
11E0
2E20
3010
C010
ENDCHAR
STARTCHAR U+310B
ENCODING 12555
SWIDTH 941 0
DWIDTH 16 0
BBX 12 13 2 -1
BITMAP
8F00
7200
0400
0400
09F0
1E20
3020
0020
0020
0040
0240
01C0
0080
ENDCHAR
STARTCHAR U+310C
ENCODING 12556
SWIDTH 941 0
DWIDTH 16 0
BBX 12 13 2 0
BITMAP
0200
1200
1200
2200
27F0
7A20
4420
0420
0840
1040
2240
4180
8100
ENDCHAR
STARTCHAR U+310D
ENCODING 12557
SWIDTH 941 0
DWIDTH 16 0
BBX 10 13 2 0
BITMAP
1080
0840
0840
1080
2100
4200
8400
4200
2100
1080
1080
0840
0840
ENDCHAR
STARTCHAR U+310E
ENCODING 12558
SWIDTH 941 0
DWIDTH 16 0
BBX 12 13 2 -1
BITMAP
87F0
7800
0800
1000
13E0
3C40
2040
0040
0040
0080
0480
0300
0200
ENDCHAR
STARTCHAR U+310F
ENCODING 12559
SWIDTH 941 0
DWIDTH 16 0
BBX 12 12 2 0
BITMAP
61F0
3E00
2000
2000
2000
2000
2000
2000
2000
4000
4000
8000
ENDCHAR
STARTCHAR U+3110
ENCODING 12560
SWIDTH 941 0
DWIDTH 16 0
BBX 8 14 3 -1
BITMAP
03
01
C1
41
41
41
41
43
4D
71
C1
01
01
01
ENDCHAR
STARTCHAR U+3111
ENCODING 12561
SWIDTH 941 0
DWIDTH 16 0
BBX 8 14 3 -1
BITMAP
06
02
04
08
10
20
C0
20
10
08
04
02
01
01
ENDCHAR
STARTCHAR U+3112
ENCODING 12562
SWIDTH 941 0
DWIDTH 16 0
BBX 12 13 1 -1
BITMAP
00F0
8F00
7200
0200
0200
0200
0200
0200
0200
0200
0200
0200
0200
ENDCHAR
STARTCHAR U+3113
ENCODING 12563
SWIDTH 941 0
DWIDTH 16 0
BBX 13 13 1 0
BITMAP
0600
0200
6260
2220
2220
2220
23E0
3E20
6200
0200
0200
83F8
7C00
ENDCHAR
STARTCHAR U+3114
ENCODING 12564
SWIDTH 941 0
DWIDTH 16 0
BBX 9 14 3 -1
BITMAP
0400
0400
0980
1100
6200
0400
0C00
3400
C400
0400
0400
0400
0400
0400
ENDCHAR
STARTCHAR U+3115
ENCODING 12565
SWIDTH 941 0
DWIDTH 16 0
BBX 12 13 2 -1
BITMAP
43F0
3C20
0020
63E0
3C20
2020
2000
2000
2000
4000
4000
4000
8000
ENDCHAR
STARTCHAR U+3116
ENCODING 12566
SWIDTH 941 0
DWIDTH 16 0
BBX 10 12 3 0
BITMAP
CF80
70C0
4080
5080
4880
4480
4480
4100
4100
4100
7F80
4000
ENDCHAR
STARTCHAR U+3117
ENCODING 12567
SWIDTH 941 0
DWIDTH 16 0
BBX 12 13 2 -1
BITMAP
83F0
7C20
0420
0420
0420
0420
04A0
0460
0440
0400
0400
0400
0400
ENDCHAR
STARTCHAR U+3118
ENCODING 12568
SWIDTH 941 0
DWIDTH 16 0
BBX 13 14 1 -1
BITMAP
0C00
0400
0400
85F8
7E00
0800
09F0
1E20
1020
0040
0040
0080
0100
0200
ENDCHAR
STARTCHAR U+3119
ENCODING 12569
SWIDTH 941 0
DWIDTH 16 0
BBX 12 12 2 0
BITMAP
0C00
0400
0400
0800
0800
1080
1040
1040
21A0
2620
3810
C010
ENDCHAR
STARTCHAR U+311A
ENCODING 12570
SWIDTH 941 0
DWIDTH 16 0
BBX 10 14 3 -1
BITMAP
8040
4040
2080
1100
1200
0400
0C00
0400
0400
0400
0400
0400
0400
0400
ENDCHAR
STARTCHAR U+311B
ENCODING 12571
SWIDTH 941 0
DWIDTH 16 0
BBX 11 11 2 0
BITMAP
83E0
7C00
0400
0400
1C00
2200
4000
4000
4040
2080
1F00
ENDCHAR
STARTCHAR U+311C
ENCODING 12572
SWIDTH 941 0
DWIDTH 16 0
BBX 11 13 2 0
BITMAP
0C00
0400
0400
87E0
7C00
0200
0200
1E00
2200
4000
4040
2080
1F00
ENDCHAR
STARTCHAR U+311D
ENCODING 12573
SWIDTH 941 0
DWIDTH 16 0
BBX 13 13 1 0
BITMAP
00C0
1840
0840
0840
08F8
8F40
7840
0880
0880
0900
0800
0400
03F0
ENDCHAR
STARTCHAR U+311E
ENCODING 12574
SWIDTH 941 0
DWIDTH 16 0
BBX 13 13 1 -1
BITMAP
87F0
7900
0100
1100
1100
22F8
3F10
4210
0410
0420
0820
1040
6080
ENDCHAR
STARTCHAR U+311F
ENCODING 12575
SWIDTH 941 0
DWIDTH 16 0
BBX 14 14 1 -1
BITMAP
0200
0700
9A00
6200
0100
0100
0100
0080
0080
0040
0040
0020
0010
000C
ENDCHAR
STARTCHAR U+3120
ENCODING 12576
SWIDTH 941 0
DWIDTH 16 0
BBX 12 13 2 0
BITMAP
0400
0400
0880
0880
1100
1200
2E80
7440
0840
0820
11E0
2E10
F010
ENDCHAR
STARTCHAR U+3121
ENCODING 12577
SWIDTH 941 0
DWIDTH 16 0
BBX 11 12 2 0
BITMAP
43E0
3C40
0040
6080
1880
0500
0300
0280
0440
0820
3020
C000
ENDCHAR
STARTCHAR U+3122
ENCODING 12578
SWIDTH 941 0
DWIDTH 16 0
BBX 13 13 1 -1
BITMAP
87E0
7840
0040
1080
1090
23F8
7C10
4010
0020
0020
0040
0040
0080
ENDCHAR
STARTCHAR U+3123
ENCODING 12579
SWIDTH 941 0
DWIDTH 16 0
BBX 11 14 2 -1
BITMAP
6000
2000
2000
2000
4000
47E0
F840
8040
0040
0080
0080
0080
0100
0100
ENDCHAR
STARTCHAR U+3124
ENCODING 12580
SWIDTH 941 0
DWIDTH 16 0
BBX 13 14 1 -1
BITMAP
0600
0200
0200
83F8
7E00
0580
0500
0900
0900
1100
1100
2100
40F8
8000
ENDCHAR
STARTCHAR U+3125
ENCODING 12581
SWIDTH 941 0
DWIDTH 16 0
BBX 12 12 2 0
BITMAP
0C00
0400
0400
0800
0800
1000
1000
1000
2000
2000
23F0
FC00
ENDCHAR
STARTCHAR U+3126
ENCODING 12582
SWIDTH 941 0
DWIDTH 16 0
BBX 13 13 1 -1
BITMAP
0300
1100
0900
0900
0900
0900
0900
1100
1100
2100
2080
4078
8000
ENDCHAR
STARTCHAR U+3127
ENCODING 12583
SWIDTH 941 0
DWIDTH 16 0
BBX 13 2 1 5
BITMAP
81F8
7E00
ENDCHAR
STARTCHAR U+3128
ENCODING 12584
SWIDTH 941 0
DWIDTH 16 0
BBX 11 13 2 0
BITMAP
0040
0040
6040
1080
0880
0500
0200
0300
0480
0840
1040
2020
C020
ENDCHAR
STARTCHAR U+3129
ENCODING 12585
SWIDTH 941 0
DWIDTH 16 0
BBX 11 12 2 0
BITMAP
C060
4020
4020
4020
4020
4020
4020
4020
4020
43E0
7C20
4020
ENDCHAR
STARTCHAR U+312A
ENCODING 12586
SWIDTH 941 0
DWIDTH 16 0
BBX 13 13 1 -1
BITMAP
83F8
7C00
0400
0400
05F0
0E20
0820
0820
1020
1040
2240
C180
0100
ENDCHAR
STARTCHAR U+312B
ENCODING 12587
SWIDTH 941 0
DWIDTH 16 0
BBX 13 13 1 -1
BITMAP
83F8
7C80
0880
0880
0880
0880
0880
0880
0880
1080
1080
2078
4000
ENDCHAR
STARTCHAR U+312C
ENCODING 12588
SWIDTH 941 0
DWIDTH 16 0
BBX 12 14 2 -1
BITMAP
0600
0200
63F0
3E00
2000
2000
2000
2000
2000
2000
2000
4000
4000
8000
ENDCHAR
STARTCHAR U+312D
ENCODING 12589
SWIDTH 941 0
DWIDTH 16 0
BBX 13 13 1 -1
BITMAP
81F8
7E00
0200
63F0
3E20
2220
2220
2220
2220
2220
0200
0200
0200
ENDCHAR
STARTCHAR U+312E
ENCODING 12590
SWIDTH 941 0
DWIDTH 16 0
BBX 11 14 2 0
BITMAP
0600
0600
0000
83E0
7C00
0400
0400
1C00
2200
4000
4000
4040
2080
1F00
ENDCHAR
STARTCHAR U+312F
ENCODING 12591
SWIDTH 941 0
DWIDTH 16 0
BBX 12 13 2 -1
BITMAP
8F00
7200
0400
09F0
1620
3820
0820
0820
0840
0A40
0980
0900
0800
ENDCHAR
STARTCHAR U+3190
ENCODING 12688
SWIDTH 941 0
DWIDTH 16 0
BBX 2 8 6 6
BITMAP
C0
40
40
40
40
40
40
40
ENDCHAR
STARTCHAR U+3191
ENCODING 12689
SWIDTH 941 0
DWIDTH 16 0
BBX 7 8 5 6
BITMAP
C0
40
40
42
44
48
70
40
ENDCHAR
STARTCHAR U+3192
ENCODING 12690
SWIDTH 941 0
DWIDTH 16 0
BBX 8 2 4 9
BITMAP
8F
70
ENDCHAR
STARTCHAR U+3193
ENCODING 12691
SWIDTH 941 0
DWIDTH 16 0
BBX 8 6 4 7
BITMAP
4E
30
00
00
8F
70
ENDCHAR
STARTCHAR U+3194
ENCODING 12692
SWIDTH 941 0
DWIDTH 16 0
BBX 8 6 4 7
BITMAP
4E
30
4C
30
8F
70
ENDCHAR
STARTCHAR U+3195
ENCODING 12693
SWIDTH 941 0
DWIDTH 16 0
BBX 8 7 4 6
BITMAP
CF
75
57
61
4F
71
41
ENDCHAR
STARTCHAR U+3196
ENCODING 12694
SWIDTH 941 0
DWIDTH 16 0
BBX 8 7 4 7
BITMAP
30
16
18
10
10
9F
70
ENDCHAR
STARTCHAR U+3197
ENCODING 12695
SWIDTH 941 0
DWIDTH 16 0
BBX 8 8 4 6
BITMAP
30
DF
72
52
5E
72
50
10
ENDCHAR
STARTCHAR U+3198
ENCODING 12696
SWIDTH 941 0
DWIDTH 16 0
BBX 8 7 4 6
BITMAP
8F
70
10
1C
12
10
10
ENDCHAR
STARTCHAR U+3199
ENCODING 12697
SWIDTH 941 0
DWIDTH 16 0
BBX 8 7 4 6
BITMAP
CF
72
5E
72
5E
72
10
ENDCHAR
STARTCHAR U+319A
ENCODING 12698
SWIDTH 941 0
DWIDTH 16 0
BBX 8 7 4 6
BITMAP
9E
64
18
20
42
82
7F
ENDCHAR
STARTCHAR U+319B
ENCODING 12699
SWIDTH 941 0
DWIDTH 16 0
BBX 8 7 4 6
BITMAP
8F
70
9F
72
5A
66
44
ENDCHAR
STARTCHAR U+319C
ENCODING 12700
SWIDTH 941 0
DWIDTH 16 0
BBX 8 7 4 6
BITMAP
8F
78
08
08
28
18
10
ENDCHAR
STARTCHAR U+319D
ENCODING 12701
SWIDTH 941 0
DWIDTH 16 0
BBX 8 7 4 6
BITMAP
4E
38
8F
78
14
22
C1
ENDCHAR
STARTCHAR U+319E
ENCODING 12702
SWIDTH 941 0
DWIDTH 16 0
BBX 8 8 4 6
BITMAP
14
D7
7D
D7
75
54
92
0F
ENDCHAR
STARTCHAR U+319F
ENCODING 12703
SWIDTH 941 0
DWIDTH 16 0
BBX 8 8 4 6
BITMAP
18
08
08
08
14
12
21
C1
ENDCHAR
STARTCHAR U+3220
ENCODING 12832
SWIDTH 941 0
DWIDTH 16 0
BBX 15 15 0 -1
BITMAP
1010
2008
4004
4004
8002
8002
A0FA
9F02
8002
8002
8002
4004
4004
2008
1010
ENDCHAR
STARTCHAR U+3221
ENCODING 12833
SWIDTH 941 0
DWIDTH 16 0
BBX 15 15 0 -1
BITMAP
1010
2008
4004
48E4
8702
8002
8002
8002
8002
8002
A0FA
5F04
4004
2008
1010
ENDCHAR
STARTCHAR U+3222
ENCODING 12834
SWIDTH 941 0
DWIDTH 16 0
BBX 15 15 0 -1
BITMAP
1010
2008
50F4
4F04
8002
8002
88E2
8702
8002
8002
8002
60FC
5F04
2008
1010
ENDCHAR
STARTCHAR U+3223
ENCODING 12835
SWIDTH 941 0
DWIDTH 16 0
BBX 15 15 0 -1
BITMAP
1010
2008
50F4
5F94
9292
9292
9292
9492
9472
9812
9012
50F4
5F14
3008
1010
ENDCHAR
STARTCHAR U+3224
ENCODING 12836
SWIDTH 941 0
DWIDTH 16 0
BBX 15 15 0 -1
BITMAP
1010
2008
50F4
4F04
8202
8202
92E2
8F42
8242
8442
8442
64FC
5F04
2008
1010
ENDCHAR
STARTCHAR U+3225
ENCODING 12837
SWIDTH 941 0
DWIDTH 16 0
BBX 15 15 0 -1
BITMAP
1010
2308
4104
4104
8102
A1FA
9F02
8002
84C2
8422
8822
4814
5014
2008
1010
ENDCHAR
STARTCHAR U+3226
ENCODING 12838
SWIDTH 941 0
DWIDTH 16 0
BBX 15 15 0 -1
BITMAP
1010
2608
4204
4204
8202
8272
A382
9E02
8202
8202
8242
4244
4244
21E8
1010
ENDCHAR
STARTCHAR U+3227
ENCODING 12839
SWIDTH 941 0
DWIDTH 16 0
BBX 15 15 0 -1
BITMAP
1010
2088
41C4
4484
8442
8442
8422
8422
8422
8812
8812
4814
5014
2008
1010
ENDCHAR
STARTCHAR U+3228
ENCODING 12840
SWIDTH 941 0
DWIDTH 16 0
BBX 15 15 0 -1
BITMAP
1010
2608
4204
4204
93E2
8E42
8242
8242
8242
8242
8452
4454
4454
2838
1010
ENDCHAR
STARTCHAR U+3229
ENCODING 12841
SWIDTH 941 0
DWIDTH 16 0
BBX 15 15 0 -1
BITMAP
1010
2308
4104
4104
8102
8102
A1FA
9F02
8102
8102
8102
4104
4104
2108
1010
ENDCHAR
STARTCHAR U+3231
ENCODING 12849
SWIDTH 941 0
DWIDTH 16 0
BBX 15 15 0 -1
BITMAP
1010
39C8
4944
4A74
CFC2
B842
9E7A
9BC2
AAE2
C952
894A
4A4C
4C44
2848
1010
ENDCHAR
STARTCHAR U+3232
ENCODING 12850
SWIDTH 941 0
DWIDTH 16 0
BBX 15 15 0 -1
BITMAP
1010
2608
4224
63F4
9E02
85C2
8E42
95C2
A642
C5C2
8642
4444
45C4
2448
1010
ENDCHAR
STARTCHAR U+3239
ENCODING 12857
SWIDTH 941 0
DWIDTH 16 0
BBX 15 15 0 -1
BITMAP
1010
2D88
44A4
4494
8892
8CFA
9B82
A882
C882
8842
8842
4854
4824
2838
1010
ENDCHAR
STARTCHAR U+32A4
ENCODING 12964
SWIDTH 941 0
DWIDTH 16 0
BBX 15 16 0 -2
BITMAP
07C0
1830
2608
4204
4204
8262
8382
8202
8202
8202
A3F2
5E04
4004
2008
1830
07C0
ENDCHAR
STARTCHAR U+32A5
ENCODING 12965
SWIDTH 941 0
DWIDTH 16 0
BBX 15 16 0 -2
BITMAP
07C0
1830
2308
4104
4104
B1F2
9F12
9112
9112
91F2
9F12
5104
4104
2108
1830
07C0
ENDCHAR
STARTCHAR U+32A6
ENCODING 12966
SWIDTH 941 0
DWIDTH 16 0
BBX 15 16 0 -2
BITMAP
07C0
1830
2008
4004
63F4
9E02
8202
83C2
8222
8202
8202
4204
4204
2208
1830
07C0
ENDCHAR
STARTCHAR U+32A7
ENCODING 12967
SWIDTH 941 0
DWIDTH 16 0
BBX 15 16 0 -2
BITMAP
07C0
1830
2608
4204
63F4
9E02
8402
84F2
8F82
8882
9082
68F4
4704
2008
1830
07C0
ENDCHAR
STARTCHAR U+32A8
ENCODING 12968
SWIDTH 941 0
DWIDTH 16 0
BBX 15 16 0 -2
BITMAP
07C0
1830
2608
4204
63F4
9E02
8402
84E2
8F22
9422
A422
44E4
4724
2408
1830
07C0
ENDCHAR
STARTCHAR U+32FF
ENCODING 13055
SWIDTH 941 0
DWIDTH 16 0
BBX 15 12 0 0
BITMAP
1020
2860
25DA
524E
8A7A
09CA
9E6A
64DA
054E
684A
1048
0840
ENDCHAR
STARTCHAR U+3303
ENCODING 13059
SWIDTH 941 0
DWIDTH 16 0
BBX 15 15 0 -2
BITMAP
9F00
E200
1400
1900
10FE
1080
2000
2300
4D00
0500
0510
0520
0940
0980
1100
ENDCHAR
STARTCHAR U+330D
ENCODING 13069
SWIDTH 941 0
DWIDTH 16 0
BBX 15 16 0 -2
BITMAP
3000
10C6
1E7A
F242
1242
2244
2244
5C7C
8844
0600
6400
44FE
4440
4400
0800
3000
ENDCHAR
STARTCHAR U+3314
ENCODING 13076
SWIDTH 941 0
DWIDTH 16 0
BBX 15 15 0 -1
BITMAP
3000
1000
1000
1C00
F000
1000
1000
1ECE
F072
0842
0842
0844
0844
007C
0044
ENDCHAR
STARTCHAR U+3318
ENCODING 13080
SWIDTH 941 0
DWIDTH 16 0
BBX 15 16 0 -2
BITMAP
3100
249C
3EE0
451E
45E4
8808
0808
1010
2360
C100
0100
0200
0240
05E0
1E30
0810
ENDCHAR
STARTCHAR U+3322
ENCODING 13090
SWIDTH 941 0
DWIDTH 16 0
BBX 15 16 0 -2
BITMAP
6080
2040
3F60
E202
2404
2098
2060
1F40
0080
0F80
0100
03F8
3D00
0100
0200
0C00
ENDCHAR
STARTCHAR U+3323
ENCODING 13091
SWIDTH 941 0
DWIDTH 16 0
BBX 15 16 0 -2
BITMAP
6080
2040
3F60
E202
2404
2098
2060
1F40
0200
0200
0200
0380
0260
0220
0200
0200
ENDCHAR
STARTCHAR U+3326
ENCODING 13094
SWIDTH 941 0
DWIDTH 16 0
BBX 14 16 1 -2
BITMAP
C200
4900
4500
4400
6000
5800
4C00
40C0
4340
4140
4140
0144
0248
0250
0460
0840
ENDCHAR
STARTCHAR U+3327
ENCODING 13095
SWIDTH 941 0
DWIDTH 16 0
BBX 13 15 2 -1
BITMAP
C000
4000
4000
4000
6000
5800
4A00
4100
4180
4008
4010
0420
0240
0380
0200
ENDCHAR
STARTCHAR U+332B
ENCODING 13099
SWIDTH 941 0
DWIDTH 16 0
BBX 15 15 0 -1
BITMAP
1380
6A80
2780
2400
24FE
4240
8200
0200
C030
4210
5990
E83C
5256
4990
3D10
ENDCHAR
STARTCHAR U+3336
ENCODING 13110
SWIDTH 941 0
DWIDTH 16 0
BBX 15 16 0 -2
BITMAP
0060
1044
187C
A448
6288
4310
0120
0040
6080
4818
7C68
4828
ABAA
122A
204C
4088
ENDCHAR
STARTCHAR U+333B
ENCODING 13115
SWIDTH 941 0
DWIDTH 16 0
BBX 15 16 0 -2
BITMAP
0380
0280
1B80
1400
A47E
6220
4300
0100
0410
0328
0810
0610
0040
0880
0700
0400
ENDCHAR
STARTCHAR U+3349
ENCODING 13129
SWIDTH 941 0
DWIDTH 16 0
BBX 15 15 0 -2
BITMAP
6000
1800
0C00
0000
6006
1064
0844
0044
C044
3044
0804
0C04
0008
0008
0030
ENDCHAR
STARTCHAR U+334A
ENCODING 13130
SWIDTH 941 0
DWIDTH 16 0
BBX 15 16 0 -2
BITMAP
380C
0468
0048
3848
0448
0008
7010
0C10
0460
0018
6A68
5528
502A
4BAA
4A4C
8888
ENDCHAR
STARTCHAR U+334D
ENCODING 13133
SWIDTH 941 0
DWIDTH 16 0
BBX 15 16 0 -2
BITMAP
0600
0400
4800
3100
10FE
2880
4C00
8030
60D0
2050
2050
3852
2694
2098
2110
2200
ENDCHAR
STARTCHAR U+3351
ENCODING 13137
SWIDTH 941 0
DWIDTH 16 0
BBX 14 16 1 -2
BITMAP
0C00
C800
8800
8888
8A48
8950
1110
1020
60C0
2000
2060
31A0
28A4
2CA8
20B0
2320
ENDCHAR
STARTCHAR U+3357
ENCODING 13143
SWIDTH 941 0
DWIDTH 16 0
BBX 13 15 1 -2
BITMAP
9E00
E200
8248
8528
04A8
0890
1020
2C40
0480
0400
0700
04C0
0440
0400
0400
ENDCHAR
STARTCHAR U+337B
ENCODING 13179
SWIDTH 941 0
DWIDTH 16 0
BBX 15 12 0 0
BITMAP
001C
4E0A
719E
14E8
5488
30AA
9FEA
70AC
10AA
114C
1116
1262
ENDCHAR
STARTCHAR U+337C
ENCODING 13180
SWIDTH 941 0
DWIDTH 16 0
BBX 15 12 0 0
BITMAP
0620
BA60
EBDA
AA4E
B67A
E5CA
BE6A
AADA
EB4E
AA4A
0E48
0A40
ENDCHAR
STARTCHAR U+337D
ENCODING 13181
SWIDTH 941 0
DWIDTH 16 0
BBX 15 13 0 0
BITMAP
3000
113C
10E0
9E20
7020
10A0
10BC
28A0
28A0
24A0
44A0
42BE
83C0
ENDCHAR
STARTCHAR U+337E
ENCODING 13182
SWIDTH 941 0
DWIDTH 16 0
BBX 15 14 0 -1
BITMAP
1A98
AE48
EA48
AA94
AE52
EA5E
AA32
AE46
EA5A
AA52
0A52
1296
169A
2290
ENDCHAR
STARTCHAR U+337F
ENCODING 13183
SWIDTH 941 0
DWIDTH 16 0
BBX 15 15 0 -1
BITMAP
540A
569E
FC68
6698
DC6A
4E34
7566
0000
1848
2C68
72AC
8E58
74C8
2A6E
F258
ENDCHAR
STARTCHAR U+338E
ENCODING 13198
SWIDTH 941 0
DWIDTH 16 0
BBX 14 10 1 -1
BITMAP
D86C
7490
5490
5490
5460
5440
54F8
FE84
0084
0078
ENDCHAR
STARTCHAR U+338F
ENCODING 13199
SWIDTH 941 0
DWIDTH 16 0
BBX 14 14 1 -1
BITMAP
C000
4000
4000
4000
4E6C
4490
4890
7090
5060
4840
44F8
EE84
0084
0078
ENDCHAR
STARTCHAR U+339C
ENCODING 13212
SWIDTH 941 0
DWIDTH 16 0
BBX 14 8 1 1
BITMAP
D9B0
74E8
54A8
54A8
54A8
54A8
54A8
FFFC
ENDCHAR
STARTCHAR U+339D
ENCODING 13213
SWIDTH 941 0
DWIDTH 16 0
BBX 13 8 2 1
BITMAP
6B60
99D0
8950
8150
8150
8950
8950
73F8
ENDCHAR
STARTCHAR U+339E
ENCODING 13214
SWIDTH 941 0
DWIDTH 16 0
BBX 14 12 1 1
BITMAP
C000
4000
4000
4000
5DB0
48E8
50A8
60A8
50A8
48A8
48A8
EDFC
ENDCHAR
STARTCHAR U+33A1
ENCODING 13217
SWIDTH 941 0
DWIDTH 16 0
BBX 12 12 2 1
BITMAP
0060
0090
0010
0060
EE80
59F0
4900
4900
4900
4900
4900
FF80
ENDCHAR
STARTCHAR U+33C4
ENCODING 13252
SWIDTH 941 0
DWIDTH 16 0
BBX 12 8 2 1
BITMAP
68D0
9930
8910
8100
8100
8910
8910
70E0
ENDCHAR
STARTCHAR U+33CD
ENCODING 13261
SWIDTH 941 0
DWIDTH 16 0
BBX 15 13 0 -1
BITMAP
EFDC
4488
4488
4890
50A0
60C0
50A0
4890
4890
4488
4488
EFDE
0202
ENDCHAR
STARTCHAR U+3427
ENCODING 13351
SWIDTH 941 0
DWIDTH 16 0
BBX 15 16 0 -2
BITMAP
0180
3080
0880
0480
0480
0080
81FE
7E88
0190
02A0
04C0
0880
3080
C280
0180
0100
ENDCHAR
STARTCHAR U+34C1
ENCODING 13505
SWIDTH 941 0
DWIDTH 16 0
BBX 15 7 0 6
BITMAP
40FE
7F84
4468
8410
0808
1004
6000
ENDCHAR
STARTCHAR U+353E
ENCODING 13630
SWIDTH 941 0
DWIDTH 16 0
BBX 14 15 1 -2
BITMAP
C3F0
7C20
4020
4020
4020
4020
4020
4140
40C0
4080
4000
4008
4008
2008
1FFC
ENDCHAR
STARTCHAR U+353F
ENCODING 13631
SWIDTH 941 0
DWIDTH 16 0
BBX 15 15 0 -2
BITMAP
81FE
7E20
0820
0820
0820
0820
0820
0860
09A0
0E20
1820
0020
0020
0020
0020
ENDCHAR
STARTCHAR U+38FA
ENCODING 14586
SWIDTH 941 0
DWIDTH 16 0
BBX 13 16 1 -2
BITMAP
0C00
0400
0400
0400
0520
2490
2448
2448
4448
8400
0400
0400
0400
0400
0400
0400
ENDCHAR
STARTCHAR U+3E26
ENCODING 15910
SWIDTH 941 0
DWIDTH 16 0
BBX 14 15 1 -2
BITMAP
81F8
7E80
1080
1080
2080
23FC
7C80
4080
1C80
0380
00E0
0090
0288
0184
0100
ENDCHAR
STARTCHAR U+3E74
ENCODING 15988
SWIDTH 941 0
DWIDTH 16 0
BBX 15 16 0 -2
BITMAP
0800
8A1E
51E0
203C
63E4
913C
11E4
2924
293C
49E4
8A20
09A0
0870
5048
3184
2602
ENDCHAR
STARTCHAR U+4D09
ENCODING 19721
SWIDTH 941 0
DWIDTH 16 0
BBX 15 16 0 -2
BITMAP
0010
4F20
755C
5568
5F58
7068
8FD8
7060
4F5C
7260
4EDE
7962
162A
E154
38AC
6088
ENDCHAR
STARTCHAR U+4E00
ENCODING 19968
SWIDTH 941 0
DWIDTH 16 0
BBX 15 2 0 5
BITMAP
80FE
7F00
ENDCHAR
STARTCHAR U+4E01
ENCODING 19969
SWIDTH 941 0
DWIDTH 16 0
BBX 15 15 0 -2
BITMAP
80FE
7F00
0100
0100
0100
0100
0100
0100
0100
0100
0100
0100
0500
0300
0200
ENDCHAR
STARTCHAR U+4E02
ENCODING 19970
SWIDTH 941 0
DWIDTH 16 0
BBX 15 15 0 -2
BITMAP
80FE
7F00
0400
0400
0800
08F8
1F10
1010
0010
0010
0010
0020
0120
00C0
0080
ENDCHAR
STARTCHAR U+4E03
ENCODING 19971
SWIDTH 941 0
DWIDTH 16 0
BBX 15 15 0 -1
BITMAP
1800
0800
0800
0800
080E
08F0
8F00
7800
0800
0800
0800
0808
0808
0408
03FC
ENDCHAR
STARTCHAR U+4E04
ENCODING 19972
SWIDTH 941 0
DWIDTH 16 0
BBX 15 15 0 -1
BITMAP
0300
0100
0100
0100
0100
0100
0100
0100
0100
0100
0100
0100
0100
81FE
7E00
ENDCHAR
STARTCHAR U+4E05
ENCODING 19973
SWIDTH 941 0
DWIDTH 16 0
BBX 15 15 0 -2
BITMAP
80FE
7F00
0100
0100
0100
0100
0100
0100
0100
0100
0100
0100
0100
0100
0100
ENDCHAR
STARTCHAR U+4E06
ENCODING 19974
SWIDTH 941 0
DWIDTH 16 0
BBX 15 12 0 1
BITMAP
80FE
7F00
0100
0100
0100
0200
0200
0400
0800
1000
2000
C000
ENDCHAR
STARTCHAR U+4E07
ENCODING 19975
SWIDTH 941 0
DWIDTH 16 0
BBX 15 14 0 -2
BITMAP
81FE
7E00
0200
0200
0278
0390
0210
0410
0410
0420
0820
0920
10C0
6080
ENDCHAR
STARTCHAR U+4E08
ENCODING 19976
SWIDTH 941 0
DWIDTH 16 0
BBX 15 16 0 -2
BITMAP
0180
0080
0080
80FE
7F80
0080
1880
0680
0100
0180
0240
0220
0410
0808
3004
C002
ENDCHAR
STARTCHAR U+4E09
ENCODING 19977
SWIDTH 941 0
DWIDTH 16 0
BBX 15 13 0 0
BITMAP
20F8
1F00
0000
0000
0000
10F0
0F00
0000
0000
0000
0000
81FE
7E00
ENDCHAR
STARTCHAR U+4E0A
ENCODING 19978
SWIDTH 941 0
DWIDTH 16 0
BBX 15 15 0 -1
BITMAP
0600
0200
0200
0200
0200
02F8
0300
0200
0200
0200
0200
0200
0200
83FE
7C00
ENDCHAR
STARTCHAR U+4E0B
ENCODING 19979
SWIDTH 941 0
DWIDTH 16 0
BBX 15 15 0 -2
BITMAP
80FE
7F00
0100
0100
01C0
0120
0110
0108
0100
0100
0100
0100
0100
0100
0100
ENDCHAR
STARTCHAR U+4E0C
ENCODING 19980
SWIDTH 941 0
DWIDTH 16 0
BBX 15 15 0 -2
BITMAP
80FE
7F20
0420
0420
0420
0420
0420
0420
0420
0820
0820
1020
1020
2020
C020
ENDCHAR
STARTCHAR U+4E0D
ENCODING 19981
SWIDTH 941 0
DWIDTH 16 0
BBX 15 15 0 -2
BITMAP
80FE
7F40
0080
0100
0340
0530
0908
1104
2102
C100
0100
0100
0100
0100
0100
ENDCHAR
STARTCHAR U+4E0E
ENCODING 19982
SWIDTH 941 0
DWIDTH 16 0
BBX 14 16 0 -2
BITMAP
0400
0478
0780
0400
0400
087C
0F88
1808
0008
81C8
7E08
0010
0010
00A0
0060
0040
ENDCHAR
STARTCHAR U+4E0F
ENCODING 19983
SWIDTH 941 0
DWIDTH 16 0
BBX 15 15 0 -2
BITMAP
80FE
7F00
0100
0100
31FE
1104
1104
11FC
3F04
2004
0008
0008
0050
0030
0020
ENDCHAR
STARTCHAR U+4E10
ENCODING 19984
SWIDTH 941 0
DWIDTH 16 0
BBX 15 15 0 -2
BITMAP
80FE
7F00
0100
0138
31C0
1100
1100
11FE
3F04
2004
0008
0008
0050
0030
0020
ENDCHAR
STARTCHAR U+4E11
ENCODING 19985
SWIDTH 941 0
DWIDTH 16 0
BBX 15 14 0 -1
BITMAP
41F0
3E20
0220
0220
0220
43E0
3E20
0220
0420
0420
0420
0420
85FE
7E00
ENDCHAR
STARTCHAR U+4E12
ENCODING 19986
SWIDTH 941 0
DWIDTH 16 0
BBX 15 14 0 -1
BITMAP
80FE
7F04
0104
0104
1904
0604
0308
0508
0850
3030
C020
0000
81FE
7E00
ENDCHAR
STARTCHAR U+4E13
ENCODING 19987
SWIDTH 941 0
DWIDTH 16 0
BBX 15 16 0 -2
BITMAP
0100
0100
0100
21F8
1E00
0200
83FE
7C00
0400
04F8
0F10
0820
0240
0180
0040
0040
ENDCHAR
STARTCHAR U+4E14
ENCODING 19988
SWIDTH 941 0
DWIDTH 16 0
BBX 15 14 0 -1
BITMAP
18F0
0F20
0820
0820
08E0
0F20
0820
0820
09E0
0E20
0820
0820
89FE
7E00
ENDCHAR
STARTCHAR U+4E15
ENCODING 19989
SWIDTH 941 0
DWIDTH 16 0
BBX 15 14 0 -1
BITMAP
80FE
7F40
0080
0100
0140
0330
0508
1904
6100
0100
0100
0000
81FE
7E00
ENDCHAR
STARTCHAR U+4E16
ENCODING 19990
SWIDTH 941 0
DWIDTH 16 0
BBX 15 16 0 -2
BITMAP
3330
1110
1110
1110
1110
91FE
7F10
1110
1130
11D0
1110
1000
1000
10FE
1F00
1000
ENDCHAR
STARTCHAR U+4E17
ENCODING 19991
SWIDTH 941 0
DWIDTH 16 0
BBX 15 16 0 -2
BITMAP
3330
1110
1110
1110
1110
91FE
7F10
1110
1110
1110
1110
1110
1110
11F0
1E10
1010
ENDCHAR
STARTCHAR U+4E18
ENCODING 19992
SWIDTH 941 0
DWIDTH 16 0
BBX 15 15 0 -1
BITMAP
0030
0040
3180
1E00
1000
1000
10F8
1F40
1040
1040
1040
1040
1040
91FE
7E00
ENDCHAR
STARTCHAR U+4E19
ENCODING 19993
SWIDTH 941 0
DWIDTH 16 0
BBX 15 15 0 -2
BITMAP
80FE
7F00
0100
0100
61FC
3F08
2188
2248
2228
2428
2818
3008
2028
2018
2010
ENDCHAR
STARTCHAR U+4E1A
ENCODING 19994
SWIDTH 941 0
DWIDTH 16 0
BBX 15 15 0 -1
BITMAP
00C0
0C40
0440
0440
0448
4448
2448
2450
1450
1440
0440
0440
0440
85FE
7E00
ENDCHAR
STARTCHAR U+4E1B
ENCODING 19995
SWIDTH 941 0
DWIDTH 16 0
BBX 15 15 0 -1
BITMAP
1860
0820
0820
0820
0820
0820
1450
1248
2284
2084
4102
8602
1800
80FE
7F00
ENDCHAR
STARTCHAR U+4E1C
ENCODING 19996
SWIDTH 941 0
DWIDTH 16 0
BBX 15 16 0 -2
BITMAP
0200
0200
0200
84FE
7F00
0800
0B00
1100
11F8
3F00
2120
0910
1108
2504
C304
0200
ENDCHAR
STARTCHAR U+4E1D
ENCODING 19997
SWIDTH 941 0
DWIDTH 16 0
BBX 15 15 0 -1
BITMAP
0820
0820
0824
1244
1248
3EF8
6590
0410
0820
0B26
1C78
6180
0000
80FE
7F00
ENDCHAR
STARTCHAR U+4E1E
ENCODING 19998
SWIDTH 941 0
DWIDTH 16 0
BBX 15 14 0 -1
BITMAP
08F0
0720
0244
0184
8D08
74D0
08B0
0888
1084
2282
4100
8100
41FC
3E00
ENDCHAR
STARTCHAR U+4E1F
ENCODING 19999
SWIDTH 941 0
DWIDTH 16 0
BBX 15 14 0 -1
BITMAP
40FC
3F00
0100
41FC
3F00
0100
0100
81FE
7E40
0220
0410
0478
0B84
7C04
ENDCHAR
STARTCHAR U+4E20
ENCODING 20000
SWIDTH 941 0
DWIDTH 16 0
BBX 15 15 0 -1
BITMAP
0D80
0480
0480
048C
9C90
64E0
0480
0C80
3480
C484
0444
043E
0400
80FE
7F00
ENDCHAR
STARTCHAR U+4E21
ENCODING 20001
SWIDTH 941 0
DWIDTH 16 0
BBX 15 15 0 -2
BITMAP
80FE
7F00
0100
0100
C1FE
7F04
4104
4924
4924
4924
49E4
4E24
4814
400C
4008
ENDCHAR
STARTCHAR U+4E22
ENCODING 20002
SWIDTH 941 0
DWIDTH 16 0
BBX 15 15 0 -1
BITMAP
0030
00C0
0300
3D00
0100
41FC
3F00
0100
81FE
7E40
0220
0410
0478
0B84
7C04
ENDCHAR
STARTCHAR U+4E24
ENCODING 20004
SWIDTH 941 0
DWIDTH 16 0
BBX 15 15 0 -2
BITMAP
80FE
7F40
0440
0440
C4FE
7F44
4444
4444
4A64
4994
488C
5104
6214
400C
4008
ENDCHAR
STARTCHAR U+4E25
ENCODING 20005
SWIDTH 941 0
DWIDTH 16 0
BBX 15 14 0 -1
BITMAP
61FE
3E48
1248
0A50
0A50
63FE
3E00
2000
2000
2000
2000
4000
4000
8000
ENDCHAR
STARTCHAR U+4E26
ENCODING 20006
SWIDTH 941 0
DWIDTH 16 0
BBX 15 15 0 -1
BITMAP
0020
1020
0840
0480
45FC
3E40
0448
4448
2448
2450
1450
1440
0440
85FE
7E00
ENDCHAR
STARTCHAR U+4E27
ENCODING 20007
SWIDTH 941 0
DWIDTH 16 0
BBX 15 16 0 -2
BITMAP
0300
0100
41FC
3F00
0110
1110
0920
0940
81FE
7E08
0988
0850
08A0
0B18
0C04
7002
ENDCHAR
STARTCHAR U+4E28
ENCODING 20008
SWIDTH 941 0
DWIDTH 16 0
BBX 2 16 6 -2
BITMAP
C0
40
40
40
40
40
40
40
40
40
40
40
40
40
40
40
ENDCHAR
STARTCHAR U+4E29
ENCODING 20009
SWIDTH 941 0
DWIDTH 16 0
BBX 9 16 2 -2
BITMAP
0180
3080
1080
1080
1080
1080
1080
1080
1080
1380
1C80
3080
C080
0080
0080
0080
ENDCHAR
STARTCHAR U+4E2A
ENCODING 20010
SWIDTH 941 0
DWIDTH 16 0
BBX 15 16 0 -2
BITMAP
0100
0180
0240
0220
0410
0B08
1104
2102
C100
0100
0100
0100
0100
0100
0100
0100
ENDCHAR
STARTCHAR U+4E2B
ENCODING 20011
SWIDTH 941 0
DWIDTH 16 0
BBX 12 16 1 -2
BITMAP
0030
C020
2040
1040
0880
0500
0200
0200
0200
0200
0200
0200
0200
0200
0200
0200
ENDCHAR
STARTCHAR U+4E2C
ENCODING 20012
SWIDTH 941 0
DWIDTH 16 0
BBX 5 16 5 -2
BITMAP
18
08
08
48
28
28
08
08
18
28
C8
08
08
08
08
08
ENDCHAR
STARTCHAR U+4E2D
ENCODING 20013
SWIDTH 941 0
DWIDTH 16 0
BBX 15 16 0 -2
BITMAP
0300
0100
0100
C1FE
7F04
4104
4104
4104
41FC
7F04
4100
0100
0100
0100
0100
0100
ENDCHAR
STARTCHAR U+4E2F
ENCODING 20015
SWIDTH 941 0
DWIDTH 16 0
BBX 15 16 0 -2
BITMAP
0302
0104
0118
0162
0784
F918
0160
0782
F904
0118
0160
0780
F900
0100
0100
0100
ENDCHAR
STARTCHAR U+4E30
ENCODING 20016
SWIDTH 941 0
DWIDTH 16 0
BBX 15 16 0 -2
BITMAP
0300
0100
21F8
1F00
0100
0100
11F0
0F00
0100
0100
81FE
7F00
0100
0100
0100
0100
ENDCHAR
STARTCHAR U+4E31
ENCODING 20017
SWIDTH 941 0
DWIDTH 16 0
BBX 14 16 0 -2
BITMAP
0CC0
0440
0440
C44C
4444
4444
4444
4444
4C4C
7474
4444
0844
0840
1040
2040
C040
ENDCHAR
STARTCHAR U+4E32
ENCODING 20018
SWIDTH 941 0
DWIDTH 16 0
BBX 15 16 0 -2
BITMAP
0300
0100
61FC
3F08
2108
21F8
3F08
2100
C1FE
7F04
4104
41FC
7F04
4100
0100
0100
ENDCHAR
STARTCHAR U+4E34
ENCODING 20020
SWIDTH 941 0
DWIDTH 16 0
BBX 15 16 0 -2
BITMAP
1880
0880
C89E
48E0
4900
4960
4A18
4800
4B1E
49E4
4924
0924
0924
093C
09E4
0904
ENDCHAR
STARTCHAR U+4E36
ENCODING 20022
SWIDTH 941 0
DWIDTH 16 0
BBX 8 8 4 2
BITMAP
C0
30
08
04
02
02
01
01
ENDCHAR
STARTCHAR U+4E38
ENCODING 20024
SWIDTH 941 0
DWIDTH 16 0
BBX 15 16 0 -2
BITMAP
0600
0200
0200
83F0
7E20
0220
2220
1A20
0420
0620
0920
08A0
10A4
2024
4014
800E
ENDCHAR
STARTCHAR U+4E39
ENCODING 20025
SWIDTH 941 0
DWIDTH 16 0
BBX 15 15 0 -2
BITMAP
18F8
0F10
0910
0890
0890
0810
88FE
7F10
0810
0810
0810
1010
1050
2030
C020
ENDCHAR
STARTCHAR U+4E3A
ENCODING 20026
SWIDTH 941 0
DWIDTH 16 0
BBX 14 16 0 -2
BITMAP
0300
1100
0900
0900
41FC
3F08
0108
0108
0288
0248
0448
0410
0810
1090
2060
C040
ENDCHAR
STARTCHAR U+4E3B
ENCODING 20027
SWIDTH 941 0
DWIDTH 16 0
BBX 15 15 0 -1
BITMAP
0400
0300
0080
40FC
3F00
0100
0100
0100
21F8
1F00
0100
0100
0100
81FE
7E00
ENDCHAR
STARTCHAR U+4E3C
ENCODING 20028
SWIDTH 941 0
DWIDTH 16 0
BBX 15 16 0 -2
BITMAP
0C60
0420
0420
44FC
3F20
0420
0520
04A0
04A0
84FE
7F20
0820
0820
1020
2020
C020
ENDCHAR
STARTCHAR U+4E3D
ENCODING 20029
SWIDTH 941 0
DWIDTH 16 0
BBX 15 15 0 -2
BITMAP
80FE
7F00
0000
0000
C69E
7AE4
4284
62C4
52A4
4A94
4A94
4284
4A94
468C
4488
ENDCHAR
STARTCHAR U+4E3E
ENCODING 20030
SWIDTH 941 0
DWIDTH 16 0
BBX 15 16 0 -2
BITMAP
0210
1110
0920
89FE
7F20
0810
130C
2102
D1F8
0F00
0100
41FC
3F00
0100
0100
0100
ENDCHAR
STARTCHAR U+4E3F
ENCODING 20031
SWIDTH 941 0
DWIDTH 16 0
BBX 7 16 2 -2
BITMAP
06
02
02
02
02
02
02
02
04
04
04
08
08
10
20
C0
ENDCHAR
STARTCHAR U+4E42
ENCODING 20034
SWIDTH 941 0
DWIDTH 16 0
BBX 15 16 0 -2
BITMAP
0018
2008
1810
0410
0210
0120
00A0
0040
0040
00A0
0110
0208
0408
0804
3002
C002
ENDCHAR
STARTCHAR U+4E43
ENCODING 20035
SWIDTH 941 0
DWIDTH 16 0
BBX 15 15 0 -2
BITMAP
41F0
3E20
0420
0440
0440
045E
04E4
0804
0804
0804
1008
1008
2048
4030
8020
ENDCHAR
STARTCHAR U+4E45
ENCODING 20037
SWIDTH 941 0
DWIDTH 16 0
BBX 15 16 0 -2
BITMAP
0200
0200
0200
0270
0790
0420
0820
1040
2040
40C0
0120
0210
0408
0804
3004
C002
ENDCHAR
STARTCHAR U+4E46
ENCODING 20038
SWIDTH 941 0
DWIDTH 16 0
BBX 15 16 0 -2
BITMAP
0208
0208
0208
0410
0410
0820
13E0
3C40
2040
00C0
0120
0210
0408
0804
3004
C002
ENDCHAR
STARTCHAR U+4E47
ENCODING 20039
SWIDTH 941 0
DWIDTH 16 0
BBX 15 16 0 -2
BITMAP
0030
00C0
0700
3A00
0200
0200
0200
82FC
7F00
0200
0200
0200
0204
0204
0104
00FE
ENDCHAR
STARTCHAR U+4E48
ENCODING 20040
SWIDTH 941 0
DWIDTH 16 0
BBX 15 15 0 -1
BITMAP
0100
0100
0200
0220
0420
0840
1040
2080
C120
0110
0208
0434
09C4
1E02
E002
ENDCHAR
STARTCHAR U+4E49
ENCODING 20041
SWIDTH 941 0
DWIDTH 16 0
BBX 15 16 0 -2
BITMAP
0200
0118
2088
1888
0410
0210
0120
00A0
0040
00A0
0110
0208
0408
0804
3002
C002
ENDCHAR
STARTCHAR U+4E4B
ENCODING 20043
SWIDTH 941 0
DWIDTH 16 0
BBX 15 16 0 -2
BITMAP
0300
0100
0100
41F8
3E10
0020
0040
0080
0100
0200
1400
1800
2400
2200
4180
807E
ENDCHAR
STARTCHAR U+4E4C
ENCODING 20044
SWIDTH 941 0
DWIDTH 16 0
BBX 15 16 0 -2
BITMAP
0100
0200
1BF0
0E20
0820
0820
0860
0800
09FE
0E04
0804
81E4
7E04
0024
0018
0010
ENDCHAR
STARTCHAR U+4E4D
ENCODING 20045
SWIDTH 941 0
DWIDTH 16 0
BBX 15 16 0 -2
BITMAP
0800
0800
0800
10FE
1F00
2100
4178
8180
0100
0100
017C
0180
0100
0100
0100
0100
ENDCHAR
STARTCHAR U+4E4E
ENCODING 20046
SWIDTH 941 0
DWIDTH 16 0
BBX 15 16 0 -2
BITMAP
0018
0060
0388
3D08
1090
0890
04A0
84FE
7F80
0080
0080
0080
0080
0500
0300
0200
ENDCHAR
STARTCHAR U+4E4F
ENCODING 20047
SWIDTH 941 0
DWIDTH 16 0
BBX 15 16 0 -2
BITMAP
0038
01C0
3F00
0100
0100
41F8
3E10
0020
0040
0080
1100
1200
2C00
2400
4300
80FE
ENDCHAR
STARTCHAR U+4E50
ENCODING 20048
SWIDTH 941 0
DWIDTH 16 0
BBX 15 16 0 -2
BITMAP
0038
31C0
1F00
1000
1300
1100
2100
21FC
7F00
4100
0920
0918
1104
2502
C302
0200
ENDCHAR
STARTCHAR U+4E52
ENCODING 20050
SWIDTH 941 0
DWIDTH 16 0
BBX 15 16 0 -2
BITMAP
0030
19C0
0E00
0800
08F8
0F40
0840
0840
0840
89FE
7E00
0000
0200
0400
1800
6000
ENDCHAR
STARTCHAR U+4E53
ENCODING 20051
SWIDTH 941 0
DWIDTH 16 0
BBX 15 16 0 -2
BITMAP
0030
19C0
0E00
0800
08F8
0F40
0840
0840
0840
89FE
7E00
0080
0060
0010
0008
0004
ENDCHAR
STARTCHAR U+4E54
ENCODING 20052
SWIDTH 941 0
DWIDTH 16 0
BBX 15 16 0 -2
BITMAP
0038
01C0
3F00
0100
82FE
7F80
0460
0810
1468
2424
C422
0420
0820
0820
1020
6020
ENDCHAR
STARTCHAR U+4E55
ENCODING 20053
SWIDTH 941 0
DWIDTH 16 0
BBX 15 16 0 -2
BITMAP
0018
60E0
3F80
2080
30FC
2F80
30FE
2F80
2080
28FC
2F88
2888
48A8
4898
8890
0080
ENDCHAR
STARTCHAR U+4E56
ENCODING 20054
SWIDTH 941 0
DWIDTH 16 0
BBX 15 16 0 -2
BITMAP
0038
03C0
7D00
0100
81FE
7F00
0964
0924
4928
3930
0920
1924
2924
C91E
0100
0100
ENDCHAR
STARTCHAR U+4E57
ENCODING 20055
SWIDTH 941 0
DWIDTH 16 0
BBX 15 16 0 -2
BITMAP
0038
01C0
1F00
41FC
3F20
0920
89FE
7F20
0920
49FC
3F80
0360
0510
0908
3104
C102
ENDCHAR
STARTCHAR U+4E58
ENCODING 20056
SWIDTH 941 0
DWIDTH 16 0
BBX 15 16 0 -2
BITMAP
0070
0380
3D00
81FE
7F04
0964
4928
3930
0924
191E
6BC0
0530
0908
3104
C102
0100
ENDCHAR
STARTCHAR U+4E59
ENCODING 20057
SWIDTH 941 0
DWIDTH 16 0
BBX 13 14 1 -1
BITMAP
41C0
3E80
0100
0200
0400
0800
1000
2000
4000
4000
8010
8010
4010
3FF8
ENDCHAR
STARTCHAR U+4E5A
ENCODING 20058
SWIDTH 941 0
DWIDTH 16 0
BBX 13 15 1 -1
BITMAP
C000
4000
4000
4000
4000
4000
4000
4000
4000
4000
4000
4010
4010
2010
1FF8
ENDCHAR
STARTCHAR U+4E5B
ENCODING 20059
SWIDTH 941 0
DWIDTH 16 0
BBX 15 4 0 9
BITMAP
81FE
7E04
0008
0010
ENDCHAR
STARTCHAR U+4E5C
ENCODING 20060
SWIDTH 941 0
DWIDTH 16 0
BBX 15 15 0 -2
BITMAP
3000
1000
1018
1070
1190
1610
3810
D010
1050
1030
1020
1004
1004
0804
07FE
ENDCHAR
STARTCHAR U+4E5D
ENCODING 20061
SWIDTH 941 0
DWIDTH 16 0
BBX 15 16 0 -2
BITMAP
0600
0200
0200
0200
83F0
7E20
0220
0220
0420
0420
0420
0820
0824
1024
2024
C01E
ENDCHAR
STARTCHAR U+4E5E
ENCODING 20062
SWIDTH 941 0
DWIDTH 16 0
BBX 15 16 0 -2
BITMAP
0800
0800
10FC
1F00
2000
51E0
8E40
0180
0200
0400
0800
1000
2004
2004
1004
0FFE
ENDCHAR
STARTCHAR U+4E5F
ENCODING 20063
SWIDTH 941 0
DWIDTH 16 0
BBX 15 16 0 -2
BITMAP
0300
3100
1100
1118
1170
1190
1710
3910
D110
1150
1130
1120
1104
1004
0804
07FE
ENDCHAR
STARTCHAR U+4E60
ENCODING 20064
SWIDTH 941 0
DWIDTH 16 0
BBX 13 15 1 -2
BITMAP
83F8
7C10
0010
1010
0810
0410
0410
0050
0090
0310
1C10
E010
0050
0030
0020
ENDCHAR
STARTCHAR U+4E61
ENCODING 20065
SWIDTH 941 0
DWIDTH 16 0
BBX 13 16 1 -2
BITMAP
0200
0200
0440
0440
0888
1708
7908
0210
0470
0FA0
7020
0040
0080
0300
0C00
F000
ENDCHAR
STARTCHAR U+4E62
ENCODING 20066
SWIDTH 941 0
DWIDTH 16 0
BBX 15 16 0 -2
BITMAP
30C0
1040
1040
9240
9240
9240
9240
9240
9240
9240
9240
9E40
E244
8044
0024
001E
ENDCHAR
STARTCHAR U+4E66
ENCODING 20070
SWIDTH 941 0
DWIDTH 16 0
BBX 15 16 0 -2
BITMAP
0330
0108
0104
21F8
1F08
0110
0110
81FE
7F04
0104
0104
0128
0118
0110
0100
0100
ENDCHAR
STARTCHAR U+4E69
ENCODING 20073
SWIDTH 941 0
DWIDTH 16 0
BBX 15 16 0 -2
BITMAP
18C0
0840
0840
0B40
0C40
0840
0840
CF40
7240
4240
4240
4240
4E44
7244
4044
003E
ENDCHAR
STARTCHAR U+4E70
ENCODING 20080
SWIDTH 941 0
DWIDTH 16 0
BBX 15 15 0 -2
BITMAP
81FE
7E04
0848
0450
2240
1240
0840
0880
80FE
7F80
0160
0210
0C08
3004
C002
ENDCHAR
STARTCHAR U+4E71
ENCODING 20081
SWIDTH 941 0
DWIDTH 16 0
BBX 15 16 0 -2
BITMAP
06C0
1840
E840
0840
8F40
7840
0840
0840
CF40
7240
4240
4240
4244
4E44
7244
423E
ENDCHAR
STARTCHAR U+4E73
ENCODING 20083
SWIDTH 941 0
DWIDTH 16 0
BBX 15 16 0 -2
BITMAP
0340
0D40
7140
9240
4A40
4840
4E40
3240
14C0
0940
0E40
3440
C444
1444
0844
083E
ENDCHAR
STARTCHAR U+4E7E
ENCODING 20094
SWIDTH 941 0
DWIDTH 16 0
BBX 15 16 0 -2
BITMAP
1840
0840
8F40
784E
0EF0
7280
4F58
7268
4210
4E20
7A40
4840
8F44
7884
0884
087E
ENDCHAR
STARTCHAR U+4E80
ENCODING 20096
SWIDTH 941 0
DWIDTH 16 0
BBX 15 16 0 -2
BITMAP
0480
0780
08F8
1F10
31F0
DF10
11F0
1F10
61FC
3F08
21F8
3F08
21F8
3F0C
2104
00FE
ENDCHAR
STARTCHAR U+4E82
ENCODING 20098
SWIDTH 941 0
DWIDTH 16 0
BBX 15 16 0 -2
BITMAP
0360
0E20
F120
4A20
AF20
7220
17A0
FCA0
56A0
59A0
66A0
5AA0
44A4
4AA4
71A4
411E
ENDCHAR
STARTCHAR U+4E85
ENCODING 20101
SWIDTH 941 0
DWIDTH 16 0
BBX 3 16 5 -2
BITMAP
60
20
20
20
20
20
20
20
20
20
20
20
20
A0
60
40
ENDCHAR
STARTCHAR U+4E86
ENCODING 20102
SWIDTH 941 0
DWIDTH 16 0
BBX 12 15 2 -2
BITMAP
81F0
7E20
10C0
0900
0500
0200
0200
0200
0200
0200
0200
0200
0A00
0400
0400
ENDCHAR
STARTCHAR U+4E88
ENCODING 20104
SWIDTH 941 0
DWIDTH 16 0
BBX 15 15 0 -2
BITMAP
20F8
1F10
0420
02C0
0100
81FE
7F04
0088
0090
0080
0080
0080
0280
0100
0100
ENDCHAR
STARTCHAR U+4E89
ENCODING 20105
SWIDTH 941 0
DWIDTH 16 0
BBX 15 16 0 -2
BITMAP
0800
09C0
0E80
1100
23F8
7F10
81FE
7F10
0110
21F0
1F10
0100
0100
0500
0300
0200
ENDCHAR
STARTCHAR U+4E8A
ENCODING 20106
SWIDTH 941 0
DWIDTH 16 0
BBX 15 16 0 -2
BITMAP
0300
0100
81FE
7F10
0920
25F8
1F10
81FE
7F10
0110
21F0
1F10
0100
0500
0300
0200
ENDCHAR
STARTCHAR U+4E8B
ENCODING 20107
SWIDTH 941 0
DWIDTH 16 0
BBX 15 16 0 -2
BITMAP
0300
81FE
7F00
11F8
1F10
11F0
1F00
21F8
1F10
81FE
7F10
21F0
1F10
0500
0300
0200
ENDCHAR
STARTCHAR U+4E8C
ENCODING 20108
SWIDTH 941 0
DWIDTH 16 0
BBX 15 10 0 1
BITMAP
20F8
1F00
0000
0000
0000
0000
0000
0000
81FE
7E00
ENDCHAR
STARTCHAR U+4E8D
ENCODING 20109
SWIDTH 941 0
DWIDTH 16 0
BBX 15 15 0 -2
BITMAP
40FC
3F00
0000
0000
0000
80FE
7F00
0100
0100
0100
0100
0100
0500
0300
0200
ENDCHAR
STARTCHAR U+4E8E
ENCODING 20110
SWIDTH 941 0
DWIDTH 16 0
BBX 15 15 0 -2
BITMAP
40FC
3F00
0100
0100
0100
81FE
7F00
0100
0100
0100
0100
0100
0500
0300
0200
ENDCHAR
STARTCHAR U+4E8F
ENCODING 20111
SWIDTH 941 0
DWIDTH 16 0
BBX 15 15 0 -2
BITMAP
20F8
1F00
0000
0000
80FE
7F00
0800
08F8
1F10
1010
0010
0020
0120
00C0
0080
ENDCHAR
STARTCHAR U+4E90
ENCODING 20112
SWIDTH 941 0
DWIDTH 16 0
BBX 15 15 0 -2
BITMAP
40FC
3F00
0400
0400
84FE
7F00
0800
08F8
1F10
1010
0010
0020
0120
00C0
0080
ENDCHAR
STARTCHAR U+4E91
ENCODING 20113
SWIDTH 941 0
DWIDTH 16 0
BBX 15 14 0 -1
BITMAP
20F8
1F00
0000
0000
80FE
7F00
0200
0200
0420
0410
0418
08E8
0F04
7004
ENDCHAR
STARTCHAR U+4E92
ENCODING 20114
SWIDTH 941 0
DWIDTH 16 0
BBX 15 14 0 -1
BITMAP
40FC
3F00
0200
02F8
0310
0410
0420
0420
09E0
0E20
0840
0040
81FE
7E00
ENDCHAR
STARTCHAR U+4E93
ENCODING 20115
SWIDTH 941 0
DWIDTH 16 0
BBX 15 15 0 -2
BITMAP
20F8
1F00
0000
0000
80FE
7F20
0420
0420
0420
0420
0820
0820
1020
2020
C020
ENDCHAR
STARTCHAR U+4E94
ENCODING 20116
SWIDTH 941 0
DWIDTH 16 0
BBX 15 14 0 -1
BITMAP
40FC
3F00
0100
0100
0100
21F8
1E10
0210
0210
0210
0410
0410
85FE
7E00
ENDCHAR
STARTCHAR U+4E95
ENCODING 20117
SWIDTH 941 0
DWIDTH 16 0
BBX 15 16 0 -2
BITMAP
0C60
0420
0420
0420
44FC
3F20
0420
0420
0420
85FE
7E20
0820
0820
1020
2020
C020
ENDCHAR
STARTCHAR U+4E96
ENCODING 20118
SWIDTH 941 0
DWIDTH 16 0
BBX 15 14 0 -1
BITMAP
21F8
1E00
0000
0000
81FE
7E00
0000
0000
21F8
1E00
0000
0000
81FE
7E00
ENDCHAR
STARTCHAR U+4E98
ENCODING 20120
SWIDTH 941 0
DWIDTH 16 0
BBX 15 14 0 -1
BITMAP
41FC
3E00
0000
19F0
0E20
0820
09E0
0E20
0820
09E0
0E20
0800
81FE
7E00
ENDCHAR
STARTCHAR U+4E99
ENCODING 20121
SWIDTH 941 0
DWIDTH 16 0
BBX 15 14 0 -1
BITMAP
40FC
3F00
0400
04F0
0720
0420
0B20
08C0
0E40
1140
1080
0080
81FE
7E00
ENDCHAR
STARTCHAR U+4E9A
ENCODING 20122
SWIDTH 941 0
DWIDTH 16 0
BBX 15 14 0 -1
BITMAP
40FC
3F40
0440
0440
0448
4448
2448
2450
1450
1440
0440
0440
85FE
7E00
ENDCHAR
STARTCHAR U+4E9B
ENCODING 20123
SWIDTH 941 0
DWIDTH 16 0
BBX 15 15 0 -1
BITMAP
1980
0884
6B84
2C98
28E0
2980
2E84
3844
E03E
0000
21F8
1E00
0000
81FE
7E00
ENDCHAR
STARTCHAR U+4E9C
ENCODING 20124
SWIDTH 941 0
DWIDTH 16 0
BBX 15 14 0 -1
BITMAP
40FC
3F40
0440
0440
65FC
3E48
2448
2448
25F8
3E48
2440
0440
85FE
7E00
ENDCHAR
STARTCHAR U+4E9E
ENCODING 20126
SWIDTH 941 0
DWIDTH 16 0
BBX 15 14 0 -1
BITMAP
41FC
3E40
0440
044C
5C74
6444
4004
4004
4C5C
7464
4440
0440
85FE
7E00
ENDCHAR
STARTCHAR U+4E9F
ENCODING 20127
SWIDTH 941 0
DWIDTH 16 0
BBX 15 14 0 -1
BITMAP
21F8
1E10
0220
0140
6EEE
3494
24A4
2498
2C8C
3692
25A2
0100
81FE
7E00
ENDCHAR
STARTCHAR U+4EA0
ENCODING 20128
SWIDTH 941 0
DWIDTH 16 0
BBX 15 6 0 8
BITMAP
0300
0100
0100
0100
81FE
7E00
ENDCHAR
STARTCHAR U+4EA1
ENCODING 20129
SWIDTH 941 0
DWIDTH 16 0
BBX 15 16 0 -2
BITMAP
0300
0100
0100
0100
81FE
7F00
1000
1000
1000
1000
1000
1000
1000
10FC
1F00
1000
ENDCHAR
STARTCHAR U+4EA2
ENCODING 20130
SWIDTH 941 0
DWIDTH 16 0
BBX 15 16 0 -2
BITMAP
0300
0100
81FE
7F00
0000
19C0
0E80
0880
0880
0880
0880
1080
1084
2084
4044
803E
ENDCHAR
STARTCHAR U+4EA4
ENCODING 20132
SWIDTH 941 0
DWIDTH 16 0
BBX 15 16 0 -2
BITMAP
0300
0100
81FE
7E40
0820
0850
1448
2244
C184
0080
0140
0220
0410
0808
3004
C002
ENDCHAR
STARTCHAR U+4EA5
ENCODING 20133
SWIDTH 941 0
DWIDTH 16 0
BBX 15 16 0 -2
BITMAP
0300
0100
81FE
7F00
0240
0240
0490
0790
1920
0220
0440
08A0
3110
0210
0C08
7008
ENDCHAR
ENDFONT
